{"glyphs":{"0":{"ha":1124,"x_min":83,"x_max":1042,"o":"m 538 954 q 556 957 544 954 q 574 960 568 960 q 669 954 619 960 q 743 942 720 949 q 814 910 768 935 q 895 864 861 886 q 952 804 920 846 q 989 732 984 761 q 1012 681 991 719 q 1036 614 1034 643 q 1042 514 1042 555 q 1039 467 1042 476 q 1036 450 1036 456 q 1029 411 1036 442 q 1022 364 1022 379 q 1010 312 1022 340 q 996 275 998 285 q 974 238 989 260 q 953 197 959 216 q 911 132 946 174 q 851 69 876 89 q 815 51 838 58 q 781 32 793 45 q 707 1 762 14 q 591 -16 652 -12 q 539 -21 564 -21 q 433 -8 473 -21 q 396 0 422 -5 q 344 13 370 4 q 289 40 318 22 q 184 125 206 93 q 170 147 180 131 q 155 169 159 163 q 143 188 151 175 q 131 209 135 201 q 123 229 127 217 q 115 252 118 240 q 94 359 110 274 q 90 377 94 363 q 85 404 87 392 q 83 433 83 416 q 85 453 83 434 q 90 498 87 473 q 92 539 92 524 q 107 614 92 564 q 144 703 123 664 q 245 821 206 817 q 249 821 248 821 q 251 822 250 821 q 253 825 252 823 q 256 829 254 827 q 260 837 257 831 q 267 847 263 842 q 304 873 278 861 q 336 899 330 886 q 416 933 350 915 q 538 954 481 951 m 546 893 q 530 892 537 893 q 518 891 523 892 q 508 889 513 890 q 499 886 502 887 q 490 882 496 886 q 482 877 484 878 q 472 871 480 876 q 461 864 465 866 q 419 830 435 848 q 381 783 402 812 q 347 737 361 753 q 289 575 296 656 q 288 548 289 564 q 288 525 288 531 q 289 487 288 507 q 290 460 290 467 q 290 455 290 459 q 289 441 290 450 q 289 418 289 431 q 297 304 289 360 q 314 241 299 279 q 345 179 328 204 q 363 141 353 165 q 385 106 373 116 q 435 65 401 86 q 500 43 469 45 q 519 39 502 43 q 547 36 537 36 q 657 60 620 36 q 696 91 675 71 q 732 122 718 111 q 756 153 745 132 q 778 202 767 174 q 796 241 789 230 q 833 347 829 309 q 839 393 835 357 q 847 458 844 429 q 850 503 850 486 q 846 542 850 514 q 842 583 842 570 q 841 607 842 587 q 840 633 840 627 q 828 676 840 649 q 797 748 819 692 q 760 821 775 804 q 748 832 757 823 q 737 844 740 841 q 726 853 734 846 q 714 863 719 860 q 703 870 710 866 q 690 877 696 874 q 676 880 684 879 q 635 890 668 882 q 581 899 602 899 q 563 896 577 899 q 546 893 549 893 z "},"1":{"ha":545,"x_min":83,"x_max":461,"o":"m 195 677 q 197 715 197 696 q 195 773 197 737 q 193 814 193 810 q 180 821 193 821 q 150 817 172 821 q 117 812 127 812 q 90 819 96 812 q 83 842 83 825 q 97 858 83 852 q 133 870 111 865 q 161 879 154 876 q 192 895 174 886 q 217 908 210 905 q 233 914 224 911 q 250 917 242 917 q 281 933 252 917 q 311 950 309 950 q 349 940 339 950 q 359 899 358 929 q 360 878 359 891 q 361 860 361 865 q 359 803 361 834 q 357 762 357 772 q 359 713 357 747 q 364 587 364 606 q 363 566 364 571 q 355 464 355 528 q 359 423 355 448 q 363 387 363 397 q 361 320 363 375 q 359 240 359 265 q 362 155 359 223 q 364 85 364 87 q 399 52 364 61 q 430 45 409 48 q 457 39 452 41 q 461 28 461 35 q 457 11 461 19 q 424 1 453 8 q 393 0 418 0 q 350 1 378 0 q 315 1 321 1 q 305 2 315 1 q 268 3 295 3 q 196 4 240 4 q 168 3 195 4 q 122 1 140 1 q 87 5 92 1 q 83 22 83 9 q 87 37 83 33 q 127 43 92 39 q 165 65 149 45 q 184 121 178 78 q 187 166 184 133 q 189 203 189 199 q 186 244 189 217 q 183 292 183 271 q 193 376 183 328 q 195 409 193 386 q 196 443 196 432 q 195 463 196 454 q 193 475 193 471 q 198 498 193 484 q 203 521 203 513 q 197 547 203 530 q 191 575 191 565 q 193 622 191 589 q 195 677 195 654 z "},"2":{"ha":887,"x_min":83,"x_max":777,"o":"m 419 893 q 357 881 385 892 q 314 858 328 870 q 286 830 300 845 q 268 812 272 815 q 216 758 230 787 q 201 722 209 745 q 189 692 193 700 q 184 679 188 688 q 178 666 180 670 q 172 657 176 663 q 161 649 168 652 q 147 647 155 647 q 123 669 123 647 q 132 758 123 704 q 136 795 134 770 q 141 839 138 821 q 150 869 144 857 q 188 904 157 886 q 249 930 218 922 q 415 958 349 958 q 566 947 490 958 q 656 918 643 937 q 689 890 665 905 q 718 865 713 875 q 731 848 719 864 q 748 820 743 831 q 754 798 754 808 q 761 761 754 787 q 768 720 768 736 q 766 684 768 701 q 763 659 764 667 q 757 637 761 650 q 753 621 753 624 q 747 594 751 612 q 740 567 743 576 q 732 546 737 557 q 721 529 727 535 q 706 514 713 523 q 696 499 699 505 q 688 482 693 493 q 681 468 682 471 q 572 336 630 380 q 484 258 515 294 q 408 188 467 238 q 322 123 348 138 q 348 120 332 123 q 372 117 363 117 q 392 119 378 117 q 415 121 406 121 q 447 119 424 121 q 485 118 469 118 q 528 121 503 118 q 571 123 553 123 q 579 123 574 123 q 586 122 584 122 q 657 136 624 122 q 700 162 677 144 q 740 192 724 179 q 762 204 756 204 q 772 200 768 204 q 777 189 777 195 q 759 151 777 178 q 726 103 742 123 q 690 28 708 81 q 642 -12 677 -12 q 591 -8 625 -12 q 541 -3 557 -3 q 496 -4 527 -4 q 449 -3 481 -4 q 400 -3 418 -3 q 326 0 388 -3 q 236 3 264 3 q 174 0 229 3 q 102 -3 119 -3 q 89 4 93 -3 q 84 17 85 10 q 83 37 83 24 q 95 57 83 46 q 125 81 106 67 q 153 103 144 95 q 186 135 159 109 q 240 184 214 161 q 293 229 267 208 q 400 330 350 275 q 438 378 415 347 q 473 419 462 409 q 489 439 481 427 q 500 459 496 451 q 511 485 504 467 q 519 507 517 503 q 536 542 526 522 q 550 570 547 562 q 568 660 562 601 q 575 743 575 720 q 570 777 575 764 q 566 789 569 778 q 562 804 563 800 q 556 818 560 808 q 550 833 553 828 q 542 846 547 839 q 532 859 538 854 q 521 867 527 863 q 419 893 467 893 z "},"3":{"ha":904,"x_min":83,"x_max":807,"o":"m 457 964 q 559 956 498 964 q 637 933 619 948 q 670 907 658 918 q 700 878 683 897 q 724 839 716 860 q 733 793 732 817 q 730 763 733 781 q 728 734 728 745 q 694 672 728 705 q 648 631 672 644 q 616 613 635 624 q 585 596 597 602 q 559 586 572 589 q 642 555 602 582 q 677 538 652 549 q 707 519 701 527 q 735 494 711 512 q 765 467 760 476 l 770 457 q 770 455 770 456 q 771 453 771 454 q 807 322 807 385 q 803 274 807 305 q 783 201 798 243 q 743 144 767 159 q 715 113 733 139 q 675 74 696 86 q 657 62 671 73 q 622 41 644 52 q 575 20 601 29 q 471 -7 545 10 q 338 -16 427 -16 q 264 -3 300 -16 q 221 11 227 10 q 195 21 210 13 q 170 36 180 28 q 145 55 159 44 q 129 66 132 65 q 97 103 111 81 q 83 150 83 126 q 93 178 83 168 q 128 202 106 191 q 172 214 151 214 q 204 182 197 214 q 227 114 218 128 q 275 75 255 78 q 313 63 290 73 q 355 53 336 53 q 460 68 411 53 q 495 86 475 73 q 524 111 515 100 q 571 170 562 153 q 593 243 593 218 q 600 268 596 256 q 606 287 604 279 q 608 309 608 294 q 609 334 608 319 q 610 354 610 349 q 595 428 610 406 q 579 455 587 437 q 568 476 572 473 q 557 490 566 478 q 538 510 549 501 q 514 519 527 518 q 492 523 503 521 q 468 525 481 525 q 412 502 449 525 q 355 479 376 479 q 319 502 341 479 q 297 541 297 524 q 316 564 297 551 q 343 576 336 576 q 356 582 346 576 q 381 595 366 587 q 410 610 397 604 q 492 659 454 629 q 528 712 513 675 q 543 779 543 748 q 541 798 543 788 q 538 822 538 808 q 526 843 538 826 q 510 863 515 860 q 495 878 505 866 q 473 896 486 889 q 440 903 460 903 q 383 895 409 903 q 346 880 357 888 q 321 861 335 873 q 304 847 307 849 q 271 815 289 837 q 244 775 254 794 q 230 739 235 761 q 221 710 225 717 q 215 697 219 706 q 209 685 212 689 q 202 675 207 681 q 192 668 198 670 q 176 665 185 665 q 151 688 151 665 q 151 710 151 696 q 150 730 150 724 q 154 775 150 750 q 159 811 156 787 q 164 851 161 834 q 174 880 168 868 q 196 906 182 897 q 239 928 209 916 q 457 964 333 964 z "},"4":{"ha":926,"x_min":56,"x_max":842,"o":"m 579 810 q 547 781 568 802 q 494 739 522 753 q 457 701 484 734 q 422 660 431 667 q 404 641 417 654 q 382 619 391 627 q 370 608 374 611 q 365 606 366 607 q 362 602 363 604 q 360 596 361 600 q 352 587 358 593 q 338 572 347 581 q 275 502 320 556 q 221 440 231 448 q 208 426 218 438 q 199 411 199 413 q 214 407 199 407 q 245 409 224 407 q 268 411 266 411 q 279 408 269 411 q 289 406 288 406 q 296 407 290 406 q 307 409 302 408 q 323 411 313 410 q 346 412 334 412 q 378 410 364 412 q 443 406 405 406 q 456 407 446 406 q 488 411 466 409 q 542 412 509 412 q 566 425 559 412 q 574 454 574 437 l 574 574 q 570 614 574 593 q 567 642 567 636 q 570 656 567 648 q 574 700 572 674 q 577 761 576 726 q 579 810 578 795 m 745 85 q 779 52 745 61 q 811 45 789 48 q 838 39 832 41 q 842 28 842 35 q 838 11 842 19 q 804 1 833 8 q 774 0 799 0 q 730 1 758 0 q 696 1 702 1 q 685 2 695 1 q 648 3 675 3 q 576 4 621 4 q 548 3 576 4 q 503 1 520 1 q 468 5 472 1 q 464 22 464 9 q 468 37 464 33 q 509 43 472 39 q 546 65 530 44 q 566 117 559 81 q 572 184 572 152 q 573 222 572 208 q 574 244 574 235 q 572 269 574 256 q 570 283 570 282 q 569 307 570 291 q 568 332 568 323 q 561 335 568 335 q 530 333 555 335 q 490 330 505 330 q 441 328 467 330 q 411 326 416 326 q 396 329 404 326 q 353 332 392 332 q 287 335 304 332 q 258 338 269 338 q 193 330 240 338 q 81 326 168 326 q 56 358 56 326 q 92 427 56 391 q 174 511 167 499 q 275 607 190 540 q 285 614 278 609 q 297 625 292 620 q 309 642 300 628 q 321 659 318 656 q 346 686 330 668 q 375 717 361 703 q 408 743 389 730 q 417 753 412 746 q 427 762 423 760 q 457 791 443 776 q 488 825 471 806 q 515 854 505 844 q 554 888 515 855 l 578 916 q 598 937 587 925 q 614 954 609 948 q 623 961 620 960 q 700 966 636 966 q 742 962 738 966 q 746 940 746 956 q 743 859 746 876 q 743 827 743 842 q 742 804 742 812 q 743 768 742 794 q 745 729 745 742 q 743 704 745 711 q 741 652 743 688 q 739 596 739 617 q 741 536 739 591 q 742 443 742 481 q 737 248 742 254 q 736 245 737 247 q 736 243 736 243 q 738 229 736 240 q 741 212 741 218 q 745 85 745 193 z "},"5":{"ha":890,"x_min":69,"x_max":793,"o":"m 571 808 q 512 810 535 808 q 483 815 490 812 q 470 820 476 818 q 458 822 464 822 q 433 817 453 822 q 390 810 413 812 q 372 810 385 810 q 350 811 359 811 q 267 808 305 808 q 248 786 248 808 q 238 717 248 751 q 228 681 228 682 q 224 647 224 663 q 221 625 224 642 q 218 600 218 608 q 229 585 220 585 q 246 591 235 585 q 268 607 257 598 q 282 618 279 616 q 376 660 334 648 q 479 672 421 672 q 525 665 500 672 q 553 659 537 661 q 581 652 568 656 q 657 614 610 640 q 711 575 705 588 q 733 542 722 559 q 753 513 745 524 q 777 468 766 494 q 789 427 789 441 q 791 390 789 422 q 793 336 793 357 q 786 278 793 295 q 753 174 768 199 q 728 140 743 157 q 702 113 713 123 q 675 88 692 102 q 656 71 659 74 q 628 52 645 61 q 593 35 611 43 q 571 24 576 26 q 546 16 564 18 q 507 12 528 13 q 482 9 486 10 q 457 2 473 8 q 425 -7 441 -3 q 353 -11 400 -11 q 312 -7 349 -11 q 268 -3 275 -3 q 207 10 225 3 q 157 37 188 18 q 122 58 134 51 q 96 77 111 66 q 75 99 81 88 q 69 122 69 110 q 95 178 69 139 q 142 216 121 216 q 161 209 151 216 q 174 193 171 202 q 191 166 176 186 q 208 134 205 147 q 212 123 209 128 q 221 111 216 117 q 231 101 227 105 q 242 91 235 97 q 250 85 250 85 q 298 63 267 71 q 354 54 329 54 q 416 62 387 54 q 458 79 446 69 q 486 104 468 89 q 513 127 505 119 q 552 178 528 138 q 583 237 576 218 q 591 319 591 271 q 596 346 591 330 q 600 380 600 362 q 579 486 600 452 q 568 505 576 490 q 549 532 559 519 q 528 550 538 544 q 464 585 491 577 q 393 595 409 595 q 345 582 375 595 q 313 568 314 568 q 237 511 284 561 q 212 487 219 492 q 193 482 205 482 q 127 518 159 482 q 113 555 113 540 q 119 598 113 575 q 126 633 126 622 q 133 670 126 644 q 139 697 139 695 q 158 833 139 748 q 162 850 158 834 q 165 871 165 865 q 175 921 165 909 q 186 937 180 926 q 195 949 193 947 q 205 954 198 951 q 225 957 213 957 q 246 952 229 957 q 268 946 264 947 q 302 943 284 943 q 343 945 317 943 q 375 946 369 946 q 475 951 458 946 q 536 956 495 956 q 563 955 551 956 q 575 954 574 954 q 650 969 614 954 q 693 983 686 983 q 704 966 704 983 q 696 933 704 952 q 681 890 689 918 q 666 841 673 861 q 652 817 659 821 q 571 808 641 808 z "},"6":{"ha":1026,"x_min":97,"x_max":929,"o":"m 309 575 q 369 620 335 597 q 411 644 402 644 q 458 659 425 646 q 511 672 492 672 q 556 674 532 672 q 589 676 581 676 q 682 668 648 676 q 711 663 694 665 q 742 656 728 661 q 797 625 765 648 q 836 589 828 603 q 861 555 846 574 q 886 522 877 536 q 913 476 901 504 q 925 435 925 449 q 927 397 925 431 q 929 343 929 364 q 922 283 929 300 q 910 237 918 273 q 892 189 903 201 q 785 81 850 140 q 746 48 777 74 q 707 17 716 23 q 619 -3 692 8 q 604 -8 611 -4 q 576 -16 596 -12 q 492 -20 551 -20 q 433 -14 487 -20 q 372 -5 380 -7 q 167 139 251 24 q 119 221 133 186 q 103 290 105 255 q 97 412 97 391 q 101 437 97 422 q 106 463 106 453 q 103 480 106 468 q 100 500 100 492 q 108 549 100 517 q 117 590 116 580 q 137 645 118 608 q 160 696 157 682 q 198 773 168 730 q 256 840 229 817 q 345 913 322 901 q 451 952 385 937 q 551 968 517 968 q 618 965 579 968 q 664 962 657 962 q 721 948 681 962 q 772 925 760 934 q 796 907 783 918 q 815 893 810 897 q 830 878 821 888 q 850 851 840 867 q 851 842 851 850 q 844 820 851 829 q 829 810 836 810 q 813 795 827 808 q 786 773 800 783 q 762 764 772 764 q 742 771 749 764 q 719 803 741 772 q 677 854 697 834 q 640 875 657 873 q 629 881 638 876 q 605 892 620 887 q 574 897 591 897 q 557 896 562 897 q 546 897 555 896 q 533 897 537 897 q 450 871 493 897 q 345 753 374 826 q 319 661 330 718 q 314 630 317 651 q 310 591 311 608 l 309 575 m 372 542 q 335 500 359 530 q 307 450 311 470 q 296 413 305 441 q 288 371 288 384 q 296 345 288 354 q 300 332 298 340 q 302 311 302 323 q 303 287 303 298 q 304 260 304 276 q 304 236 304 245 q 323 181 305 215 q 342 139 341 147 q 369 103 342 129 q 404 78 395 78 q 447 57 418 68 q 498 46 475 46 q 567 54 534 46 q 614 72 600 62 q 644 97 620 77 q 681 127 667 118 q 692 141 686 132 q 703 161 699 151 q 713 185 708 171 q 721 208 718 199 q 728 229 724 216 q 732 241 732 241 q 741 338 741 276 q 743 374 741 349 q 746 408 746 399 q 745 422 746 420 q 736 462 741 432 q 729 496 732 492 l 719 509 q 705 527 709 522 q 690 542 700 532 q 672 557 681 551 q 653 571 666 561 q 629 588 640 582 q 604 597 617 595 q 529 607 562 607 q 496 602 514 607 q 463 591 478 597 q 444 585 448 585 q 372 542 408 577 z "},"7":{"ha":782,"x_min":41,"x_max":741,"o":"m 407 243 q 395 227 404 235 q 385 207 386 218 q 343 97 382 190 q 331 65 338 84 q 321 38 325 47 q 312 20 317 29 q 299 6 307 10 q 282 3 292 3 q 230 0 273 3 q 167 -3 186 -3 l 142 -3 q 118 2 125 -3 q 111 22 111 7 q 131 70 111 35 q 170 129 151 104 q 180 143 178 138 q 183 150 182 147 q 193 169 184 153 q 221 212 203 184 q 276 313 251 257 q 310 378 301 368 q 325 391 315 383 q 337 403 334 399 q 346 415 341 407 q 353 435 350 423 q 375 479 358 452 q 400 524 391 506 q 478 653 417 557 q 583 815 574 803 q 576 816 583 815 q 559 817 570 817 q 536 819 549 818 q 509 820 524 819 q 481 821 494 821 q 444 819 460 821 q 416 817 427 817 q 385 818 408 817 q 345 819 361 819 q 301 817 323 819 q 268 814 279 814 q 236 816 251 814 q 216 818 221 818 q 165 802 199 818 q 119 767 139 787 q 89 739 98 746 q 81 733 87 738 q 72 726 75 728 q 64 722 69 724 q 56 720 60 720 q 46 724 50 720 q 41 734 41 728 q 50 757 41 745 q 71 796 60 771 q 86 825 81 821 q 115 890 98 837 q 138 936 123 917 q 165 956 153 956 q 217 951 177 956 q 279 946 258 947 q 319 947 288 947 q 373 949 337 947 q 416 951 408 951 q 479 949 429 951 q 558 946 530 946 q 595 947 559 946 q 652 947 631 947 q 684 946 682 947 q 706 944 690 943 q 731 942 722 944 q 741 930 741 939 q 721 870 741 913 q 681 799 701 826 q 656 754 665 777 q 639 720 648 731 q 597 653 612 682 q 545 564 559 573 q 533 548 538 560 q 518 513 527 536 q 503 475 510 490 q 480 435 496 461 q 454 385 465 408 q 439 342 443 362 q 421 284 433 315 q 407 243 410 253 z "},"8":{"ha":1014,"x_min":97,"x_max":917,"o":"m 703 547 q 752 523 704 546 q 811 489 800 500 q 838 469 817 484 q 873 441 859 455 q 890 411 888 427 q 905 368 894 395 q 917 326 917 341 q 907 253 917 300 q 886 182 898 206 q 879 167 884 177 q 872 153 874 157 q 866 141 870 149 q 860 130 862 134 q 853 122 857 126 q 846 115 850 118 q 816 88 845 115 q 750 40 787 61 q 705 17 720 22 q 660 7 691 12 q 624 -1 651 5 q 570 -12 597 -8 q 507 -16 543 -16 q 389 -6 452 -16 q 283 18 326 4 q 200 58 243 32 q 142 107 157 84 q 103 197 118 144 q 97 236 97 225 q 103 303 98 283 q 126 355 109 324 q 138 373 131 364 q 149 387 144 381 q 162 401 153 393 q 175 413 172 410 q 189 427 178 416 q 203 439 201 437 q 247 468 214 450 q 306 499 279 486 q 334 513 332 513 l 233 567 q 212 584 218 574 q 200 597 206 594 q 191 602 193 601 q 188 604 189 604 q 186 607 187 605 q 184 611 186 609 q 165 641 178 618 q 153 677 153 665 q 151 692 153 680 q 149 714 149 705 q 163 786 149 744 q 185 828 171 808 q 208 856 199 847 q 236 879 218 864 q 282 906 252 891 q 315 922 313 921 q 323 926 321 926 q 326 925 325 926 q 329 924 328 924 q 345 930 334 924 q 511 962 400 962 q 671 949 617 962 q 701 942 678 947 q 734 934 723 937 q 760 926 746 931 q 781 914 774 920 q 811 886 803 895 q 827 875 817 880 q 843 863 836 870 q 856 840 850 856 q 873 750 872 789 q 867 721 873 741 q 861 690 861 701 q 810 616 853 656 q 757 578 791 600 q 703 547 722 556 m 612 571 q 638 590 615 574 q 675 623 661 606 q 700 658 692 646 q 715 693 707 671 q 724 737 724 715 q 723 753 724 743 q 722 768 722 764 q 697 833 722 789 q 646 892 671 877 q 539 917 600 915 q 440 907 477 917 q 387 882 415 901 q 349 847 359 864 q 322 779 322 807 q 350 696 322 745 q 369 674 357 683 q 400 654 380 665 q 425 640 419 644 q 496 604 471 608 q 520 596 498 604 q 554 589 541 589 q 612 571 580 587 m 440 489 q 346 433 370 457 q 290 340 290 375 q 287 302 290 326 q 283 257 283 279 q 304 147 283 184 q 350 87 318 126 q 381 64 360 76 q 415 53 401 53 q 510 35 450 35 q 633 61 590 35 q 659 75 642 66 q 687 91 677 84 q 700 107 696 98 q 719 129 703 113 q 741 161 736 144 q 750 244 750 204 q 736 304 750 269 q 707 357 722 338 q 606 424 677 387 l 602 427 q 579 439 593 431 q 554 452 564 447 q 532 461 543 458 q 475 479 506 470 q 440 489 444 488 z "},"9":{"ha":1026,"x_min":97,"x_max":929,"o":"m 718 374 q 658 329 692 352 q 615 304 624 305 q 568 290 602 303 q 515 277 534 277 q 471 274 495 277 q 437 272 446 272 q 345 281 381 272 q 316 286 333 283 q 285 293 298 288 q 230 323 261 301 q 191 359 199 345 q 165 393 181 374 q 140 427 150 412 q 114 472 126 445 q 102 514 102 500 q 99 551 102 518 q 97 606 97 585 q 104 665 97 647 q 116 712 109 676 q 135 760 124 747 q 241 868 178 812 q 280 900 250 875 q 319 932 310 926 q 407 951 334 941 q 423 957 415 953 q 450 964 431 960 q 534 968 475 968 q 593 962 540 968 q 654 954 647 956 q 860 810 776 924 q 908 728 894 762 q 924 659 922 694 q 929 536 929 569 q 925 511 929 528 q 921 486 921 495 q 924 471 921 481 q 926 449 926 457 q 918 399 926 431 q 909 358 910 368 q 889 304 908 340 q 867 253 870 267 q 831 180 861 226 q 771 109 801 134 q 682 36 705 48 q 575 -4 642 12 q 475 -20 509 -20 q 408 -17 447 -20 q 363 -14 370 -14 q 306 1 346 -13 q 254 24 267 15 q 231 41 244 32 q 211 56 217 51 q 196 71 205 60 q 176 97 186 81 q 175 107 175 98 q 183 129 175 119 q 197 139 191 139 q 214 153 200 141 q 241 175 227 165 q 264 184 254 184 q 285 178 278 184 q 308 145 286 176 q 349 95 330 115 q 386 74 369 75 q 397 67 388 73 q 421 57 407 62 q 453 52 436 52 q 469 53 464 52 q 480 52 472 53 q 493 52 488 52 q 576 78 534 52 q 682 196 652 123 q 707 288 696 228 q 712 319 709 298 q 717 357 715 340 l 718 374 m 654 407 q 692 449 668 419 q 720 498 715 479 q 730 536 722 507 q 739 578 739 565 q 730 604 739 593 q 725 626 726 610 q 723 674 723 642 q 722 713 722 706 q 704 768 722 734 q 685 810 686 802 q 658 845 684 820 q 623 871 632 871 q 580 891 608 880 q 528 903 551 903 q 459 895 492 903 q 412 876 427 886 q 382 850 406 871 q 346 821 359 830 q 336 810 341 817 q 326 793 331 803 q 317 774 321 783 q 309 753 313 765 q 303 734 305 741 q 297 717 300 727 q 294 707 294 707 q 286 611 286 675 q 283 581 286 601 q 281 549 281 560 q 282 526 281 533 q 287 502 284 519 q 292 470 290 484 q 297 453 295 456 l 307 440 q 321 422 317 427 q 336 407 326 416 q 354 392 345 397 q 373 377 360 388 q 398 360 387 367 q 422 351 410 354 q 497 342 465 342 q 530 347 512 342 q 563 357 548 351 q 582 364 578 363 q 654 407 619 372 z "},"\u0000":{"ha":0,"x_min":0,"x_max":0,"o":""},"\r":{"ha":416,"x_min":0,"x_max":0,"o":""}," ":{"ha":416,"x_min":0,"x_max":0,"o":""},"!":{"ha":309,"x_min":69,"x_max":249,"o":"m 83 930 q 85 943 83 936 q 86 951 86 949 q 85 959 86 954 q 83 979 83 964 q 103 1012 86 998 q 135 1029 119 1025 q 167 1031 140 1031 q 216 1024 193 1031 q 240 999 240 1017 q 236 917 240 934 q 232 867 233 903 q 228 818 231 831 q 224 799 224 802 q 227 772 224 791 q 229 743 229 754 q 228 720 229 734 q 227 697 227 705 l 227 604 q 220 482 220 574 q 227 399 220 422 q 232 339 232 366 q 231 312 232 330 q 231 283 231 294 q 157 231 231 242 q 112 238 135 231 q 87 261 90 246 q 94 353 87 329 q 97 382 97 362 q 96 404 97 390 q 96 424 96 418 q 94 446 96 439 q 90 481 90 458 l 90 513 q 94 557 90 522 q 97 615 97 593 q 94 697 97 673 q 92 741 92 728 q 92 769 92 751 q 93 794 93 787 q 92 814 93 808 q 87 827 87 826 q 90 835 87 828 q 93 852 93 842 q 88 895 93 867 q 83 930 83 922 m 134 158 q 137 159 134 158 q 142 160 140 160 q 186 165 163 165 q 228 154 216 165 q 249 89 249 128 q 236 29 249 54 q 219 16 232 23 q 194 5 206 9 q 165 -4 182 1 q 146 -11 149 -9 q 139 -12 143 -12 q 103 -1 122 -12 q 77 25 85 9 q 69 68 69 47 q 83 117 69 102 q 100 135 92 125 q 113 148 109 144 q 121 154 116 151 q 134 158 126 157 z "},"\"":{"ha":440,"x_min":39,"x_max":387,"o":"m 89 1047 q 113 1049 97 1047 q 135 1051 128 1051 q 151 1050 146 1051 q 186 994 178 1033 q 187 961 187 983 q 182 910 187 936 q 178 880 178 884 q 173 856 178 869 q 164 822 168 843 q 153 769 159 790 q 147 742 147 749 q 139 714 146 726 q 118 701 132 701 q 104 705 110 701 q 95 711 98 708 q 89 723 93 715 q 83 733 85 730 q 76 750 79 738 q 73 778 74 763 q 72 798 73 793 q 67 816 71 803 q 62 833 63 829 q 54 905 57 861 q 49 919 51 909 q 47 939 47 928 q 46 951 46 949 q 42 964 46 952 q 39 986 39 976 q 41 1006 39 1000 q 89 1047 59 1047 m 289 1047 q 313 1049 297 1047 q 335 1051 328 1051 q 351 1050 346 1051 q 386 994 378 1033 q 387 961 387 983 q 382 910 387 936 q 378 880 378 884 q 373 856 378 869 q 364 822 368 843 q 353 769 359 790 q 347 742 347 749 q 339 714 346 726 q 318 701 332 701 q 304 705 310 701 q 295 711 298 708 q 289 723 293 715 q 283 733 285 730 q 276 750 279 738 q 273 778 274 763 q 272 798 273 793 q 267 816 271 803 q 262 833 263 829 q 254 905 257 861 q 249 919 251 909 q 246 939 247 928 q 245 951 245 950 q 243 960 245 954 q 240 972 241 965 q 239 986 239 979 q 241 1006 239 1000 q 289 1047 259 1047 z "},"#":{"ha":924,"x_min":37,"x_max":872,"o":"m 400 134 q 416 193 407 146 q 429 248 426 240 q 444 302 437 268 q 457 326 446 316 q 469 343 468 336 q 438 345 458 343 q 412 347 418 347 l 302 347 q 298 332 301 342 q 293 317 295 322 q 289 305 291 312 q 283 294 286 298 q 278 289 281 290 q 268 268 268 281 q 269 258 268 266 q 269 244 269 250 q 260 173 269 224 q 245 118 250 123 q 238 109 245 117 q 225 93 232 100 q 205 80 219 86 q 174 74 191 74 q 128 89 144 76 q 113 118 113 102 q 117 134 113 127 q 133 193 123 146 q 146 248 142 240 q 161 302 155 271 q 175 328 164 317 q 187 350 186 338 q 139 342 147 342 q 103 347 134 342 q 50 366 63 350 q 41 388 45 372 q 37 414 37 404 q 53 443 37 429 q 87 453 69 453 q 117 450 97 453 q 143 447 136 448 q 211 452 172 447 q 220 492 214 464 q 229 532 226 520 l 250 632 q 259 665 252 642 q 268 700 266 688 q 258 701 267 701 q 203 693 234 701 q 189 692 197 692 q 153 697 184 692 q 100 715 113 700 q 91 738 95 722 q 87 764 87 753 q 103 793 87 779 q 138 803 119 803 q 167 801 147 803 q 193 798 187 798 q 225 799 208 798 q 262 801 243 800 q 289 803 281 802 q 297 819 291 808 q 304 835 304 831 q 306 848 306 838 q 310 916 306 902 q 321 978 319 958 q 343 1042 321 1034 l 347 1042 q 355 1043 352 1043 q 405 1038 375 1043 q 443 1028 434 1034 q 451 1020 445 1026 q 462 1008 457 1015 q 469 994 467 1002 q 468 970 469 978 q 464 954 467 966 q 459 935 461 941 q 455 919 458 928 q 447 901 452 909 q 437 885 443 892 q 429 860 429 873 q 430 849 429 857 q 431 836 431 841 q 429 818 431 830 q 427 799 427 805 q 482 800 449 800 q 535 800 515 800 q 562 802 555 800 q 568 802 564 802 q 572 803 571 803 q 587 835 587 831 q 589 848 589 838 l 589 872 q 593 916 589 902 q 604 978 603 965 q 627 1042 604 1034 l 631 1042 q 639 1043 635 1043 q 688 1038 659 1043 q 726 1028 718 1034 q 734 1020 728 1026 q 745 1008 741 1015 q 753 994 750 1002 q 751 970 753 978 q 747 954 750 966 q 743 935 745 941 q 738 919 741 928 q 731 901 735 909 q 721 885 726 892 q 713 860 713 873 q 713 849 713 857 q 714 836 714 841 q 711 814 714 830 l 711 806 q 770 807 731 807 q 796 805 781 807 q 812 803 810 803 q 856 782 840 803 q 872 732 872 761 q 849 711 870 719 q 804 703 829 703 q 775 702 795 703 q 727 700 755 701 q 681 699 699 699 q 678 674 680 694 q 673 644 676 655 q 664 624 670 632 q 643 551 656 612 q 618 475 631 491 q 606 452 610 466 q 720 457 706 457 q 746 455 731 457 q 762 453 760 453 q 806 432 790 453 q 822 382 822 411 q 799 361 820 369 q 754 353 779 353 q 672 350 741 353 q 586 347 604 347 q 561 289 568 293 q 551 268 551 281 q 552 258 551 266 q 553 244 553 250 q 543 173 553 224 q 529 118 534 123 q 522 109 528 117 q 509 93 515 100 q 489 80 503 86 q 458 74 475 74 q 411 88 426 76 q 396 118 396 100 q 400 134 396 127 m 335 475 q 322 449 327 465 q 493 450 481 449 q 503 491 496 463 q 513 532 509 520 l 533 632 q 543 667 535 644 q 551 694 550 690 q 528 693 545 693 q 492 695 515 693 q 463 697 469 697 l 397 697 q 395 673 397 692 q 390 643 393 654 q 380 624 387 632 q 360 551 372 612 q 335 475 348 491 z "},"$":{"ha":798,"x_min":81,"x_max":733,"o":"m 368 -24 q 370 29 368 9 l 301 35 q 263 41 283 37 q 233 48 244 45 q 201 57 222 51 q 174 65 180 63 q 109 95 127 81 q 89 135 90 110 q 93 283 92 275 q 92 304 93 290 q 92 325 92 319 q 114 357 92 357 q 132 346 129 357 q 172 248 156 279 q 194 212 181 227 q 224 182 206 197 q 248 163 242 168 q 256 153 249 161 q 265 142 262 144 q 274 132 267 139 q 284 122 280 125 q 294 115 288 119 q 306 109 300 111 q 318 106 312 106 q 348 99 328 106 q 378 92 369 93 q 372 118 376 100 q 367 143 367 136 q 371 261 367 213 q 365 271 371 263 q 358 283 358 279 q 357 317 358 293 q 357 351 357 342 q 358 397 357 387 q 361 412 358 404 q 309 438 339 420 q 258 460 279 457 q 174 499 228 465 q 109 553 121 533 q 81 668 81 602 q 85 708 81 688 q 98 743 90 727 q 113 769 106 760 q 128 792 119 779 l 138 804 q 241 876 164 842 q 361 901 330 899 q 362 903 361 902 q 363 904 363 903 q 360 921 363 905 q 358 939 358 937 q 365 954 359 948 q 376 961 370 960 q 391 964 382 962 q 406 966 401 965 q 419 968 408 968 q 463 960 442 968 q 484 935 484 952 q 484 921 484 927 q 483 911 484 915 q 483 904 483 907 q 483 900 483 901 q 483 897 483 898 q 482 895 482 896 l 482 895 q 520 882 492 892 q 567 871 547 871 q 591 877 570 871 q 619 884 613 884 q 636 875 630 884 q 646 839 642 866 q 652 798 648 818 q 657 772 656 779 q 667 725 658 760 q 676 676 676 690 q 659 660 676 660 q 645 664 650 660 q 637 670 639 668 q 630 683 635 672 q 625 694 626 694 q 608 722 620 703 q 591 749 596 741 q 550 793 577 774 q 527 809 545 796 q 494 830 509 821 q 472 839 479 838 q 468 814 468 831 q 471 788 468 806 q 475 760 475 770 q 472 744 475 755 q 469 711 469 733 q 470 689 469 703 q 471 668 471 675 q 470 662 471 667 q 469 653 469 656 q 465 579 465 616 l 465 574 q 482 568 473 571 q 502 561 491 565 q 518 554 512 556 q 550 541 533 549 q 593 516 567 532 q 624 497 618 500 q 704 420 674 473 q 733 313 733 367 q 732 278 733 295 q 729 250 730 262 q 725 227 728 239 q 721 209 722 215 q 716 195 719 203 q 713 184 713 186 q 700 158 707 170 q 681 135 692 146 q 666 120 670 124 q 645 103 661 116 q 627 89 629 91 q 584 65 614 77 q 542 54 553 54 q 519 56 532 56 q 494 46 503 56 q 484 37 490 41 q 485 21 484 34 q 486 1 486 9 q 462 -38 486 -26 q 407 -52 437 -50 q 379 -44 389 -52 q 368 -24 368 -36 m 476 90 q 509 96 507 94 q 536 113 517 103 q 564 135 555 123 q 576 155 568 142 q 588 177 584 169 q 596 198 593 185 q 600 224 600 211 q 568 298 600 269 q 482 351 536 327 q 469 359 479 355 q 476 297 472 312 q 479 236 479 271 l 479 191 q 472 159 478 170 q 467 143 467 148 q 476 90 467 130 m 368 857 q 288 825 336 851 q 259 796 269 812 q 248 750 250 779 q 244 726 244 730 q 250 700 244 716 q 271 674 256 690 q 300 650 286 658 l 366 611 q 368 665 368 648 q 366 710 368 686 q 361 754 361 740 q 365 805 361 772 q 368 857 368 838 z "},"%":{"ha":1033,"x_min":53,"x_max":981,"o":"m 142 890 q 272 926 170 921 q 312 922 289 926 q 346 913 336 918 q 362 908 347 913 q 387 900 378 903 q 408 891 396 897 q 424 878 419 884 q 440 860 430 869 q 458 843 451 850 q 465 832 465 836 q 469 819 466 830 q 474 795 471 808 q 476 775 476 783 q 478 764 476 771 q 481 753 481 756 q 478 742 481 750 q 475 729 475 734 q 473 718 475 725 q 472 708 472 711 q 457 689 472 702 q 443 668 443 677 q 437 658 443 664 q 421 644 431 652 q 407 632 411 636 q 374 614 396 622 q 349 602 353 606 q 337 596 346 599 q 311 590 328 593 q 286 585 295 587 q 274 583 283 585 q 254 582 264 582 q 192 589 231 582 q 146 602 153 595 q 122 618 141 606 q 102 635 103 630 q 91 649 101 637 q 72 674 81 661 q 62 694 62 687 q 58 724 62 703 q 53 753 53 745 q 56 769 53 756 q 58 790 58 783 q 67 812 58 798 q 78 829 77 827 q 109 865 84 848 q 142 890 134 882 m 224 871 q 197 827 210 859 q 191 812 196 823 q 184 797 186 802 q 180 782 182 791 q 178 764 178 772 l 180 753 q 186 715 184 739 q 192 681 189 690 q 212 648 197 663 q 244 628 227 632 q 268 627 251 627 q 319 642 307 627 q 359 753 359 673 q 349 807 359 787 q 336 836 340 827 q 324 856 332 845 q 307 872 316 867 q 260 882 290 882 q 248 880 254 882 q 233 874 241 878 q 224 871 226 871 m 596 823 q 616 876 608 848 q 622 896 620 889 q 629 912 625 903 q 641 926 634 922 q 659 930 648 930 q 709 927 677 930 q 746 918 741 923 q 751 911 747 916 q 758 902 755 907 q 761 890 761 897 q 755 869 761 886 q 750 858 754 866 q 745 846 747 849 q 740 836 743 842 q 735 826 737 829 q 730 817 733 822 q 723 808 726 812 q 715 799 720 804 q 704 782 707 789 q 697 763 701 775 q 690 739 694 751 q 682 714 688 732 q 670 685 675 696 q 656 663 664 673 q 637 622 648 653 q 616 581 627 591 q 586 520 608 570 q 551 457 565 471 q 532 417 538 444 q 519 379 526 389 q 503 351 513 370 q 485 319 493 332 q 471 301 477 305 q 464 296 467 299 q 460 289 462 294 q 459 283 459 285 q 458 275 458 282 q 457 268 457 269 q 450 242 456 256 q 439 224 444 228 q 424 189 434 220 q 408 136 413 157 q 391 97 406 125 q 374 52 376 68 q 333 7 371 31 q 272 -18 296 -16 q 236 -7 252 -18 q 220 11 220 4 q 230 46 220 17 q 248 83 241 76 q 267 113 256 93 q 283 150 279 134 q 311 216 298 195 q 327 242 317 224 q 339 267 336 261 q 363 314 350 282 q 379 334 367 326 q 393 351 391 342 q 399 372 395 357 q 406 396 402 386 q 415 412 410 406 q 423 423 418 416 q 435 447 427 431 q 449 479 442 464 q 469 527 455 494 q 494 587 483 561 q 517 631 507 609 q 538 681 527 652 q 554 721 549 710 q 566 740 555 726 q 578 757 576 754 q 584 784 579 759 q 596 823 589 808 m 642 335 q 772 371 669 366 q 812 367 789 371 q 846 357 836 362 q 863 352 848 356 q 887 345 878 348 q 907 335 896 342 q 924 322 919 329 q 940 304 930 314 q 958 288 951 294 q 965 277 964 281 q 969 263 966 275 q 974 240 972 252 q 977 220 977 228 q 979 208 977 216 q 981 197 981 201 q 978 186 981 194 q 975 174 975 179 q 974 163 975 170 q 972 153 972 156 q 958 134 972 146 q 943 113 943 121 q 937 102 943 109 q 921 89 931 96 q 907 77 911 81 q 874 58 896 66 q 848 46 852 50 q 837 41 846 43 q 811 35 827 38 q 786 29 795 31 q 773 28 783 29 q 754 26 764 26 q 691 33 730 26 q 646 46 652 40 q 622 63 641 51 q 602 79 603 75 q 591 93 601 81 q 571 118 581 105 q 562 139 562 132 q 557 168 562 146 q 553 197 553 190 q 555 214 553 201 q 558 235 558 227 q 567 256 558 242 q 578 273 576 271 q 609 309 584 292 q 642 335 634 327 m 724 315 q 697 271 710 304 q 691 257 695 267 q 684 241 686 247 q 680 226 682 235 q 677 208 677 217 q 679 203 677 207 q 681 197 680 200 q 687 159 685 184 q 692 125 688 134 q 712 92 697 108 q 745 72 727 76 q 768 71 751 71 q 819 86 806 71 q 860 197 860 118 q 848 252 860 231 q 836 280 840 271 q 824 301 831 290 q 807 317 816 312 q 760 326 790 326 q 747 324 754 326 q 733 319 741 322 q 724 315 726 316 z "},"&":{"ha":1066,"x_min":61,"x_max":1014,"o":"m 252 578 q 223 616 242 589 q 199 657 204 644 q 193 671 197 661 q 186 687 189 682 q 180 699 184 692 q 171 710 176 706 q 148 748 160 719 q 136 802 136 778 q 136 817 136 807 q 136 831 136 827 q 137 844 136 836 q 138 859 137 852 q 142 875 140 865 q 149 895 144 884 q 161 921 154 909 q 172 938 168 933 q 185 951 176 943 q 196 961 195 960 q 209 980 203 968 q 221 997 216 993 q 261 1023 245 1014 q 310 1041 277 1031 q 382 1050 343 1050 q 550 1011 486 1050 q 582 973 564 1002 q 600 911 600 943 q 574 796 600 850 q 550 762 568 784 q 525 726 533 739 q 485 687 514 709 q 447 654 456 665 q 434 640 444 651 q 419 622 424 629 q 416 614 414 616 q 461 549 447 578 q 479 520 465 541 q 503 481 493 500 q 520 443 513 462 q 533 414 528 425 q 556 380 542 397 q 575 357 571 362 q 592 329 583 348 q 608 304 602 310 q 618 293 612 301 q 629 278 624 286 q 643 255 633 270 q 659 231 652 240 q 666 218 661 227 q 675 201 671 210 q 684 186 680 193 q 701 229 686 191 q 730 339 730 294 q 730 345 730 341 q 729 350 729 349 q 727 388 728 358 q 721 431 726 418 q 713 481 713 451 q 709 492 713 487 q 695 500 705 497 q 680 505 685 504 q 661 509 675 507 q 647 511 648 511 q 632 524 634 513 q 642 547 630 536 q 654 561 645 551 q 669 575 664 571 q 681 585 673 580 q 696 591 689 590 q 730 599 721 597 q 754 600 744 602 q 821 591 798 593 q 851 589 833 591 q 879 587 869 587 q 921 591 887 586 q 962 602 948 593 q 1003 616 979 614 q 1007 616 1005 616 q 1010 615 1009 615 q 950 543 1014 588 q 884 517 912 519 q 876 516 882 516 q 867 515 869 516 q 839 516 857 515 q 817 517 821 517 q 811 514 811 517 q 811 497 811 513 q 815 468 812 480 q 822 396 822 441 q 810 313 822 343 q 798 279 804 299 q 787 249 791 258 q 773 223 782 240 q 760 199 765 207 q 714 139 737 163 q 732 122 725 125 q 754 106 739 117 q 782 88 768 96 q 808 78 795 81 q 825 77 814 77 q 865 87 845 77 q 899 97 886 97 q 907 83 907 97 q 891 56 907 75 q 859 28 876 37 q 830 10 846 22 q 803 -5 814 -1 q 779 -15 787 -14 q 745 -17 770 -17 q 710 -8 727 -17 q 682 8 692 0 q 654 33 672 16 q 631 62 643 43 q 546 15 591 33 q 493 -9 501 -4 q 358 -25 469 -25 q 249 -8 302 -25 q 167 41 196 8 q 143 65 161 48 q 117 94 126 82 q 102 122 108 106 q 92 141 97 132 q 84 155 86 151 q 79 168 82 159 q 74 191 77 176 q 70 204 73 195 q 66 217 68 213 q 64 229 65 222 q 62 244 62 237 q 61 261 61 252 q 65 294 61 274 q 71 326 69 315 q 85 385 73 356 q 109 421 97 414 q 117 428 113 424 q 123 436 121 433 q 130 448 125 439 q 136 461 134 456 q 204 534 151 488 q 221 550 214 544 q 229 559 227 557 q 236 566 231 562 q 252 578 241 570 m 578 126 q 568 133 574 128 q 559 142 563 138 q 550 155 555 147 q 541 168 544 163 q 533 181 538 172 q 526 192 528 190 q 504 225 522 200 q 481 262 487 250 q 446 317 469 284 q 412 355 422 350 q 399 369 405 359 q 389 392 393 379 q 380 410 384 404 q 368 426 378 413 q 340 464 357 439 q 304 522 323 488 q 274 485 284 500 q 260 454 264 469 q 252 435 255 440 q 242 399 246 421 q 233 368 237 376 q 225 289 225 348 q 225 281 225 288 q 225 272 225 274 q 225 263 225 270 q 226 254 226 257 q 227 245 227 251 q 229 235 228 239 q 231 226 230 231 q 235 217 233 220 q 239 209 237 213 q 245 200 242 204 q 266 165 257 186 q 281 138 275 143 q 301 113 283 135 q 332 78 318 90 q 429 39 376 39 q 473 41 456 39 q 496 46 490 43 q 517 56 502 48 q 591 94 573 81 q 584 113 587 101 q 578 126 581 124 m 371 673 q 422 732 406 712 q 453 796 433 745 q 463 825 461 818 q 464 861 464 831 q 447 975 464 953 q 390 1008 422 1008 q 352 1000 374 1008 q 321 978 330 991 q 306 954 315 970 q 290 930 296 937 q 277 864 277 917 q 310 765 277 819 q 327 734 319 750 q 340 710 336 718 q 353 693 345 703 q 366 679 361 684 l 371 673 z "},"'":{"ha":233,"x_min":39,"x_max":187,"o":"m 89 1040 q 113 1042 97 1040 q 135 1044 128 1044 q 151 1043 146 1044 q 186 987 178 1026 q 187 954 187 977 q 182 903 187 929 q 178 873 178 877 q 176 851 178 863 q 171 821 174 840 q 164 787 167 802 q 153 735 159 756 q 147 707 147 713 q 139 679 146 691 q 118 667 132 667 q 104 670 110 667 q 95 677 98 673 q 89 688 93 680 q 83 699 85 696 q 76 716 79 703 q 73 743 74 728 q 72 762 73 758 q 67 781 71 768 q 62 799 63 794 q 54 899 60 812 q 49 912 51 903 q 47 932 47 922 q 46 945 46 943 q 42 957 46 945 q 39 979 39 969 q 41 999 39 994 q 89 1040 59 1040 z "},"(":{"ha":458,"x_min":43,"x_max":432,"o":"m 168 64 q 161 78 168 64 q 142 103 153 91 q 120 134 130 115 q 104 164 109 152 q 90 202 99 176 q 78 236 81 229 q 70 259 73 248 q 64 287 67 270 q 61 310 62 304 q 57 339 60 315 q 54 366 54 363 q 48 397 54 376 q 43 429 43 418 q 46 503 46 466 q 45 553 46 519 q 45 604 45 587 q 54 691 45 645 q 73 770 63 738 q 102 854 83 803 q 113 872 103 857 q 126 893 122 887 q 138 911 130 899 q 154 931 146 923 q 170 947 161 940 q 197 985 184 958 q 220 1022 211 1013 q 247 1050 231 1031 q 273 1078 264 1069 q 294 1096 278 1082 q 318 1115 310 1109 q 338 1127 326 1121 q 363 1133 351 1133 q 407 1112 382 1133 q 432 1079 432 1090 q 422 1062 432 1073 q 406 1047 412 1051 q 371 1018 389 1036 q 340 990 353 1000 q 302 957 318 977 q 268 903 287 937 q 243 857 262 890 q 215 803 224 823 q 183 710 187 743 q 178 676 182 699 q 172 642 173 654 q 175 597 172 625 q 172 568 174 587 q 170 538 171 548 q 174 494 174 497 q 171 406 171 431 q 196 297 174 361 q 207 245 200 286 q 225 187 214 205 q 240 162 226 186 q 261 126 254 139 q 284 94 269 114 q 313 60 299 74 q 322 50 316 56 q 331 40 329 43 q 339 33 334 37 q 347 25 344 28 q 355 18 350 22 q 366 11 360 14 q 378 3 371 7 q 394 -12 385 -1 q 404 -29 404 -23 q 379 -62 404 -41 q 335 -83 355 -83 q 192 28 293 -83 q 168 64 182 38 z "},")":{"ha":458,"x_min":40,"x_max":429,"o":"m 353 134 q 347 125 353 134 q 330 103 342 115 q 304 64 319 91 q 281 28 290 38 q 138 -83 180 -83 q 93 -62 118 -83 q 68 -29 68 -41 q 78 -12 68 -23 q 94 3 87 -1 q 105 10 100 6 q 114 16 111 14 q 123 23 118 18 q 130 28 127 27 q 137 35 132 30 q 143 42 142 41 q 151 51 144 43 q 160 60 158 58 q 189 94 174 74 q 211 126 203 114 q 233 162 219 139 q 248 187 247 186 q 266 245 259 205 q 277 297 273 286 q 301 406 298 359 q 298 494 301 431 q 302 538 298 497 q 300 567 301 547 q 297 597 298 587 q 300 642 300 625 q 294 676 299 654 q 289 710 290 699 q 257 803 285 743 q 229 857 248 823 q 204 903 210 890 q 183 939 191 926 q 161 966 175 951 q 132 990 148 981 q 101 1018 119 1000 q 66 1047 83 1036 q 50 1062 60 1051 q 40 1079 40 1073 q 65 1112 40 1090 q 110 1133 90 1133 q 134 1127 121 1133 q 154 1115 146 1121 q 178 1096 162 1109 q 199 1078 193 1082 q 225 1050 208 1069 q 253 1022 242 1031 q 275 985 262 1013 q 302 947 288 958 q 371 854 326 926 q 399 770 389 803 q 419 691 410 738 q 428 604 428 645 q 427 553 428 587 q 427 503 427 519 q 429 429 427 458 q 424 397 429 418 q 418 366 418 376 q 415 339 417 358 q 412 310 413 319 q 408 286 410 301 q 402 259 406 271 q 395 236 399 248 q 383 203 393 231 q 368 164 373 175 q 353 134 363 153 z "},"*":{"ha":581,"x_min":39,"x_max":529,"o":"m 256 833 q 255 856 256 836 q 252 895 254 876 q 245 925 250 913 q 237 953 244 932 q 231 981 231 973 q 246 1017 231 995 q 277 1040 262 1038 q 297 1042 282 1042 q 340 1022 331 1042 q 349 991 349 1009 q 347 972 349 979 l 323 856 q 370 888 354 872 q 382 898 372 890 q 400 913 393 907 q 416 929 408 920 q 428 945 425 939 q 475 962 449 962 q 498 953 489 962 q 524 897 524 928 q 500 862 523 882 q 464 842 478 843 q 350 790 438 836 q 352 788 349 789 q 360 785 355 787 q 371 781 365 783 q 384 776 377 779 q 396 770 391 773 q 414 758 401 763 q 451 746 427 752 q 481 737 475 739 q 522 713 498 733 q 529 669 529 706 q 517 636 529 648 q 472 623 497 623 q 439 625 463 623 q 412 650 433 629 q 386 675 392 671 q 357 691 382 678 q 330 707 331 704 q 340 632 330 666 q 350 590 342 618 q 359 555 359 562 q 341 516 359 531 q 298 501 323 501 q 257 516 275 501 q 239 555 239 530 q 240 566 239 559 q 241 574 241 572 q 245 633 245 631 q 249 708 249 657 q 236 718 242 718 q 214 703 231 718 q 187 681 205 692 q 164 660 169 669 q 143 636 158 650 q 125 616 127 621 q 100 607 120 607 q 64 623 79 607 q 53 639 60 629 q 42 658 46 650 q 39 673 39 666 q 43 684 39 680 q 71 706 51 696 q 107 721 92 717 q 161 747 136 729 q 180 757 169 750 q 197 769 191 764 l 204 774 q 188 788 204 777 q 157 804 172 800 q 114 820 143 806 q 82 833 85 833 q 54 839 69 833 q 39 848 39 844 q 45 900 39 875 q 64 935 52 925 q 80 947 70 941 q 98 953 91 953 q 132 936 121 953 q 172 892 147 916 q 201 863 197 868 q 222 845 209 852 q 245 836 236 838 l 256 833 z "},"+":{"ha":765,"x_min":50,"x_max":713,"o":"m 311 475 q 310 484 311 476 q 307 509 309 491 q 302 546 305 526 q 301 566 301 553 q 304 598 301 579 q 307 625 307 618 q 306 639 307 635 q 296 705 296 684 q 294 716 296 708 q 292 729 292 724 q 293 736 292 734 q 302 749 298 744 q 315 759 307 755 q 327 764 322 762 q 343 769 331 766 q 359 774 355 772 q 387 778 384 778 q 437 742 437 778 q 433 689 437 724 q 428 637 428 654 q 429 597 428 625 q 429 557 429 568 q 428 537 429 549 q 427 519 427 525 q 437 478 427 491 q 458 473 445 473 q 483 474 462 473 q 529 475 504 475 q 565 480 541 476 q 612 486 589 485 q 633 490 618 486 q 656 494 647 494 q 682 488 667 494 q 703 475 698 482 q 713 395 713 458 q 696 366 713 388 q 673 357 692 357 q 657 357 669 357 q 636 358 645 358 q 612 357 621 358 q 590 355 604 355 q 557 360 576 355 q 525 364 537 364 q 471 359 505 364 q 429 354 437 355 q 432 284 431 338 q 437 215 433 230 q 450 138 450 170 q 376 94 450 111 q 364 92 372 92 q 329 108 345 92 q 313 139 313 124 q 313 147 313 142 q 314 154 314 152 q 312 188 314 162 q 310 231 310 214 q 311 259 310 240 q 311 288 311 278 q 302 364 311 321 q 188 365 233 364 q 142 366 142 366 q 96 364 127 366 q 52 389 55 364 q 50 432 50 395 q 66 475 50 469 q 131 488 101 488 q 153 486 144 488 q 205 478 170 482 q 248 472 241 475 q 256 471 250 472 q 264 471 261 471 q 286 471 274 471 q 304 473 297 472 q 311 475 312 474 z "},",":{"ha":298,"x_min":46,"x_max":236,"o":"m 69 -160 q 46 -134 46 -159 q 46 -117 46 -122 q 51 -104 47 -111 q 64 -92 55 -96 q 96 -40 85 -77 q 103 -8 103 -21 q 98 5 103 -1 q 84 22 94 12 q 69 40 75 32 q 60 98 60 53 q 66 120 60 110 q 82 142 72 130 q 94 158 92 153 q 116 170 100 164 q 147 175 133 175 q 166 173 156 175 q 185 168 176 171 q 196 165 195 165 q 221 139 212 161 q 231 98 231 117 q 236 47 236 80 q 231 22 236 31 q 228 9 229 17 q 227 -4 227 1 q 223 -17 226 -9 q 216 -33 220 -24 q 207 -45 214 -37 q 192 -62 199 -53 q 180 -81 185 -71 q 170 -101 178 -90 q 153 -114 162 -112 q 133 -128 144 -115 q 117 -140 122 -140 q 110 -145 116 -141 q 101 -151 103 -150 q 93 -155 98 -153 q 81 -159 87 -158 q 69 -160 75 -160 z "},"-":{"ha":597,"x_min":62,"x_max":526,"o":"m 171 453 q 236 458 193 453 q 288 464 279 464 q 339 461 294 461 q 344 460 340 461 q 351 460 347 460 q 387 463 359 460 q 429 467 414 467 q 497 440 486 467 q 514 426 510 430 q 522 414 518 422 q 526 395 526 406 q 505 370 526 380 q 460 359 484 359 q 422 360 456 359 q 370 361 389 361 q 329 358 329 361 q 248 361 261 358 q 237 366 246 366 q 199 358 222 366 q 168 351 177 351 q 149 354 162 351 q 129 358 136 357 q 75 382 91 360 q 71 389 74 385 q 66 396 67 393 q 64 402 65 398 q 62 411 62 406 q 75 446 62 431 q 114 461 88 461 q 171 453 116 461 z "},".":{"ha":350,"x_min":87,"x_max":272,"o":"m 134 134 q 196 151 148 151 q 218 141 207 149 q 237 126 229 134 q 260 103 244 119 q 272 72 272 93 q 258 31 272 50 q 223 2 250 15 q 192 -17 197 -12 q 153 -31 176 -31 q 114 -17 132 -31 q 96 16 105 -6 q 87 50 87 37 q 103 90 87 62 q 134 134 119 117 z "},"/":{"ha":642,"x_min":53,"x_max":653,"o":"m 488 960 q 509 1013 504 994 q 515 1039 512 1029 q 527 1057 518 1048 q 550 1067 536 1067 q 600 1063 568 1067 q 637 1054 632 1059 q 643 1047 639 1052 q 650 1037 648 1042 q 653 1026 653 1032 q 637 981 653 1013 q 607 935 622 950 q 545 806 584 908 q 544 804 545 805 q 543 802 543 802 q 510 729 523 744 q 491 689 502 720 q 471 647 481 658 q 440 587 462 637 q 406 524 419 537 q 386 483 392 511 q 374 446 380 456 q 350 390 366 434 q 328 340 335 345 q 305 307 318 335 q 290 268 292 279 q 283 242 290 256 q 272 224 277 228 q 257 189 267 220 q 241 136 246 157 q 224 97 239 125 q 207 52 210 68 q 167 7 204 31 q 106 -18 130 -16 q 70 -7 86 -18 q 53 11 53 4 q 63 46 53 17 q 81 83 74 76 q 100 113 89 93 q 117 150 112 134 q 144 216 131 195 q 160 242 151 224 q 172 267 169 261 q 196 314 183 282 q 212 334 200 326 q 227 351 224 342 q 235 387 228 355 q 249 428 241 420 q 259 445 252 431 q 275 481 265 458 q 296 528 286 505 q 321 589 306 552 q 349 654 336 626 q 365 686 351 660 q 383 724 379 711 q 408 787 390 745 q 420 806 409 792 q 432 823 431 821 q 457 885 433 825 q 488 960 481 945 z "},":":{"ha":344,"x_min":87,"x_max":272,"o":"m 134 600 q 196 618 148 618 q 218 608 207 616 q 237 593 229 600 q 260 570 244 586 q 272 539 272 559 q 258 497 272 517 q 223 469 250 481 q 192 450 197 456 q 153 436 176 436 q 114 450 133 436 q 96 483 105 461 q 87 517 87 504 q 103 556 87 529 q 134 600 119 584 m 122 300 q 141 313 131 310 q 175 315 151 315 q 190 314 180 315 q 207 311 201 313 q 222 305 213 310 q 239 292 231 300 q 254 270 246 286 q 262 248 262 255 q 263 236 262 244 q 264 224 264 228 q 258 203 264 212 q 244 182 252 191 q 227 166 237 174 q 211 153 216 158 q 153 142 201 142 q 114 155 132 142 q 96 188 105 166 q 87 222 87 210 q 99 260 87 235 q 122 300 111 284 z "},";":{"ha":353,"x_min":79,"x_max":272,"o":"m 134 628 q 196 646 148 646 q 218 636 207 644 q 237 621 229 628 q 260 597 244 614 q 272 567 272 587 q 258 525 272 545 q 223 496 250 509 q 192 478 197 484 q 153 464 176 464 q 114 478 133 464 q 96 510 105 489 q 87 545 87 532 q 103 584 87 557 q 134 628 119 612 m 103 40 q 79 66 79 41 q 80 83 79 78 q 84 96 80 89 q 97 109 88 104 q 129 160 119 123 q 136 192 136 179 q 132 205 136 199 q 118 222 127 212 q 103 240 109 232 q 93 298 93 254 q 99 320 94 310 q 115 342 105 330 q 127 358 125 353 q 180 368 136 368 q 229 366 216 368 q 254 339 245 361 q 264 298 264 317 q 269 248 269 280 q 264 222 269 231 q 261 205 262 216 q 258 186 260 195 q 250 167 256 178 q 240 155 248 163 q 225 138 233 147 q 214 119 218 130 q 203 99 211 110 q 186 86 195 88 q 166 72 178 85 q 150 60 155 60 q 143 55 149 59 q 134 49 137 51 q 126 45 132 47 q 115 41 121 42 q 103 40 109 40 z "},"<":{"ha":594,"x_min":36,"x_max":561,"o":"m 205 457 q 224 444 206 456 q 257 422 243 432 q 289 398 272 412 q 313 376 306 385 q 335 354 327 359 q 361 347 344 349 q 395 326 373 345 q 425 302 417 307 q 457 292 429 300 q 492 277 484 284 q 509 263 495 273 q 534 244 523 254 q 547 228 545 235 q 554 199 554 219 q 544 174 554 191 q 526 149 534 158 q 496 136 516 136 q 450 151 468 136 q 422 167 444 157 q 397 182 399 177 q 382 201 397 189 q 353 222 368 214 q 336 234 345 227 q 306 253 326 241 q 268 274 292 262 q 235 294 244 287 q 193 319 227 300 q 151 347 158 338 q 96 389 127 378 q 56 416 75 395 q 36 458 36 437 q 46 495 36 479 q 71 518 56 512 q 82 523 72 519 q 98 530 93 528 q 112 537 103 533 q 127 547 121 542 q 138 557 133 551 q 166 580 146 568 q 192 597 186 592 q 235 620 199 604 q 275 639 272 635 q 330 681 294 658 q 355 702 340 686 q 379 722 370 717 q 447 764 427 744 q 505 799 478 799 q 543 772 524 799 q 561 726 561 745 q 519 677 561 708 q 497 660 513 677 q 476 640 481 643 q 471 641 473 640 l 468 642 q 449 636 459 642 q 436 625 438 630 q 389 589 413 602 q 372 572 382 584 q 351 557 362 561 q 337 552 347 555 q 323 547 328 549 q 309 540 318 545 q 288 526 299 534 q 263 510 280 521 q 238 492 246 498 q 219 476 229 486 q 205 457 210 467 z "},"=":{"ha":741,"x_min":56,"x_max":681,"o":"m 150 715 q 207 720 168 715 q 253 724 245 724 q 279 722 258 722 q 347 717 296 717 q 406 718 372 718 q 459 718 440 718 q 485 720 478 718 q 500 722 489 722 q 519 718 511 722 q 526 717 521 717 q 541 718 530 717 q 555 720 551 720 q 593 722 568 720 q 628 724 617 724 q 667 715 654 724 q 679 694 676 709 q 681 619 681 679 q 669 610 680 612 q 621 608 659 608 q 595 605 612 608 q 543 602 577 602 q 523 604 540 602 q 497 606 506 606 q 479 602 492 606 q 452 599 466 599 q 428 600 446 599 q 367 601 410 600 q 261 602 325 602 q 218 606 224 602 q 208 607 217 607 q 175 603 199 607 q 146 597 152 598 q 131 599 141 597 q 113 602 120 601 q 66 619 78 604 q 59 648 62 625 q 56 684 56 671 q 69 711 56 700 q 100 722 82 722 q 126 719 109 722 q 150 715 143 716 m 150 498 q 207 503 168 498 q 253 507 245 507 q 279 505 261 505 q 347 500 296 500 q 406 500 372 500 q 459 501 440 500 q 485 503 478 501 q 500 505 489 505 q 519 501 511 505 q 526 500 521 500 q 541 501 530 500 q 555 503 551 503 q 593 505 568 503 q 628 507 617 507 q 667 498 652 507 q 679 477 676 492 q 681 403 681 463 q 669 394 680 396 q 621 392 659 392 q 595 388 612 392 q 543 385 577 385 q 523 387 540 385 q 497 389 506 389 q 479 385 492 389 q 452 382 466 382 q 428 382 446 382 q 367 384 410 383 q 261 385 325 385 q 218 389 224 385 q 208 390 217 390 q 175 386 199 390 q 146 380 152 381 q 131 382 141 380 q 113 385 120 384 q 66 403 79 387 q 59 431 62 408 q 56 467 56 454 q 69 494 56 483 q 100 505 82 505 q 126 502 109 505 q 150 498 143 499 z "},">":{"ha":611,"x_min":36,"x_max":561,"o":"m 392 457 q 378 476 388 467 q 360 492 368 486 q 334 510 351 498 q 310 526 317 521 q 289 540 298 534 q 274 547 279 545 q 260 552 269 549 q 245 557 251 555 q 224 572 235 561 q 208 589 214 584 q 161 625 186 601 q 149 636 159 630 q 129 642 138 642 l 126 641 q 121 640 123 640 q 100 660 116 643 q 78 677 84 677 q 36 726 36 709 q 54 772 36 745 q 92 799 73 799 q 150 764 119 799 q 218 722 169 745 q 242 702 227 717 q 267 681 256 686 q 322 639 304 656 q 362 620 326 635 q 406 597 399 604 q 431 580 411 592 q 460 557 451 568 q 526 518 472 542 q 551 495 541 512 q 561 458 561 479 q 541 416 561 437 q 501 389 522 395 q 446 347 470 378 q 405 319 439 338 q 363 294 370 300 q 330 274 353 287 q 292 253 306 262 q 261 234 271 241 q 244 222 252 227 q 215 201 229 214 q 200 182 201 189 q 176 167 198 177 q 147 151 153 157 q 102 136 130 136 q 71 149 81 136 q 53 174 62 158 q 43 199 43 191 q 50 228 43 218 q 63 244 52 235 q 89 263 75 254 q 106 277 102 273 q 141 292 113 284 q 172 302 168 300 q 202 326 180 307 q 236 347 224 345 q 262 355 253 349 q 285 376 271 360 q 309 398 292 385 q 340 422 326 412 q 373 444 355 432 q 392 457 391 456 z "},"?":{"ha":747,"x_min":54,"x_max":699,"o":"m 254 125 q 307 140 268 140 q 325 132 316 138 q 340 119 334 125 q 359 100 347 113 q 371 74 371 90 q 358 39 371 58 q 329 15 351 26 q 302 0 307 5 q 271 -11 292 -11 q 239 0 252 -11 q 224 26 231 9 q 216 56 216 44 q 254 125 216 76 m 593 572 q 503 504 549 532 q 489 494 500 504 q 463 472 478 484 q 435 454 447 459 q 374 406 396 439 q 351 350 351 372 q 363 311 351 336 q 375 282 375 287 q 335 247 375 267 q 273 227 296 227 q 245 285 250 227 l 245 296 q 252 348 245 321 q 268 387 259 376 q 287 416 273 393 q 314 452 300 439 q 354 498 328 465 q 400 554 380 532 q 451 617 435 592 q 481 681 467 642 q 500 787 490 707 q 505 854 505 846 q 500 888 505 875 q 496 902 500 889 q 490 920 492 915 q 484 937 488 925 q 475 954 479 948 q 465 967 471 960 q 452 978 458 974 q 350 1004 397 1004 q 286 992 315 1004 q 244 969 258 981 q 216 941 230 956 q 199 924 203 926 q 147 869 161 898 q 132 833 140 856 q 119 803 123 811 q 115 791 118 800 q 109 778 111 782 q 102 768 106 774 q 92 761 98 763 q 78 758 86 758 q 54 781 54 758 q 62 869 54 819 q 66 906 64 880 q 72 950 68 932 q 81 981 75 968 q 118 1015 88 998 q 179 1042 148 1033 q 346 1069 279 1069 q 497 1059 420 1069 q 586 1029 573 1048 q 619 1001 595 1016 q 648 977 643 986 q 662 959 650 975 q 679 931 673 943 q 685 908 685 919 q 692 872 685 897 q 699 831 699 847 q 697 795 699 812 q 693 770 695 778 q 688 748 692 762 q 684 732 684 734 q 677 705 682 723 q 671 678 673 688 q 663 657 668 669 q 652 640 658 646 q 620 604 640 630 q 593 572 600 578 z "},"@":{"ha":1179,"x_min":71,"x_max":1109,"o":"m 812 511 q 802 475 812 500 q 793 432 793 450 q 787 413 793 423 q 782 399 782 402 q 779 354 782 385 q 777 321 777 323 q 781 243 777 250 q 785 235 781 241 q 789 227 788 229 q 793 220 790 225 q 798 214 796 216 q 803 209 800 212 q 810 204 807 205 q 819 202 814 203 q 829 199 823 200 q 842 199 835 199 q 886 221 863 199 q 928 285 909 243 q 952 387 940 313 q 964 492 964 460 q 955 566 964 519 q 930 635 945 614 q 908 669 925 642 q 878 712 892 696 q 850 737 865 728 q 827 753 844 741 q 793 773 810 766 q 755 783 777 781 q 726 787 744 785 q 695 791 709 790 q 664 793 682 793 q 602 779 646 793 q 564 770 591 776 q 515 758 538 765 q 476 741 492 751 q 437 716 465 732 q 389 685 409 701 q 355 650 368 669 q 303 582 343 631 q 253 511 263 532 q 230 425 239 483 q 221 302 221 368 q 222 250 221 262 q 268 131 237 178 q 281 109 273 123 q 295 87 290 94 q 309 71 300 80 q 329 58 318 62 q 353 54 339 54 q 379 48 355 54 q 425 41 404 41 q 515 57 462 41 q 545 71 531 61 q 576 96 558 80 q 603 119 594 113 q 628 127 612 127 q 662 116 645 127 q 690 89 680 104 q 696 64 696 76 q 688 47 696 54 q 670 36 680 40 q 659 28 661 31 q 550 -7 639 -1 q 518 -12 529 -7 q 463 -24 505 -24 q 408 -20 427 -24 q 358 -15 401 -18 q 293 -3 315 -12 q 191 56 247 16 l 183 62 q 170 73 176 68 q 155 87 165 77 q 136 108 144 98 q 117 133 127 118 q 98 164 107 148 q 71 334 71 214 q 77 414 71 378 q 115 519 94 504 q 126 532 125 526 q 129 549 128 537 q 136 576 130 561 q 209 660 150 604 q 288 721 268 715 q 316 733 307 726 q 346 766 326 741 q 379 790 357 779 q 431 811 401 801 q 468 825 460 822 q 477 827 472 825 q 482 829 481 829 q 497 826 488 829 q 511 823 506 823 q 539 836 512 823 q 697 857 580 857 q 800 845 747 857 q 878 823 852 833 q 922 802 905 812 q 951 779 933 796 q 990 751 969 761 q 1074 659 1033 734 q 1100 596 1090 635 q 1109 518 1109 557 q 1092 406 1109 466 q 1085 380 1090 399 q 1075 347 1080 360 q 1062 316 1071 333 q 1042 288 1053 298 q 1031 277 1036 283 q 1022 267 1026 272 q 1016 257 1019 261 q 1011 250 1013 254 q 1008 245 1008 246 q 945 189 994 222 q 878 157 897 157 q 844 149 869 157 q 790 140 820 140 q 726 169 764 140 q 671 231 688 197 q 667 243 669 233 q 661 262 665 254 q 652 271 657 271 q 631 256 647 271 q 596 220 616 241 q 567 192 576 199 q 509 156 542 172 q 450 139 476 139 q 387 152 419 139 q 345 180 355 165 q 317 278 317 222 q 326 364 317 337 q 336 401 330 378 q 347 441 342 425 q 359 469 353 458 q 383 506 369 484 q 404 537 397 527 q 420 559 410 547 q 439 581 429 571 q 478 604 454 595 q 518 628 502 612 q 653 676 555 668 q 694 665 671 676 q 733 627 717 654 q 768 646 743 632 q 800 665 792 661 q 818 669 808 669 q 846 663 833 669 q 860 648 860 656 q 829 586 860 628 q 820 565 823 577 q 815 545 816 553 q 813 525 814 537 q 812 511 812 512 m 659 614 q 634 608 648 614 q 613 598 621 603 q 590 582 606 594 q 572 568 574 570 q 497 454 537 543 q 447 296 458 365 q 444 245 444 285 q 452 218 444 230 q 478 205 460 206 q 546 243 509 205 q 611 315 597 294 q 627 354 621 330 q 653 406 634 377 q 679 481 663 420 q 694 562 694 542 q 684 598 694 583 q 659 614 673 614 z "},"A":{"ha":1330,"x_min":66,"x_max":1274,"o":"m 760 1000 q 817 860 778 969 q 826 835 819 852 q 836 808 832 817 q 846 785 839 799 q 861 760 853 771 q 890 694 874 740 q 908 642 905 648 q 920 606 913 629 q 935 566 927 583 q 954 528 942 548 q 971 496 960 519 q 991 448 981 472 q 1003 419 1001 423 q 1022 385 1014 403 q 1038 347 1030 367 q 1051 315 1046 326 q 1068 283 1056 305 q 1087 245 1080 261 q 1097 216 1095 230 q 1109 185 1101 202 q 1124 157 1117 169 q 1143 126 1131 145 q 1161 98 1156 107 q 1181 67 1168 79 q 1223 46 1193 56 q 1241 43 1230 44 q 1260 39 1253 41 q 1271 33 1267 37 q 1274 14 1274 31 q 1255 -3 1272 1 q 1207 -7 1247 -7 q 1149 -3 1200 -7 q 1101 -1 1135 -1 q 1046 -2 1084 -1 q 987 -3 1007 -3 q 933 1 939 -3 q 909 0 926 1 q 878 -1 891 -1 q 844 11 844 -1 q 868 35 844 35 q 899 44 880 35 q 918 62 918 54 q 920 75 920 66 q 910 113 920 90 q 897 146 900 137 q 883 186 897 148 q 858 250 870 224 q 833 283 845 276 q 812 290 825 290 q 799 289 808 290 q 786 288 790 288 q 659 292 709 288 q 628 293 649 293 q 571 290 614 293 q 503 288 528 288 q 471 289 488 288 q 446 290 454 290 q 425 294 433 290 q 414 297 416 297 q 393 288 408 297 q 370 252 385 283 q 347 189 355 220 q 341 150 345 179 q 338 104 338 121 q 341 85 338 93 q 353 67 344 78 q 363 54 361 56 q 381 43 368 50 q 396 36 394 36 q 424 32 404 36 q 436 9 436 28 q 418 -4 433 -4 q 408 -5 415 -4 q 393 -5 400 -5 q 368 -4 379 -5 q 175 0 297 0 q 117 -1 132 0 q 93 -3 103 -3 q 66 9 66 -3 q 90 37 66 37 q 147 53 121 37 q 186 98 174 68 q 215 152 197 127 q 237 195 233 178 q 254 231 239 199 q 286 298 269 262 q 307 342 304 334 q 359 452 347 412 q 402 547 371 486 q 444 631 434 607 q 464 654 448 642 q 485 688 480 666 q 489 713 488 699 q 492 739 490 728 q 501 762 494 749 q 547 864 546 861 q 566 894 547 865 q 593 947 585 923 q 633 1051 614 1027 q 647 1072 642 1065 q 662 1084 652 1078 q 686 1090 673 1090 q 719 1069 703 1090 q 760 1000 735 1048 m 614 802 q 595 779 606 802 q 573 727 585 757 q 550 686 561 698 q 536 665 536 673 q 537 661 536 664 q 538 656 538 657 q 530 635 538 646 q 505 588 517 613 q 477 527 493 564 q 454 476 460 490 q 421 367 423 413 q 437 357 421 357 q 453 357 440 357 q 475 358 465 358 q 495 355 479 358 q 522 353 511 353 q 570 357 541 353 q 615 361 599 361 q 675 357 640 361 q 732 354 711 354 q 767 358 743 354 q 796 370 792 363 q 800 382 800 376 q 794 401 800 388 q 786 422 788 415 q 773 451 784 429 q 754 497 763 474 q 742 539 745 521 q 714 607 739 554 q 677 694 688 660 q 647 766 667 731 q 614 802 627 802 z "},"B":{"ha":1240,"x_min":122,"x_max":1137,"o":"m 229 98 q 244 215 244 131 q 242 245 244 229 q 240 273 240 260 q 244 335 240 291 q 243 362 244 343 q 241 386 241 380 q 242 412 241 393 q 243 443 243 430 q 241 484 243 468 q 246 504 241 491 q 250 525 250 516 q 247 551 250 534 q 243 579 243 568 q 245 608 243 589 q 248 636 248 627 q 244 659 248 645 q 242 678 244 659 q 236 711 240 696 q 240 737 236 720 q 244 760 244 754 q 241 797 244 768 q 237 835 237 826 q 233 907 237 886 q 214 961 229 929 q 186 994 203 983 q 135 1004 170 1004 q 126 1010 130 1004 q 122 1022 122 1015 q 127 1039 122 1031 q 283 1047 132 1047 q 346 1044 288 1047 q 404 1040 403 1040 q 442 1041 407 1040 q 485 1042 477 1042 q 566 1044 492 1042 q 671 1047 640 1047 q 821 1029 770 1047 q 863 1019 841 1023 q 895 1010 884 1015 q 965 970 945 989 q 1013 904 986 952 q 1025 863 1019 893 q 1031 807 1031 833 q 1008 732 1031 773 q 958 659 986 692 q 918 625 944 642 q 873 597 891 608 q 854 583 854 586 q 881 578 854 583 q 946 564 908 574 q 1004 543 983 555 q 1064 498 1034 527 q 1097 461 1095 470 q 1105 438 1100 456 q 1116 411 1110 420 q 1131 371 1124 399 q 1137 328 1137 344 q 1133 273 1137 292 q 1116 235 1128 254 q 1107 215 1107 222 q 1107 209 1107 213 q 1108 201 1108 204 q 1101 178 1108 191 q 1078 138 1088 153 q 1048 103 1068 123 q 1000 68 1028 84 q 909 22 952 38 q 811 7 865 7 q 755 1 802 7 q 642 -4 708 -4 q 491 -1 577 -4 q 397 3 404 3 q 366 5 389 3 q 332 7 342 7 q 306 3 326 7 q 277 0 285 0 q 214 -1 267 0 q 151 -3 161 -3 q 125 20 125 -3 q 136 39 125 32 q 157 46 147 46 q 193 56 179 46 q 229 98 218 71 m 741 514 q 707 513 728 514 q 673 511 686 511 q 644 513 655 511 q 610 514 633 514 q 501 504 553 514 q 485 502 495 502 q 466 498 475 501 q 447 484 457 494 q 439 425 439 475 q 441 354 439 397 q 444 310 444 311 q 442 277 444 303 q 438 204 440 250 q 436 102 436 157 q 436 96 436 99 q 437 92 437 94 q 440 88 438 90 q 442 85 441 86 q 446 82 443 83 q 449 79 448 80 q 454 77 450 79 q 459 75 458 75 q 465 73 460 75 q 471 71 469 71 q 515 69 477 69 q 615 72 549 69 q 696 74 681 74 q 701 75 697 74 q 708 75 705 75 q 725 74 716 75 q 736 72 734 72 q 766 73 755 72 q 781 76 777 75 q 797 83 785 77 q 819 94 808 90 q 888 153 852 108 q 921 218 908 177 q 935 281 935 259 q 926 358 935 337 q 922 371 926 359 q 916 388 918 382 q 908 405 913 394 q 899 424 903 416 q 888 441 895 432 q 875 457 882 450 q 808 498 848 482 q 741 514 768 514 m 749 615 q 813 686 784 635 q 842 778 842 736 q 819 893 842 831 q 781 940 810 918 q 726 968 751 962 q 716 974 722 968 q 699 982 711 979 q 664 986 686 986 l 652 986 q 629 989 646 986 q 604 991 612 991 q 572 987 595 991 q 538 983 549 983 q 492 982 507 983 q 465 971 477 980 q 447 943 452 962 l 443 930 q 437 851 437 917 q 437 844 437 850 q 438 827 437 838 q 438 801 438 817 q 439 758 439 785 q 439 699 439 731 q 437 668 439 690 q 436 635 436 646 q 446 590 436 600 q 475 581 452 585 q 517 578 498 578 q 579 586 536 586 q 606 585 587 586 q 639 583 625 583 q 749 615 695 583 z "},"C":{"ha":1234,"x_min":92,"x_max":1175,"o":"m 838 982 q 798 991 823 983 q 758 999 772 999 q 738 995 752 999 q 715 990 724 990 q 693 992 708 990 q 668 994 677 994 q 627 983 649 994 q 591 972 604 972 q 558 962 573 972 q 526 936 543 952 q 498 913 510 920 q 414 821 481 902 q 369 731 387 787 q 351 627 351 675 q 344 589 351 619 q 336 542 336 559 q 340 473 336 518 q 349 410 344 429 q 355 379 350 403 q 364 345 361 355 q 373 312 367 334 q 387 277 380 290 q 403 245 393 263 q 426 212 413 227 q 456 184 439 197 q 486 159 456 184 q 527 125 515 134 q 567 100 539 116 q 621 74 594 83 q 755 49 688 51 q 793 53 770 49 q 849 63 817 56 q 885 71 882 70 q 945 98 907 75 q 1004 138 983 121 q 1036 163 1013 146 q 1069 191 1059 180 q 1081 204 1076 197 q 1088 215 1086 210 q 1094 228 1090 219 q 1101 244 1098 237 q 1105 253 1102 246 q 1111 262 1109 259 q 1116 271 1112 265 q 1123 279 1120 276 q 1131 284 1126 281 q 1141 286 1136 286 q 1165 274 1154 286 q 1175 252 1175 261 q 1162 215 1175 241 q 1133 172 1148 188 q 1108 144 1130 169 q 1070 103 1086 119 q 1032 70 1055 87 q 991 46 1009 52 q 957 33 983 43 q 906 14 931 22 q 859 1 882 5 q 817 -7 852 0 q 755 -18 781 -15 q 699 -21 729 -21 l 681 -21 q 507 -2 584 -18 q 397 29 431 13 q 326 67 350 51 q 283 93 302 84 q 225 139 256 106 q 174 204 193 172 q 145 257 157 231 q 129 300 134 284 q 116 347 124 315 q 103 392 107 378 q 92 493 92 429 q 110 627 92 598 q 131 693 119 642 q 153 758 142 744 q 205 835 191 816 q 244 878 220 854 q 317 921 290 921 q 330 925 326 921 q 336 938 334 928 q 340 950 338 947 q 428 1007 353 979 q 450 1015 434 1009 q 472 1023 465 1021 q 491 1030 478 1025 q 511 1037 503 1035 q 530 1042 519 1039 q 551 1046 541 1044 q 571 1048 561 1048 q 649 1057 583 1049 q 743 1064 715 1064 q 802 1061 791 1061 q 858 1054 837 1059 q 890 1044 880 1049 q 905 1039 900 1040 q 935 1034 914 1038 q 960 1029 956 1029 q 991 1037 964 1029 q 1026 1044 1019 1044 q 1048 1033 1040 1043 q 1060 989 1056 1022 q 1069 935 1062 964 q 1078 890 1076 905 q 1091 833 1079 876 q 1103 772 1103 790 q 1079 750 1103 750 q 1065 752 1071 750 q 1055 760 1059 755 q 1048 769 1050 765 q 1042 782 1046 773 q 1038 794 1039 791 q 1018 827 1033 804 q 997 861 1003 850 q 971 901 988 880 q 940 932 954 922 q 886 963 922 944 q 838 982 850 981 z "},"D":{"ha":1336,"x_min":121,"x_max":1218,"o":"m 184 52 q 200 61 188 54 q 217 72 212 68 q 230 84 222 76 q 241 102 238 92 q 245 125 245 112 q 248 170 248 145 q 245 249 248 195 q 243 332 243 302 q 245 384 243 349 q 248 431 248 419 q 248 476 248 446 q 249 524 249 507 q 254 555 249 534 q 258 589 258 576 q 253 619 258 599 q 248 652 248 639 q 250 687 248 663 q 253 722 253 711 q 250 798 253 747 q 248 876 248 849 q 227 960 248 932 q 142 997 210 983 q 131 1000 134 999 q 124 1005 127 1001 q 121 1018 121 1010 q 132 1039 121 1031 q 158 1047 144 1047 q 266 1048 172 1047 q 421 1048 360 1048 q 441 1050 437 1048 q 504 1059 492 1059 q 587 1055 526 1059 q 684 1051 648 1051 q 803 1043 732 1051 q 907 1018 873 1035 q 1048 929 1024 968 q 1066 908 1059 915 q 1082 895 1073 901 q 1099 882 1091 888 q 1139 834 1116 868 q 1162 783 1162 800 q 1184 729 1163 775 q 1208 654 1206 683 q 1212 632 1209 649 q 1216 601 1215 616 q 1218 574 1218 587 q 1211 444 1218 494 q 1154 272 1187 294 q 1140 247 1142 264 q 1136 227 1138 231 q 1073 144 1111 184 q 989 81 1035 104 q 852 28 932 51 q 703 5 773 5 q 665 3 681 5 q 631 1 650 1 q 549 -1 613 1 q 469 -3 485 -3 q 382 -1 446 -1 q 331 -1 366 -1 q 279 0 297 0 q 264 0 279 0 q 227 -1 249 -1 q 187 -1 205 -1 q 127 1 130 -1 q 121 20 121 8 q 123 33 121 22 q 154 45 127 42 q 184 52 180 49 m 463 965 q 454 940 458 960 q 449 911 449 920 q 451 860 449 903 q 453 807 453 817 q 449 763 453 795 q 444 708 444 730 q 440 606 444 661 q 436 539 436 551 q 444 422 436 452 q 443 393 444 413 q 441 361 441 372 q 444 303 441 341 q 447 237 447 266 q 446 202 447 231 q 446 157 446 174 q 458 78 446 86 q 484 71 469 71 q 515 73 496 71 q 551 75 534 75 q 595 72 571 75 q 632 69 620 69 q 680 73 660 69 q 712 83 699 77 q 732 89 725 88 q 797 110 770 94 q 835 129 823 126 q 864 143 850 132 q 891 173 877 155 q 916 199 906 191 q 955 255 933 214 q 990 339 977 297 q 1014 525 1014 410 q 1013 598 1014 583 q 1004 625 1011 614 q 996 643 1000 633 q 989 666 992 653 q 984 687 986 679 q 979 711 982 696 q 975 732 976 727 q 918 864 951 829 q 902 881 916 866 q 878 905 887 897 q 853 927 868 914 q 825 946 838 939 q 800 953 812 952 q 746 967 783 954 q 694 982 708 979 q 632 990 666 990 q 604 989 623 990 q 574 989 585 989 q 540 990 562 989 q 496 991 518 991 q 478 988 483 991 q 471 977 474 985 q 463 965 468 970 z "},"E":{"ha":1202,"x_min":121,"x_max":1112,"o":"m 1002 -9 q 960 -6 990 -9 q 911 -3 929 -3 q 841 3 894 -3 q 771 11 788 9 q 741 6 760 11 q 714 1 722 1 q 692 4 705 1 q 668 7 680 7 q 618 2 648 7 q 574 -3 587 -3 q 534 0 568 -3 q 412 3 418 2 q 380 7 384 7 q 334 1 358 7 l 278 1 q 239 -2 277 1 q 178 -5 201 -5 q 146 -3 162 -5 q 121 21 121 0 q 126 33 121 28 q 136 39 131 37 q 158 40 139 39 q 195 44 178 40 q 222 57 213 47 q 245 103 244 79 q 249 193 249 183 q 247 229 249 198 q 244 301 244 259 q 243 393 244 305 q 241 519 241 481 q 244 644 241 557 q 248 746 248 732 q 243 762 248 749 q 239 779 239 776 q 237 802 237 787 q 241 843 237 818 q 244 882 244 867 q 243 896 244 884 q 241 926 241 908 q 233 951 241 939 q 214 968 224 962 q 187 983 204 975 q 163 990 180 987 q 138 999 146 993 q 129 1021 129 1006 q 179 1043 129 1043 l 315 1043 q 367 1041 332 1043 q 415 1039 402 1039 q 490 1042 429 1039 q 570 1044 550 1044 q 618 1042 594 1044 q 668 1039 642 1039 q 749 1040 689 1039 q 867 1042 809 1042 q 913 1044 883 1042 q 951 1047 943 1047 q 967 1046 959 1047 q 987 1042 975 1045 q 1005 1029 998 1038 q 1013 1008 1013 1021 q 1033 877 1013 976 q 1054 765 1054 778 q 1050 740 1054 747 q 1032 733 1046 733 q 979 787 1013 733 q 928 859 960 820 q 869 918 895 898 q 754 965 821 958 q 733 971 744 966 q 697 977 722 975 q 666 987 684 978 q 639 997 649 997 q 604 990 625 997 q 578 983 583 983 q 550 982 567 983 q 528 982 533 982 q 512 981 522 981 q 498 979 501 981 q 489 975 495 977 q 479 969 483 973 q 472 960 476 964 q 461 947 467 956 q 447 815 447 929 q 440 790 447 801 q 433 777 433 780 l 435 768 q 440 743 438 759 q 443 710 443 727 l 443 596 q 460 574 443 583 q 500 562 477 564 q 514 559 509 561 q 522 557 519 557 q 534 557 525 557 q 572 561 549 557 q 607 566 595 566 q 633 564 614 566 q 681 562 652 562 q 758 586 716 562 q 846 657 821 624 q 855 672 849 661 q 866 689 861 683 q 880 694 872 694 q 899 663 899 694 q 894 595 898 646 q 890 534 890 545 q 898 472 890 524 q 907 400 906 420 q 900 376 907 385 q 885 367 893 367 q 862 381 875 367 q 837 416 850 395 q 818 441 823 436 q 760 483 793 467 q 705 498 727 498 q 666 500 684 498 q 628 501 648 501 q 600 498 620 501 q 559 496 581 496 q 506 497 535 496 q 469 498 476 498 q 451 492 457 498 q 444 480 445 486 q 443 463 443 474 q 439 356 443 441 q 436 252 436 271 q 440 232 436 245 q 444 214 444 220 q 444 181 444 202 q 443 151 443 161 q 453 100 443 115 q 482 75 463 83 q 515 65 500 66 q 555 64 529 64 q 608 67 572 64 q 657 71 643 71 q 704 76 673 71 q 745 81 736 81 q 797 91 763 81 q 852 110 831 100 q 966 186 933 142 q 983 204 969 189 q 1013 239 997 220 q 1042 278 1029 258 q 1067 311 1051 292 q 1089 329 1084 329 q 1104 323 1097 329 q 1112 307 1112 318 q 1106 273 1112 296 q 1085 201 1100 251 q 1060 114 1071 152 q 1054 89 1058 105 q 1047 63 1050 73 q 1041 41 1045 54 q 1034 20 1037 28 q 1025 5 1030 12 q 1014 -6 1020 -3 q 1002 -9 1008 -9 z "},"F":{"ha":1086,"x_min":121,"x_max":1026,"o":"m 661 589 q 707 602 676 589 q 760 635 737 614 q 792 673 775 650 q 811 699 809 696 q 828 704 817 704 q 845 700 838 704 q 852 689 852 696 q 846 617 852 681 q 840 545 840 553 q 845 487 840 522 q 850 435 850 452 q 845 395 850 406 q 821 385 840 385 q 804 403 814 385 q 781 445 794 421 q 754 478 767 469 q 742 488 751 480 q 728 498 732 496 q 714 507 724 501 q 696 514 704 512 q 677 519 689 517 q 653 521 666 521 q 617 526 643 521 q 575 532 592 532 q 546 530 566 532 q 513 528 526 528 q 437 509 441 528 q 432 467 432 481 q 435 368 432 453 q 439 268 439 282 q 438 195 439 251 q 437 123 437 139 q 439 103 437 111 q 444 92 441 96 q 453 82 447 88 q 498 59 464 68 q 534 49 532 50 q 547 37 544 44 q 550 16 550 29 q 486 -4 550 -4 q 459 -3 475 -4 q 439 -3 442 -3 q 403 -1 433 -3 q 368 0 373 0 q 316 -1 351 0 q 267 -3 281 -3 q 250 -4 264 -3 q 216 -6 236 -5 q 179 -7 195 -7 q 125 3 129 -7 q 121 22 121 15 q 129 39 121 33 q 172 55 136 47 q 214 72 208 63 q 233 122 229 92 q 238 191 237 152 q 241 249 238 229 q 245 283 242 261 q 249 317 249 305 q 244 398 249 328 q 239 472 239 468 q 241 575 239 500 q 243 679 243 651 q 241 704 243 688 q 240 726 240 719 q 244 754 240 740 q 240 807 243 771 q 237 861 237 842 q 234 897 237 871 q 225 936 230 923 q 144 991 212 973 q 123 1014 123 996 q 132 1036 123 1027 q 231 1044 138 1040 q 370 1047 323 1047 q 469 1040 435 1047 q 518 1036 516 1036 q 561 1042 534 1036 q 600 1047 587 1047 q 633 1044 613 1047 q 661 1042 652 1042 q 707 1043 684 1042 q 753 1041 726 1043 q 790 1039 780 1039 q 826 1041 792 1039 q 901 1045 861 1043 q 958 1047 941 1047 q 993 1038 981 1047 q 1004 1003 1004 1028 q 1015 878 1004 967 q 1026 774 1026 789 q 1003 734 1026 734 q 981 752 994 734 q 961 787 967 769 q 867 914 937 851 q 737 964 813 964 q 691 970 714 964 q 654 977 668 977 q 627 981 642 977 q 597 985 611 985 q 573 980 588 985 q 550 975 558 975 q 528 977 543 975 q 505 979 514 979 q 449 964 463 979 q 436 908 436 949 l 436 725 q 435 693 436 720 q 433 648 433 667 q 437 603 433 618 q 453 586 441 588 q 494 585 458 585 q 544 586 510 585 q 595 587 577 587 q 632 588 612 587 q 661 589 652 589 z "},"G":{"ha":1279,"x_min":92,"x_max":1223,"o":"m 875 87 q 919 130 907 112 q 933 168 931 147 q 932 207 933 180 q 930 249 930 233 l 930 361 q 905 415 930 390 q 856 444 879 439 q 817 461 830 449 q 803 488 803 473 q 808 504 803 496 q 859 515 816 515 q 915 512 876 515 q 978 509 954 509 q 1062 515 1005 509 q 1150 521 1118 521 q 1223 494 1223 521 q 1222 487 1223 490 q 1217 480 1221 484 q 1209 475 1213 477 q 1198 470 1205 473 q 1184 465 1190 467 q 1167 459 1178 463 q 1147 452 1156 455 q 1124 434 1133 446 q 1111 409 1114 422 q 1106 387 1107 395 q 1105 374 1105 380 q 1107 329 1105 368 q 1109 269 1109 290 q 1108 241 1109 248 q 1113 185 1108 222 q 1118 135 1118 148 q 1079 90 1118 90 q 1003 72 1047 90 q 943 38 997 69 q 859 1 889 7 q 826 -5 848 -1 q 790 -12 804 -9 q 751 -17 777 -14 q 699 -21 726 -20 q 542 -10 610 -20 q 422 18 473 0 q 339 54 372 37 q 267 100 306 72 q 247 126 256 106 q 228 155 237 145 q 202 176 224 159 q 174 204 181 193 q 145 257 157 231 q 129 300 134 284 q 116 347 124 315 q 103 392 107 378 q 92 493 92 429 q 110 627 92 598 q 131 693 119 642 q 153 758 142 744 q 342 962 223 865 q 428 1007 370 985 q 450 1015 434 1009 q 472 1023 465 1021 q 491 1030 478 1025 q 511 1037 503 1035 q 530 1042 519 1039 q 551 1046 541 1044 q 571 1048 561 1048 q 649 1057 580 1049 q 750 1064 718 1064 q 802 1061 784 1061 q 866 1050 827 1061 q 905 1039 905 1039 q 935 1034 914 1038 q 960 1029 956 1029 q 991 1037 964 1029 q 1026 1044 1019 1044 q 1048 1033 1040 1043 q 1060 989 1056 1022 q 1069 935 1062 964 q 1078 890 1076 905 q 1091 833 1079 876 q 1103 772 1103 790 q 1079 750 1103 750 q 1061 755 1069 750 q 1050 767 1054 761 q 1042 786 1047 773 q 1034 806 1037 800 q 987 866 1025 823 q 933 920 949 908 q 906 940 930 922 q 864 970 882 958 q 838 982 846 981 q 798 991 823 983 q 758 999 772 999 q 737 994 749 999 q 715 990 725 990 q 693 992 708 990 q 668 994 677 994 q 650 993 656 994 q 621 982 640 991 q 591 972 601 972 q 555 963 573 972 q 516 936 537 953 q 485 913 495 919 q 466 893 476 907 q 441 858 456 880 q 414 821 426 836 q 367 731 386 787 q 347 627 347 675 q 340 589 347 619 q 334 542 334 559 q 345 410 334 454 l 350 389 q 365 335 359 353 q 382 285 370 316 q 413 229 395 254 q 456 184 431 205 q 492 150 463 178 q 547 104 521 122 q 607 74 573 86 q 755 49 674 52 q 819 61 780 49 q 875 87 859 74 z "},"H":{"ha":1461,"x_min":121,"x_max":1340,"o":"m 354 1048 q 397 1050 361 1048 q 450 1051 434 1051 q 461 1050 455 1051 q 469 1050 468 1050 q 491 1049 476 1049 q 517 1047 506 1048 q 534 1042 528 1046 q 542 1021 542 1037 q 525 1006 542 1009 q 508 1005 519 1005 q 491 1004 496 1004 q 477 998 486 1003 q 460 985 469 994 q 439 958 444 969 q 432 921 434 946 q 434 868 433 903 q 436 821 436 834 q 435 790 436 798 q 431 746 431 779 q 429 709 431 730 q 428 660 428 687 q 435 564 428 572 q 452 556 438 557 q 533 554 467 554 q 605 555 562 554 q 665 555 648 555 q 714 547 682 555 q 734 545 720 547 q 754 543 748 543 q 797 554 764 543 q 856 566 830 566 q 888 562 867 566 q 922 556 897 559 q 958 553 948 553 q 993 558 984 553 q 1032 603 1023 575 q 1036 692 1036 617 q 1038 733 1036 696 q 1039 785 1039 770 q 1037 847 1039 804 q 1035 907 1035 890 q 1028 952 1035 935 q 996 993 1021 969 q 963 1002 987 1000 q 932 1008 939 1004 q 926 1026 926 1012 q 932 1044 926 1042 q 960 1053 940 1053 q 978 1050 966 1053 q 996 1048 989 1048 q 1078 1053 1028 1053 q 1103 1051 1099 1053 q 1136 1050 1105 1050 q 1227 1051 1165 1050 q 1293 1053 1290 1053 q 1336 1047 1325 1053 q 1339 1034 1339 1044 q 1335 1015 1339 1019 q 1303 1006 1326 1007 q 1281 1000 1296 1006 q 1261 989 1267 994 q 1250 971 1253 981 q 1244 947 1246 962 q 1240 928 1242 933 q 1234 869 1234 902 q 1240 806 1234 867 q 1234 740 1240 776 q 1227 692 1227 705 q 1229 679 1227 690 q 1231 648 1230 667 q 1232 608 1232 628 q 1230 588 1232 602 q 1227 566 1227 574 q 1234 536 1227 553 q 1240 509 1240 519 q 1238 483 1240 500 q 1236 457 1236 465 q 1235 348 1236 422 q 1234 272 1234 273 q 1238 205 1234 235 q 1243 157 1243 174 q 1242 127 1243 145 q 1240 103 1240 109 q 1256 62 1240 80 q 1289 41 1272 43 q 1337 29 1334 33 q 1340 14 1340 24 q 1337 1 1340 1 q 1295 -4 1326 -4 q 1223 -3 1271 -4 q 1152 -1 1175 -1 q 1128 -2 1144 -1 q 1104 -3 1112 -3 q 1094 -3 1103 -3 q 1078 -4 1085 -4 q 1037 -2 1065 -4 q 994 0 1009 0 q 979 -2 989 0 q 962 -4 968 -4 q 933 3 947 -4 q 929 17 929 5 q 933 35 929 28 q 958 39 936 39 q 999 45 983 39 q 1009 53 1004 47 q 1019 64 1015 59 q 1022 71 1022 70 q 1039 150 1039 119 l 1039 253 q 1043 269 1039 258 q 1047 283 1047 279 q 1044 323 1047 302 q 1042 346 1042 345 q 1037 425 1042 373 q 1025 478 1031 476 q 895 490 975 490 q 846 489 857 490 q 798 488 835 488 q 748 485 785 488 q 676 482 711 482 q 576 484 644 482 q 469 486 508 486 q 432 484 437 486 q 425 443 425 477 q 423 321 425 422 q 421 204 421 219 q 427 181 421 196 q 432 161 432 167 q 460 58 432 66 q 481 51 465 57 q 504 45 497 45 q 530 37 519 45 q 542 22 542 30 q 531 1 542 5 q 494 -4 520 -4 q 429 -3 490 -4 q 357 -1 368 -1 l 286 -1 q 263 -2 283 -1 q 236 -3 243 -3 l 229 -3 q 201 0 210 0 q 186 -2 198 0 q 170 -4 175 -4 q 125 3 145 -4 q 121 17 121 5 q 125 35 121 28 q 156 42 126 36 q 196 56 186 49 q 220 88 212 69 q 230 119 228 107 q 232 151 231 130 q 240 283 240 271 q 239 307 240 292 q 237 332 237 323 q 240 369 238 342 q 241 406 241 395 q 238 476 241 421 q 235 536 235 530 q 235 589 235 553 q 236 643 236 625 l 250 692 q 243 707 250 697 q 236 722 236 718 q 232 882 232 856 q 225 953 232 937 q 222 966 224 958 q 219 977 220 974 q 212 985 218 980 q 196 994 206 989 q 188 998 193 995 q 176 1003 182 1001 q 167 1004 171 1004 q 149 1008 159 1004 l 139 1011 q 126 1026 126 1011 q 139 1047 126 1040 q 354 1048 143 1048 z "},"I":{"ha":646,"x_min":121,"x_max":539,"o":"m 239 1048 l 375 1048 q 422 1050 389 1048 q 475 1051 455 1051 q 489 1050 479 1051 q 505 1048 499 1048 q 515 1050 509 1048 q 529 1051 522 1051 q 536 1046 533 1051 q 539 1035 539 1041 q 528 1014 539 1019 q 496 1007 524 1013 q 456 994 468 1001 q 450 988 452 992 q 446 976 448 983 q 443 963 444 969 q 439 946 441 957 q 436 928 437 935 q 435 907 435 924 q 433 867 434 890 q 431 831 432 844 q 433 786 431 814 q 435 745 435 758 q 429 728 435 740 q 424 705 424 715 q 433 615 433 667 q 431 585 433 603 q 428 561 428 566 q 433 524 428 551 q 439 484 439 498 q 431 427 439 459 q 424 383 424 394 q 429 342 424 372 q 435 275 435 313 q 439 77 435 113 q 473 43 443 51 q 505 36 484 39 q 532 31 526 33 q 536 20 536 26 q 532 3 536 12 q 498 -7 525 -3 q 465 -8 488 -8 q 429 -7 454 -8 q 390 -7 404 -7 q 373 -6 389 -7 q 321 -5 356 -5 q 243 -4 287 -4 q 215 -5 242 -4 q 170 -7 187 -7 q 135 -3 139 -7 q 131 14 131 1 q 135 29 131 25 q 175 35 140 31 q 212 57 196 36 q 232 113 226 71 q 235 224 235 123 q 232 505 232 446 q 238 535 232 519 q 244 555 244 551 q 240 571 243 559 q 236 589 237 583 q 233 613 235 595 q 231 656 231 631 q 228 724 230 680 q 227 789 227 768 q 222 939 227 914 q 217 958 220 947 q 213 975 214 969 q 209 985 212 980 q 204 993 207 990 q 186 1001 199 997 q 164 1004 172 1004 q 129 1008 137 1004 q 121 1026 121 1011 q 132 1047 121 1040 q 171 1050 135 1050 q 199 1049 183 1050 q 226 1049 214 1049 q 239 1048 237 1048 z "},"J":{"ha":833,"x_min":61,"x_max":743,"o":"m 298 41 q 376 66 350 41 q 407 126 391 81 q 428 208 422 172 q 435 339 435 246 q 431 459 435 404 q 427 546 427 515 q 431 572 427 549 q 435 599 435 595 q 435 627 435 610 q 436 653 436 645 q 433 692 436 658 q 431 726 431 716 q 432 759 431 737 q 433 793 433 780 q 427 841 433 810 q 421 884 421 871 q 419 943 421 928 q 404 974 416 958 q 377 1001 389 996 q 338 1007 365 1007 q 327 1009 334 1007 q 315 1013 320 1011 q 310 1015 311 1015 q 304 1029 304 1017 q 310 1047 304 1042 q 350 1051 314 1051 q 393 1050 355 1051 q 433 1048 430 1048 l 545 1048 q 586 1050 557 1048 q 632 1051 614 1051 q 643 1050 637 1051 q 650 1050 648 1050 q 677 1048 657 1048 q 715 1046 698 1048 q 737 1043 732 1045 q 743 1026 743 1040 q 730 1007 743 1010 q 715 1006 730 1007 q 685 1003 701 1006 q 661 996 668 1001 q 640 968 652 987 q 624 935 628 949 q 616 896 616 915 q 624 851 616 873 q 629 664 629 834 q 628 629 629 645 q 624 604 626 612 q 618 578 623 596 q 611 553 613 561 l 613 550 q 617 542 614 547 q 622 527 620 536 q 626 503 625 518 q 628 468 628 487 q 626 443 628 465 q 624 400 624 420 q 627 350 624 392 q 629 313 629 326 q 616 211 629 261 q 582 131 609 174 q 533 71 555 89 q 503 55 522 62 q 470 42 484 47 q 454 32 456 37 q 427 13 449 23 q 386 -1 405 3 q 269 -20 362 -8 q 210 -7 249 -20 q 139 24 170 5 l 126 31 q 75 83 79 60 q 67 124 74 100 q 61 163 61 149 q 84 228 63 195 q 129 261 106 261 q 162 266 140 261 q 195 271 184 271 q 237 254 213 271 q 265 216 260 237 q 268 193 268 208 q 259 145 268 175 q 250 103 250 116 l 250 94 q 268 55 253 69 q 298 41 282 41 z "},"K":{"ha":1289,"x_min":107,"x_max":1215,"o":"m 1096 -3 q 1067 -1 1093 -3 q 1028 1 1042 1 q 997 -1 1013 1 q 975 -3 981 -3 q 897 0 924 -3 q 862 -2 888 0 q 829 -4 836 -4 q 802 -3 822 -4 q 765 -2 782 -3 q 747 -1 748 -1 q 738 4 742 -1 q 733 16 733 9 q 750 37 738 33 q 766 43 753 39 q 786 52 779 48 q 801 64 793 56 q 808 83 808 73 q 800 110 808 93 q 779 139 791 126 q 752 173 762 159 q 732 204 743 187 q 713 236 722 222 q 655 308 701 254 q 603 380 608 362 q 562 432 599 393 q 504 496 513 496 q 490 490 496 496 q 475 472 483 484 q 460 456 467 461 q 428 375 428 427 q 436 132 428 336 q 443 96 437 116 q 454 71 449 75 q 500 37 496 37 q 553 33 545 37 q 555 21 555 31 q 553 7 555 9 q 536 3 551 5 q 500 0 521 1 q 472 -3 479 -2 q 453 -4 465 -4 q 427 -3 445 -4 q 400 -1 410 -1 l 235 -1 l 202 -3 q 150 -4 170 -4 q 111 0 115 -4 q 107 18 107 6 q 111 32 107 30 q 140 39 132 39 q 166 46 149 39 q 191 58 184 54 q 222 94 214 77 q 231 154 231 111 q 232 205 231 159 q 233 281 233 252 q 232 312 233 286 q 231 364 231 338 q 240 446 231 399 q 250 496 250 492 q 241 529 250 502 q 232 575 233 557 q 239 643 232 612 q 233 901 237 688 q 228 934 233 915 q 221 970 222 953 q 205 987 221 977 q 183 1000 190 998 q 146 1007 168 1007 q 135 1009 142 1007 q 123 1013 128 1011 q 118 1015 119 1015 q 113 1029 113 1017 q 118 1047 113 1042 q 158 1051 122 1051 q 210 1050 178 1051 l 241 1048 l 411 1048 q 454 1050 418 1048 q 507 1051 491 1051 q 559 1040 545 1051 q 561 1029 561 1039 q 558 1007 561 1010 q 517 995 549 1001 q 482 986 486 988 q 456 962 471 980 q 441 930 441 944 q 438 893 441 916 q 435 844 435 870 q 437 794 435 829 q 439 743 439 760 q 435 693 439 720 q 439 659 435 686 q 444 624 444 633 q 445 596 444 612 q 446 574 446 581 q 453 558 446 558 q 524 602 488 558 q 602 677 548 629 q 685 764 644 715 q 739 822 726 812 q 778 878 754 833 q 815 937 802 923 q 830 960 827 950 q 833 989 833 969 q 802 1003 833 995 q 771 1011 772 1010 q 764 1035 764 1021 q 766 1043 764 1040 q 801 1048 770 1044 q 842 1051 833 1051 q 872 1049 845 1051 q 909 1047 899 1047 q 986 1051 968 1051 q 1010 1050 1004 1051 q 1039 1047 1019 1047 q 1080 1050 1051 1047 q 1122 1054 1108 1054 q 1149 1051 1133 1054 q 1158 1031 1158 1048 q 1152 1010 1158 1017 q 1129 1004 1149 1008 q 1083 993 1108 1000 q 1044 977 1057 986 l 975 930 q 909 876 942 909 q 864 836 876 843 q 826 803 850 829 q 789 764 803 776 q 748 724 768 746 q 721 697 728 703 q 665 632 665 646 q 686 601 667 627 q 734 541 706 576 q 771 494 763 505 q 804 440 787 470 q 830 395 821 410 q 847 375 840 380 q 878 350 869 361 q 895 325 888 340 q 956 237 937 258 q 994 181 966 225 q 1051 114 1021 138 q 1080 91 1065 104 q 1102 72 1095 78 q 1122 60 1109 66 q 1154 46 1135 53 l 1181 43 q 1214 35 1207 39 q 1215 28 1215 33 q 1206 1 1215 9 q 1183 -5 1200 -5 q 1170 -5 1180 -5 q 1154 -4 1160 -4 q 1128 -3 1150 -4 q 1096 -3 1105 -3 z "},"L":{"ha":1098,"x_min":121,"x_max":1039,"o":"m 456 78 q 493 68 464 68 q 524 69 503 68 q 551 71 544 71 q 599 76 568 71 q 640 81 631 81 q 707 93 659 81 q 774 113 755 104 q 837 153 798 122 q 899 212 876 183 q 914 228 902 216 q 941 256 926 239 q 968 292 956 272 q 994 324 977 305 q 1015 343 1010 343 q 1031 338 1023 343 q 1039 321 1039 332 q 1033 287 1039 310 q 1012 216 1026 263 q 987 127 998 168 q 978 91 983 114 q 969 53 973 68 q 959 22 965 38 q 946 -2 954 6 q 929 -9 939 -9 q 887 -6 917 -9 q 839 -3 857 -3 q 750 4 821 -3 q 665 11 679 10 q 635 6 654 11 q 608 1 617 1 q 587 4 600 1 q 562 7 574 7 q 513 2 543 7 q 469 -3 483 -3 q 411 1 459 -3 q 338 4 363 4 q 301 1 317 4 q 231 0 294 0 l 201 0 q 123 12 131 0 q 121 21 121 18 q 126 33 121 28 q 139 39 132 37 q 207 71 191 47 q 219 97 216 86 q 222 129 222 108 q 223 206 222 164 q 223 275 223 248 q 224 304 224 303 q 228 322 224 312 q 232 338 232 332 q 228 355 232 344 q 224 374 224 367 q 223 398 224 380 q 222 421 222 416 q 227 492 222 447 q 231 558 231 536 q 228 620 230 585 q 227 667 227 654 q 231 725 227 678 q 233 803 233 746 q 230 841 233 815 q 227 879 227 867 q 218 962 227 940 q 155 999 201 999 q 133 1005 146 999 q 121 1021 121 1012 q 125 1038 121 1032 q 144 1043 130 1043 q 172 1044 156 1043 q 195 1044 189 1044 q 214 1043 208 1044 q 228 1042 216 1042 q 246 1043 231 1042 q 275 1044 261 1044 q 400 1048 311 1048 q 532 1043 490 1043 q 559 1018 559 1043 q 534 996 557 996 q 476 982 488 996 q 457 959 462 968 q 449 926 453 950 q 444 857 444 890 q 446 822 444 834 l 446 808 q 442 765 446 793 q 439 720 439 737 q 441 689 439 711 q 444 660 444 667 q 437 597 441 626 q 427 552 432 569 q 422 533 422 535 q 429 520 422 530 q 435 509 435 511 q 439 484 435 500 q 444 453 444 467 q 438 381 444 416 q 432 339 432 347 q 439 299 432 326 q 446 262 446 273 q 444 236 446 254 q 441 208 441 218 q 456 78 441 91 z "},"M":{"ha":1581,"x_min":60,"x_max":1553,"o":"m 1192 1043 l 1197 1043 q 1266 1040 1211 1043 q 1333 1036 1322 1036 q 1393 1042 1348 1036 q 1446 1047 1438 1047 q 1463 1042 1459 1047 q 1468 1021 1468 1036 q 1435 1000 1468 1000 q 1412 993 1429 1000 q 1388 979 1394 986 q 1371 924 1371 951 q 1374 878 1371 909 q 1381 802 1377 846 q 1388 732 1385 758 q 1382 699 1388 720 q 1377 667 1377 678 q 1388 625 1377 648 q 1400 600 1399 602 q 1406 557 1406 565 l 1402 513 q 1410 474 1402 499 q 1418 433 1418 448 q 1417 410 1418 425 q 1417 389 1417 394 l 1417 380 q 1423 316 1417 370 q 1430 245 1429 261 l 1430 184 q 1439 123 1430 151 q 1445 103 1442 115 q 1450 87 1449 92 q 1456 75 1452 82 q 1466 61 1459 68 q 1499 44 1474 53 q 1533 36 1525 36 q 1549 32 1546 36 q 1553 12 1552 28 q 1528 -8 1553 -8 q 1443 -5 1521 -8 q 1340 -1 1364 -1 q 1298 -3 1333 -2 q 1230 -5 1262 -3 q 1189 -8 1198 -6 q 1182 -9 1187 -8 q 1175 -9 1178 -9 q 1143 17 1143 -9 q 1179 32 1143 32 q 1192 35 1186 32 q 1205 45 1198 38 q 1218 56 1213 52 q 1238 104 1238 68 q 1237 115 1238 108 q 1236 125 1236 121 q 1224 209 1232 170 q 1215 258 1216 247 l 1218 329 q 1224 342 1218 330 q 1231 355 1231 354 q 1220 380 1229 365 q 1211 403 1211 395 q 1206 534 1206 525 q 1204 566 1206 556 q 1194 689 1198 603 q 1186 778 1194 709 q 1174 850 1179 848 q 1122 705 1141 736 q 1097 648 1110 686 q 1083 608 1084 610 q 1034 528 1046 552 q 1026 506 1031 522 q 1016 479 1021 491 q 1000 460 1010 468 q 985 437 991 451 q 974 402 980 424 q 961 364 968 380 q 935 295 951 342 q 905 213 918 248 q 885 171 892 179 q 874 152 880 163 q 862 119 869 140 q 848 86 854 98 q 840 64 843 74 q 835 51 836 54 q 829 41 833 47 q 815 21 825 34 q 737 -11 793 -11 q 671 16 688 -11 q 639 81 648 50 q 595 165 631 106 q 550 245 558 225 q 530 291 548 252 q 510 347 511 330 q 508 366 509 354 q 506 384 507 378 q 502 399 505 391 q 493 415 498 408 q 481 433 485 427 q 475 449 478 439 q 468 468 471 460 q 445 510 463 481 q 422 554 427 538 q 392 615 414 580 q 364 675 370 651 q 323 777 347 731 q 304 822 313 822 q 294 795 301 822 q 288 762 288 769 q 280 699 286 743 q 273 625 273 654 q 271 585 271 614 q 268 532 270 556 q 259 472 267 497 q 250 443 250 446 q 249 407 249 429 q 253 358 249 385 q 257 317 257 331 q 256 298 257 304 q 247 236 255 290 q 239 151 239 181 q 244 100 239 119 q 309 36 260 46 q 331 26 325 33 q 338 5 338 20 q 315 -7 338 -7 q 271 -5 309 -7 q 221 -3 233 -3 l 125 -3 q 60 14 62 -3 q 78 43 60 43 q 136 64 106 43 q 169 113 161 82 q 176 195 176 144 q 181 239 178 216 q 189 291 184 262 q 195 328 193 321 l 199 444 q 208 535 199 467 q 216 624 216 604 q 223 728 216 666 q 231 799 230 791 q 233 829 231 808 q 236 868 234 850 q 240 900 237 886 l 240 908 q 238 925 240 918 q 233 935 235 932 q 223 946 230 939 q 212 957 216 953 q 184 978 208 966 q 144 993 160 989 q 126 1000 132 995 q 119 1011 119 1006 q 139 1043 122 1043 l 155 1043 q 185 1044 163 1043 q 218 1044 208 1044 q 252 1042 238 1044 q 304 1039 270 1039 q 363 1041 327 1039 q 412 1043 399 1043 q 460 1032 454 1043 q 468 993 461 1030 q 476 953 475 956 q 496 904 480 926 q 515 875 513 881 q 574 736 538 837 q 603 675 578 724 q 629 607 628 627 q 645 570 629 594 q 664 541 661 547 q 672 515 665 537 q 686 477 680 493 q 697 454 692 460 q 729 398 707 443 q 750 338 750 353 q 763 309 750 329 q 778 282 775 289 q 789 246 782 262 q 803 222 797 230 q 811 215 808 215 q 819 224 814 215 q 831 253 823 233 q 846 286 840 273 q 871 317 852 299 q 892 355 891 335 q 932 461 892 378 q 974 568 945 488 q 975 572 975 570 q 977 575 976 574 q 1000 597 979 584 q 1022 632 1021 610 q 1050 730 1024 682 q 1063 751 1057 740 q 1073 770 1069 762 q 1083 794 1076 779 q 1095 822 1090 810 q 1128 918 1118 876 q 1134 943 1128 922 q 1143 977 1139 965 q 1154 1007 1147 989 q 1171 1033 1161 1024 q 1192 1043 1180 1042 z "},"N":{"ha":1367,"x_min":109,"x_max":1292,"o":"m 1146 810 q 1143 747 1146 793 q 1140 694 1140 701 q 1142 661 1140 682 q 1143 633 1143 640 q 1140 600 1143 621 q 1136 570 1136 580 q 1137 493 1136 526 q 1137 454 1137 460 q 1139 321 1137 391 q 1144 161 1141 250 q 1149 24 1147 71 q 1141 -8 1149 7 q 1116 -24 1133 -24 q 1092 -21 1103 -24 q 1076 -16 1082 -18 q 1061 -6 1071 -13 q 1047 3 1051 0 q 993 56 1031 13 q 940 118 954 99 q 908 149 929 133 q 875 180 886 165 q 805 262 855 204 q 734 349 755 321 q 665 427 713 376 q 606 498 617 478 q 591 525 597 513 q 577 545 584 536 q 568 557 571 553 q 557 569 564 562 q 549 578 551 576 q 529 604 545 583 q 499 643 514 624 q 472 675 484 662 l 390 766 q 356 800 380 778 q 321 835 332 822 q 322 776 321 816 q 323 714 323 736 l 323 574 q 326 511 323 536 q 329 465 329 486 q 320 443 329 458 q 311 414 311 427 q 318 389 311 401 q 325 361 325 377 q 328 314 325 349 q 332 268 332 279 q 334 224 332 243 q 339 193 336 205 q 350 158 342 182 q 393 92 366 113 q 464 62 420 70 q 485 59 477 60 q 498 48 492 57 q 505 25 505 40 q 497 9 505 14 q 473 5 490 5 q 451 6 467 5 q 425 7 435 7 q 396 6 415 7 q 368 5 377 5 q 310 11 334 5 q 272 17 286 17 q 237 12 258 17 q 204 7 216 7 q 173 2 195 6 q 140 -1 150 -1 q 119 3 127 -1 q 109 18 109 8 q 126 41 109 33 q 138 46 129 43 q 153 53 147 50 q 167 60 159 56 q 183 70 176 64 q 197 81 191 75 q 223 113 215 96 q 233 149 231 130 q 239 174 236 168 q 253 244 249 203 q 250 310 253 262 l 250 429 q 251 468 250 439 q 252 509 252 496 q 254 549 252 530 q 259 579 256 568 q 261 593 261 591 q 256 638 261 610 q 250 679 250 666 q 249 745 250 687 q 248 850 248 803 q 246 864 248 857 q 244 900 244 872 q 218 961 244 934 q 177 994 199 982 q 143 1011 155 1006 q 132 1021 132 1015 q 158 1047 132 1047 q 171 1046 164 1047 q 180 1046 178 1046 q 203 1047 189 1046 q 227 1048 218 1048 q 244 1047 239 1048 q 300 1053 269 1053 q 359 1050 320 1053 q 412 1047 397 1047 q 458 1006 425 1047 q 511 936 492 964 q 534 904 522 918 q 553 883 546 889 q 572 868 560 877 q 586 859 585 860 q 599 830 593 853 q 619 794 605 807 q 710 694 690 723 q 733 669 716 687 q 760 639 749 652 q 772 618 770 627 q 783 597 774 608 q 806 572 791 586 q 827 550 821 557 q 842 524 836 538 q 854 501 848 509 q 910 453 875 486 q 951 404 946 419 q 1004 340 964 379 q 1020 322 1009 335 q 1036 302 1030 309 q 1050 290 1042 296 q 1067 283 1059 283 q 1076 297 1076 283 q 1074 370 1076 319 q 1071 454 1071 421 q 1073 513 1071 475 q 1075 570 1075 551 q 1074 606 1075 590 q 1072 623 1072 622 q 1074 650 1072 631 q 1075 686 1075 669 q 1072 704 1074 694 q 1069 720 1070 713 q 1068 742 1069 726 q 1067 785 1067 758 q 1065 815 1067 803 q 1062 833 1063 827 q 1055 851 1060 839 q 1047 873 1050 863 q 1010 954 1030 926 q 977 984 997 973 q 939 994 958 994 q 917 996 925 994 q 900 1005 909 997 q 892 1028 892 1013 q 929 1048 892 1048 q 950 1048 935 1048 q 974 1047 965 1047 q 996 1048 982 1047 q 1014 1048 1009 1048 q 1087 1042 1061 1048 q 1125 1036 1113 1036 q 1162 1041 1139 1036 q 1194 1047 1185 1046 q 1226 1051 1205 1048 q 1257 1054 1247 1054 q 1292 1031 1292 1054 q 1286 1018 1292 1023 q 1272 1011 1281 1012 q 1230 997 1255 1010 q 1187 965 1205 983 q 1168 918 1175 952 q 1160 879 1161 883 q 1146 810 1146 845 z "},"O":{"ha":1390,"x_min":92,"x_max":1299,"o":"m 730 53 q 766 61 742 54 q 799 69 791 69 q 838 78 818 69 q 887 107 859 87 q 920 129 915 126 q 939 149 928 135 q 963 185 949 163 q 990 222 978 207 q 1035 311 1017 256 q 1053 415 1053 366 q 1060 454 1053 423 q 1068 500 1068 484 l 1068 570 q 1064 661 1068 646 q 1055 702 1062 669 q 1044 750 1048 735 q 1028 794 1039 766 q 999 847 1017 822 q 956 897 981 871 q 852 972 904 949 q 737 994 800 994 q 712 995 728 994 q 689 996 697 996 q 650 993 665 996 q 621 982 640 991 q 591 972 601 972 q 555 963 573 972 q 516 936 537 953 q 485 913 495 919 q 400 821 467 902 q 356 731 374 787 q 338 627 338 675 q 330 589 338 619 q 322 542 322 559 q 326 474 322 519 q 335 410 330 429 q 350 353 343 376 q 369 299 357 331 q 399 237 381 267 q 441 182 417 208 q 569 91 491 130 q 710 52 647 52 q 730 53 724 52 m 688 -21 l 681 -21 q 507 -2 584 -18 q 397 29 431 13 q 326 67 350 51 q 283 93 302 84 q 225 139 256 106 q 174 204 193 172 q 145 257 157 231 q 129 300 134 284 q 116 347 124 315 q 103 392 107 378 q 92 493 92 429 q 110 627 92 598 q 131 693 119 642 q 153 758 142 744 q 205 835 191 816 q 244 878 220 854 q 317 921 290 921 q 330 925 326 921 q 336 938 334 928 q 340 950 338 947 q 428 1007 353 979 q 450 1015 434 1009 q 472 1023 465 1021 q 491 1030 478 1025 q 511 1037 503 1035 q 530 1042 519 1039 q 551 1046 541 1044 q 571 1048 561 1048 q 633 1056 587 1050 q 703 1063 679 1063 q 880 1045 802 1061 q 993 1014 957 1030 q 1064 975 1040 991 q 1107 949 1088 958 q 1165 903 1134 936 q 1217 838 1197 870 q 1245 785 1233 811 q 1261 742 1257 758 q 1275 696 1266 726 q 1287 652 1283 666 q 1299 550 1299 613 q 1280 415 1299 444 q 1260 349 1272 400 q 1238 283 1248 298 q 1185 207 1200 226 q 1146 165 1171 188 q 1074 121 1101 121 q 1060 117 1064 121 q 1054 104 1056 113 q 1050 92 1052 95 q 962 35 1038 63 q 941 26 956 33 q 919 18 925 20 q 900 12 912 16 q 879 5 887 7 q 860 0 871 3 q 839 -4 849 -3 q 819 -7 829 -6 q 757 -15 803 -8 q 688 -21 711 -21 z "},"P":{"ha":1126,"x_min":122,"x_max":1053,"o":"m 956 522 q 896 487 936 502 q 838 461 855 472 q 789 441 817 448 q 721 428 761 433 q 668 419 680 422 q 575 413 645 414 q 488 408 505 412 q 478 407 485 407 q 468 408 475 407 q 457 408 460 408 q 436 387 436 408 q 437 373 436 385 q 437 350 437 361 q 435 286 437 330 q 432 215 432 242 q 433 171 432 195 l 433 146 q 448 92 433 117 q 478 58 462 66 q 498 53 484 56 q 521 44 513 50 q 529 25 529 38 q 516 0 529 6 q 478 -7 503 -7 q 435 -2 463 -7 q 397 3 408 3 q 373 5 389 3 q 346 7 357 7 q 319 3 340 7 q 290 0 298 0 q 221 -1 281 0 q 151 -3 161 -3 q 125 20 125 -3 q 136 39 125 32 q 157 46 147 46 q 229 98 205 46 q 244 215 244 132 q 242 245 244 229 q 240 273 240 260 q 244 335 240 291 q 243 362 244 343 q 241 386 241 380 q 242 412 241 393 q 243 443 243 430 q 241 484 243 468 q 246 504 241 491 q 250 525 250 516 q 247 551 250 534 q 243 579 243 568 q 245 608 243 589 q 248 636 248 627 q 244 659 248 645 q 242 678 244 659 q 236 711 240 696 q 240 737 236 720 q 244 760 244 754 q 241 797 244 768 q 237 835 237 826 q 233 907 237 886 q 214 961 229 929 q 186 994 203 983 q 135 1004 170 1004 q 126 1010 130 1004 q 122 1022 122 1015 q 127 1039 122 1031 q 166 1046 130 1044 q 297 1047 203 1047 q 352 1044 302 1047 q 404 1040 403 1040 q 442 1041 407 1040 q 485 1042 477 1042 q 566 1044 492 1042 q 671 1047 640 1047 q 852 1029 802 1047 q 883 1017 870 1023 q 907 1005 896 1011 q 924 996 918 998 q 952 981 940 989 q 973 967 965 973 q 989 949 981 961 q 1002 929 998 937 q 1016 904 1006 922 q 1031 875 1025 885 q 1045 820 1037 865 q 1053 750 1053 776 q 1031 640 1053 701 q 956 522 1010 579 m 783 561 q 831 658 810 586 q 852 778 852 730 q 847 830 852 809 q 829 886 842 852 q 798 933 820 912 q 751 960 775 955 q 736 967 749 960 q 703 980 724 975 q 652 986 682 986 q 629 989 646 986 q 604 991 612 991 q 572 987 595 991 q 538 983 549 983 q 472 975 490 983 q 443 930 454 966 q 437 851 437 917 q 437 844 437 850 q 438 821 437 837 q 438 780 438 805 q 439 708 439 755 q 439 603 439 662 q 438 579 439 597 q 437 551 437 561 q 449 496 437 507 q 477 487 455 490 q 517 484 500 484 q 541 485 522 485 q 588 486 560 486 q 636 489 616 487 q 717 513 684 496 q 783 561 750 530 z "},"Q":{"ha":1390,"x_min":92,"x_max":1299,"o":"m 425 -72 q 444 -56 435 -62 q 468 -43 452 -50 q 496 -29 484 -36 q 528 -17 503 -24 q 562 -8 553 -9 q 397 29 442 9 q 326 67 350 51 q 283 93 302 84 q 225 139 256 106 q 174 204 193 172 q 145 257 157 231 q 129 300 134 284 q 116 347 124 315 q 103 392 107 378 q 92 493 92 429 q 110 627 92 598 q 131 693 119 642 q 153 758 142 744 q 205 835 191 816 q 244 878 220 854 q 317 921 290 921 q 330 925 326 921 q 336 938 334 928 q 340 950 338 947 q 428 1007 353 979 q 465 1021 441 1012 q 502 1036 489 1031 q 535 1046 515 1041 q 571 1053 554 1051 q 633 1060 585 1053 q 710 1067 682 1067 q 876 1048 797 1066 q 993 1014 955 1031 q 1064 975 1040 991 q 1107 949 1088 958 q 1165 903 1134 936 q 1217 838 1197 870 q 1245 785 1233 811 q 1261 742 1257 758 q 1275 696 1266 726 q 1287 652 1283 666 q 1299 550 1299 613 q 1280 415 1299 444 q 1260 349 1272 400 q 1238 283 1248 298 q 1185 207 1200 226 q 1146 165 1171 188 q 1074 121 1101 121 q 1060 117 1064 121 q 1054 104 1056 113 q 1050 92 1052 95 q 962 35 1038 63 q 821 1 882 5 q 801 -1 814 1 q 772 -8 788 -4 q 753 -12 756 -12 q 826 -40 785 -18 q 871 -64 867 -62 q 908 -85 895 -74 q 932 -98 921 -97 q 968 -110 942 -100 q 1013 -123 994 -121 q 1044 -132 1023 -125 q 1086 -143 1065 -139 q 1132 -147 1107 -147 q 1187 -139 1162 -147 q 1226 -123 1212 -132 q 1243 -115 1240 -115 q 1255 -123 1250 -115 q 1260 -140 1260 -130 q 1249 -165 1260 -154 q 1226 -194 1244 -170 q 1183 -241 1208 -219 q 1121 -281 1158 -264 q 1015 -306 1067 -306 q 940 -293 983 -306 q 868 -248 913 -286 q 818 -207 823 -210 q 762 -151 798 -194 q 717 -100 726 -107 q 692 -75 713 -97 q 652 -42 670 -53 q 616 -32 635 -32 q 562 -126 562 -32 q 537 -192 562 -159 q 473 -224 511 -224 q 414 -202 441 -224 q 386 -149 386 -180 q 425 -72 386 -109 m 710 52 q 762 60 736 52 q 799 69 787 68 q 835 79 817 69 q 874 106 853 89 q 905 129 895 123 q 990 222 928 144 q 1035 311 1017 256 q 1053 415 1053 366 q 1060 454 1053 423 q 1068 500 1068 484 q 1063 659 1068 547 q 928 925 1057 821 q 737 999 836 999 q 712 1000 728 999 q 689 1000 697 1000 q 650 997 669 1000 q 621 986 640 995 q 591 977 601 977 q 555 967 573 977 q 516 940 537 957 q 485 917 495 923 q 467 901 478 913 q 448 879 456 890 q 423 849 439 869 q 400 821 408 830 q 356 731 374 787 q 338 627 338 675 q 330 589 338 619 q 322 542 322 559 q 326 475 322 520 q 334 410 330 430 q 352 341 344 368 q 373 278 359 314 q 406 215 387 243 q 450 167 425 188 q 493 133 476 146 q 541 104 510 121 q 607 75 572 87 q 710 52 673 52 z "},"R":{"ha":1226,"x_min":122,"x_max":1185,"o":"m 964 581 q 859 509 927 548 q 705 464 817 482 q 782 415 725 456 q 813 386 800 401 q 844 350 827 371 q 872 317 861 330 q 900 279 888 299 q 925 237 913 259 q 943 205 937 215 q 1042 111 970 166 q 1105 71 1073 88 q 1154 53 1138 53 q 1185 24 1185 53 q 1146 1 1185 8 q 1061 -7 1108 -7 q 917 5 975 -7 q 847 35 882 14 q 794 87 812 56 q 756 145 780 114 q 726 187 733 176 q 712 215 720 198 q 699 240 705 232 q 686 252 694 249 q 672 276 680 254 q 650 332 664 298 q 618 389 636 366 q 555 437 585 431 q 525 439 544 439 q 501 440 506 439 q 451 434 467 440 q 435 407 435 427 l 435 385 q 436 345 436 363 q 435 293 436 311 q 432 215 432 245 q 433 171 432 195 l 433 146 q 448 92 433 117 q 478 58 462 66 q 498 53 484 56 q 521 44 513 50 q 529 25 529 38 q 516 0 529 6 q 478 -7 503 -7 q 435 -2 463 -7 q 397 3 408 3 q 366 5 389 3 q 332 7 342 7 q 306 3 326 7 q 277 0 285 0 q 214 -1 267 0 q 151 -3 161 -3 q 125 20 125 -3 q 136 39 125 32 q 157 46 147 46 q 198 59 178 46 q 229 98 218 73 q 244 215 244 136 q 242 245 244 229 q 240 273 240 260 q 244 335 240 291 q 243 362 244 343 q 241 386 241 380 q 242 412 241 393 q 243 443 243 430 q 241 484 243 468 q 246 504 241 491 q 250 525 250 516 q 247 551 250 534 q 243 579 243 568 q 245 608 243 589 q 248 636 248 627 q 244 659 248 645 q 242 678 244 659 q 236 711 240 696 q 240 737 236 720 q 244 760 244 754 q 241 797 244 768 q 237 835 237 826 q 233 907 237 886 q 214 961 229 929 q 186 994 203 983 q 135 1004 170 1004 q 126 1010 130 1004 q 122 1022 122 1015 q 127 1039 122 1031 q 218 1047 132 1047 l 283 1047 q 346 1044 288 1047 q 404 1040 403 1040 q 541 1043 451 1040 q 671 1047 630 1046 q 838 1029 787 1047 q 908 1004 905 1006 q 976 961 954 985 q 1028 882 998 937 q 1044 829 1035 871 q 1053 764 1053 788 q 964 581 1053 663 m 765 591 q 820 678 795 620 q 846 778 846 736 q 841 829 846 808 q 822 886 836 850 q 792 934 812 913 q 750 960 772 955 q 735 967 746 960 q 704 980 724 975 q 652 986 683 986 q 629 989 646 986 q 604 991 612 991 q 570 987 597 991 q 522 983 543 983 q 470 975 486 983 q 443 930 454 966 q 437 851 437 917 q 437 844 437 850 q 438 821 437 837 q 438 780 438 805 q 439 708 439 755 q 439 603 439 662 q 438 581 439 596 q 437 558 437 566 q 449 511 437 523 q 467 507 455 507 q 517 514 471 507 q 542 518 522 517 q 591 522 561 520 q 639 526 621 524 q 708 546 681 531 q 765 591 734 561 z "},"S":{"ha":968,"x_min":92,"x_max":890,"o":"m 485 1011 q 345 970 414 1011 q 308 935 319 955 q 292 879 296 915 q 289 850 289 860 q 310 791 289 824 q 353 745 331 758 q 404 719 364 738 q 460 689 444 700 q 502 665 488 671 q 533 659 515 659 q 587 640 557 658 q 627 619 618 622 q 694 583 649 613 q 755 546 739 553 q 842 466 793 528 q 890 361 890 404 l 890 290 q 886 250 890 271 q 875 207 882 229 q 867 180 868 184 q 828 116 849 140 q 772 64 808 93 q 713 34 751 48 q 661 20 676 20 q 621 18 631 20 q 604 8 611 16 q 579 -5 596 -1 q 537 -11 562 -9 q 503 -14 511 -12 q 473 -16 492 -16 q 366 -3 428 -16 q 272 32 338 3 q 170 61 205 61 q 146 61 153 61 q 130 63 139 62 q 117 69 121 65 q 110 80 113 73 q 106 98 106 87 q 111 153 106 113 q 115 221 115 193 q 110 285 115 248 q 104 328 104 321 q 132 367 104 367 q 155 349 151 367 q 165 319 159 340 q 180 275 172 298 q 199 229 188 253 q 219 193 208 209 q 238 170 231 178 q 259 151 245 163 q 279 134 273 140 q 383 79 308 100 q 494 56 468 56 q 525 58 505 56 q 557 61 545 61 q 590 64 566 61 q 619 71 614 68 q 643 84 625 74 q 670 101 661 94 q 688 121 678 109 q 712 154 705 143 q 725 184 719 165 q 732 228 732 204 q 593 401 732 335 q 559 426 578 409 q 518 455 541 442 q 463 473 496 468 q 383 505 425 479 q 315 533 341 530 q 217 576 278 538 q 143 639 157 615 q 133 655 142 640 q 121 675 124 669 q 111 695 118 680 q 101 721 104 711 q 95 748 98 732 q 92 779 92 764 q 101 841 92 810 q 121 888 111 871 q 146 925 132 905 q 161 946 161 945 q 225 1000 180 973 q 292 1034 270 1027 q 471 1065 403 1065 q 518 1063 480 1065 q 564 1061 555 1061 q 634 1045 588 1061 q 705 1029 680 1029 q 737 1037 710 1029 q 772 1044 764 1044 q 803 1003 803 1042 q 802 981 803 996 q 802 958 802 966 q 810 875 802 921 q 821 835 812 863 q 829 789 829 808 q 806 766 829 766 q 791 769 798 766 q 781 777 785 771 q 774 786 777 782 q 769 799 772 789 q 764 811 765 808 q 744 842 759 820 q 722 878 729 865 q 664 936 709 905 q 579 987 593 986 q 534 1000 563 988 q 485 1011 505 1011 z "},"T":{"ha":1097,"x_min":66,"x_max":1031,"o":"m 725 1050 l 844 1050 q 890 1052 860 1050 q 928 1054 920 1054 q 990 1017 990 1054 q 1010 885 990 982 q 1031 774 1031 787 q 1026 748 1031 755 q 1008 741 1022 741 q 986 754 998 741 q 957 796 975 767 q 832 922 925 848 q 773 958 806 943 q 718 974 740 972 q 684 956 699 974 q 667 928 669 938 q 665 907 666 924 q 664 863 665 890 q 661 818 663 836 q 663 784 661 808 q 665 745 665 760 q 660 728 665 740 q 654 705 654 715 q 664 615 664 667 q 661 585 664 603 q 659 561 659 566 q 664 524 659 551 q 669 484 669 498 q 662 427 669 459 q 654 383 654 394 q 660 342 654 372 q 665 275 665 313 q 669 77 665 113 q 704 43 673 51 q 735 36 714 39 q 762 31 757 33 q 766 20 766 26 q 762 3 766 11 q 729 -7 758 0 q 699 -8 724 -8 q 655 -7 683 -8 q 621 -7 627 -7 q 603 -6 620 -7 q 552 -5 587 -5 q 473 -4 517 -4 q 445 -5 473 -4 q 400 -7 418 -7 q 366 -3 370 -7 q 361 14 361 2 q 366 29 361 24 q 406 35 370 31 q 443 57 427 36 q 463 113 456 71 q 467 245 467 155 q 465 361 467 275 q 463 505 463 448 q 469 535 463 519 q 475 555 475 551 q 471 571 474 559 q 467 589 468 583 q 464 613 466 595 q 461 656 462 631 q 459 724 460 680 q 457 789 457 768 q 455 887 457 838 q 453 939 453 937 q 454 947 454 941 q 380 974 454 974 q 326 959 359 974 q 265 924 294 945 q 140 796 170 843 q 89 741 109 741 q 71 748 75 741 q 66 774 66 755 q 87 872 66 782 q 107 1017 107 962 q 170 1054 107 1054 q 208 1052 178 1054 q 253 1050 237 1050 q 326 1048 311 1050 q 363 1047 341 1047 q 401 1050 366 1050 q 429 1049 414 1050 q 456 1049 445 1049 q 469 1048 468 1048 l 606 1048 l 611 1048 q 653 1050 618 1048 q 705 1051 689 1051 q 717 1050 710 1051 q 725 1050 724 1050 z "},"U":{"ha":1267,"x_min":83,"x_max":1240,"o":"m 1088 454 q 1086 376 1088 406 q 1080 305 1085 347 q 1062 227 1075 263 q 1028 155 1049 190 q 1009 127 1021 143 q 978 91 997 112 q 956 65 960 70 q 944 52 950 58 q 927 41 937 46 q 912 34 916 36 q 892 26 907 32 q 873 20 876 21 q 844 8 865 16 q 809 -5 824 -1 q 775 -14 793 -10 q 741 -20 763 -16 q 698 -28 718 -25 q 659 -31 678 -31 q 579 -22 627 -31 q 518 -12 531 -13 q 431 5 486 -10 q 358 32 376 20 q 312 62 330 50 q 275 96 294 75 q 250 138 256 117 q 224 183 249 143 q 199 245 199 224 q 189 297 198 262 q 180 351 180 332 q 182 405 180 370 q 184 456 184 439 q 179 543 179 477 q 184 575 179 557 q 189 607 189 592 q 183 664 189 629 q 178 715 178 699 q 178 725 178 718 q 178 743 178 732 q 179 785 178 753 q 179 863 179 817 q 180 888 179 869 q 182 918 182 907 q 160 981 182 962 q 151 989 158 982 q 136 1000 143 996 q 125 1004 130 1004 q 90 1008 98 1004 q 83 1025 83 1010 q 93 1047 83 1038 q 132 1050 96 1050 q 163 1049 140 1050 q 232 1049 186 1049 q 343 1048 278 1048 q 384 1050 355 1048 q 429 1051 412 1051 q 442 1050 433 1051 q 458 1048 452 1048 q 468 1050 462 1048 q 482 1051 473 1051 q 489 1046 486 1051 q 492 1035 492 1041 q 481 1014 492 1018 q 465 1008 479 1013 q 439 997 451 1002 q 419 985 427 991 q 398 946 408 977 q 389 892 389 916 q 389 873 389 886 q 390 856 390 861 q 385 832 390 848 q 379 794 379 816 q 380 724 379 769 q 382 659 382 679 q 380 619 382 636 q 381 558 380 589 q 382 521 382 528 q 379 457 382 497 q 386 339 379 395 q 418 249 388 292 q 456 187 448 208 q 525 113 463 158 q 588 82 541 101 q 646 54 635 62 q 675 45 655 45 q 692 47 683 45 q 711 53 701 50 q 726 58 722 57 q 765 59 752 58 q 797 64 779 60 q 828 78 815 68 q 878 102 839 86 q 928 135 918 119 q 982 236 950 170 q 1009 340 998 268 q 1021 454 1021 412 q 1022 513 1021 475 q 1023 570 1023 551 q 1023 606 1023 590 q 1022 623 1022 622 q 1023 650 1022 631 q 1023 686 1023 669 q 1020 711 1023 699 q 1017 730 1017 722 q 1016 758 1017 741 q 1015 785 1015 775 q 1016 818 1015 800 q 1017 842 1017 836 q 1010 885 1017 862 q 1003 905 1006 896 q 994 922 999 913 q 986 935 989 930 q 976 950 983 940 q 966 965 969 960 q 934 986 955 981 q 880 991 913 991 q 842 1028 842 991 q 878 1048 842 1048 l 903 1048 q 966 1047 930 1047 q 1036 1042 1010 1047 q 1075 1036 1061 1036 q 1112 1041 1089 1036 q 1145 1047 1135 1046 q 1177 1051 1156 1048 q 1207 1054 1198 1054 q 1240 1031 1240 1054 q 1235 1017 1240 1023 q 1222 1011 1230 1011 q 1180 996 1207 1011 q 1136 962 1154 980 q 1116 914 1122 949 q 1109 879 1109 880 q 1095 810 1095 842 q 1093 747 1095 793 q 1090 694 1090 701 q 1091 661 1090 682 q 1092 633 1092 640 q 1089 600 1092 621 q 1086 570 1086 580 q 1087 493 1086 526 q 1088 454 1088 460 z "},"V":{"ha":1352,"x_min":64,"x_max":1292,"o":"m 903 1007 q 882 1014 890 1007 q 875 1029 875 1020 q 885 1043 875 1040 q 920 1047 895 1047 q 957 1045 922 1047 q 1034 1041 992 1043 q 1093 1039 1075 1039 q 1177 1045 1111 1039 q 1254 1051 1242 1051 q 1292 1029 1291 1051 q 1263 1007 1292 1007 q 1229 1001 1253 1007 q 1196 986 1206 994 q 1184 978 1192 983 q 1174 970 1177 972 q 1164 960 1170 967 q 1154 943 1159 953 q 1134 918 1151 935 q 1101 869 1116 900 q 1076 820 1095 855 q 1047 766 1057 784 q 1018 706 1033 740 q 994 654 1004 673 q 974 625 985 635 q 957 591 960 613 q 943 553 953 568 q 917 493 935 537 q 886 428 899 449 q 839 329 843 356 q 811 260 833 308 q 777 191 789 212 q 760 145 770 180 q 739 98 751 111 q 721 58 731 88 q 699 6 711 28 q 669 -16 687 -16 q 622 -7 647 -16 q 589 22 597 2 q 559 80 583 37 q 526 143 535 123 q 504 186 522 154 q 482 239 486 219 q 463 286 479 258 q 443 328 448 313 q 436 350 441 333 q 428 374 431 368 q 418 393 425 381 q 401 415 412 405 q 381 441 389 428 q 369 477 374 455 q 363 501 363 500 q 357 523 359 511 q 351 543 355 534 q 340 562 348 551 q 301 648 308 625 q 292 679 296 661 q 282 709 288 696 q 267 737 277 722 q 229 801 248 764 q 205 861 210 838 q 164 954 199 903 q 160 961 163 955 q 153 970 156 966 q 145 979 151 974 q 132 989 140 985 q 114 996 123 993 q 74 1009 85 1003 q 64 1026 64 1015 q 69 1043 64 1037 q 90 1048 74 1048 q 107 1049 99 1048 q 117 1050 115 1050 q 129 1048 123 1050 q 288 1039 138 1046 q 362 1044 304 1039 q 428 1048 420 1048 q 494 1031 494 1048 q 471 1004 494 1004 q 447 992 463 1004 q 425 965 431 981 q 424 953 424 962 q 430 911 424 932 q 436 885 435 890 q 453 829 437 869 q 469 766 468 789 q 498 693 475 705 q 558 554 508 690 q 575 522 562 543 q 591 484 587 500 q 618 422 595 465 q 642 354 642 380 q 659 320 642 340 q 676 293 676 300 q 692 255 676 285 q 715 225 708 225 q 800 411 720 225 q 819 452 809 425 q 839 493 829 479 q 850 512 846 503 q 857 526 855 521 q 861 542 859 531 q 865 557 864 552 q 907 656 879 598 q 945 742 935 715 q 957 794 949 754 q 974 864 964 834 q 977 945 977 875 q 949 988 977 968 q 903 1007 922 1007 z "},"W":{"ha":1898,"x_min":60,"x_max":1838,"o":"m 1356 98 q 1338 58 1350 90 q 1313 5 1326 26 q 1280 -16 1299 -16 q 1219 -6 1254 -16 q 1178 22 1185 3 q 1152 78 1173 34 q 1122 143 1130 121 q 1101 188 1118 157 q 1083 239 1085 219 q 1067 287 1081 258 q 1050 328 1053 315 q 1047 343 1049 332 q 1043 359 1044 355 q 1040 373 1042 363 q 1034 388 1037 382 q 1026 402 1031 394 q 1014 416 1021 410 q 998 438 1004 426 q 990 459 992 450 q 985 482 987 468 q 981 501 982 496 q 977 522 979 510 q 972 543 975 534 q 964 562 970 551 q 929 648 937 614 q 924 684 924 661 q 913 715 924 696 q 905 694 911 713 q 891 655 899 675 q 872 625 882 635 q 855 591 860 613 q 842 553 850 568 q 817 493 833 537 q 789 428 801 450 q 747 329 750 357 q 723 261 743 309 q 692 191 703 213 q 663 137 681 177 q 639 85 646 96 q 619 45 626 58 q 600 16 612 33 q 576 -8 589 -1 q 550 -16 564 -16 q 510 -7 530 -16 q 484 22 491 2 q 460 78 479 35 q 433 143 440 121 q 414 188 429 157 q 397 239 399 219 q 393 268 396 254 q 384 299 389 282 q 375 328 378 316 q 372 346 374 333 q 368 366 370 359 q 363 381 366 372 q 355 400 360 391 q 342 416 349 408 q 325 443 330 429 q 316 476 319 456 q 311 501 313 496 q 308 522 309 510 q 304 543 307 534 q 297 562 302 551 q 265 648 275 605 q 256 689 261 661 q 240 737 252 718 q 209 799 224 762 q 189 861 193 836 q 184 887 189 873 q 178 909 180 902 q 165 935 175 916 l 157 954 q 123 987 148 973 q 79 1009 98 1000 q 60 1026 60 1018 q 67 1042 60 1036 q 89 1048 75 1048 q 111 1049 99 1048 q 127 1050 123 1050 q 164 1045 133 1050 q 264 1039 195 1040 q 361 1044 286 1039 q 444 1048 437 1048 q 507 1031 507 1048 q 482 1004 507 1004 q 454 993 472 1004 q 421 957 437 982 q 415 926 415 947 q 419 885 415 909 q 430 824 419 862 q 441 766 441 786 q 463 693 441 704 q 487 632 470 690 q 507 554 505 574 q 522 523 510 545 q 534 484 533 501 q 555 426 537 466 q 572 361 572 386 q 578 334 572 346 q 591 312 584 321 q 600 296 598 302 q 603 284 601 294 q 608 266 606 274 q 614 248 611 257 q 622 232 618 238 q 631 225 627 226 q 650 272 631 225 q 671 326 668 318 q 705 411 674 338 q 721 451 711 423 q 741 493 730 478 q 752 511 747 503 q 758 526 756 520 q 761 542 759 532 q 764 557 762 551 q 801 656 776 598 q 835 742 826 714 q 852 792 843 769 q 872 837 861 814 q 888 872 883 859 q 936 981 907 922 q 944 995 939 985 q 951 1009 949 1005 q 958 1020 954 1013 q 967 1030 963 1027 q 976 1035 970 1033 q 987 1038 981 1038 q 1034 986 1021 1038 q 1045 960 1036 977 q 1061 922 1054 942 q 1068 879 1068 901 q 1088 824 1068 861 q 1108 766 1107 787 q 1132 693 1108 705 q 1158 634 1140 690 q 1182 554 1177 578 q 1197 523 1185 545 q 1211 484 1210 500 q 1235 424 1215 465 q 1254 359 1254 383 q 1268 321 1254 342 q 1283 296 1282 300 q 1289 274 1284 293 q 1300 240 1294 254 q 1314 225 1306 227 q 1341 273 1315 225 q 1369 326 1367 320 q 1384 369 1372 338 q 1400 411 1396 401 q 1415 453 1407 426 q 1430 493 1422 479 q 1439 507 1436 500 q 1445 521 1442 513 q 1448 532 1447 529 q 1451 545 1449 534 q 1453 557 1452 555 q 1485 654 1463 596 q 1514 742 1506 712 q 1524 798 1518 755 q 1536 868 1529 840 q 1537 882 1537 872 q 1535 910 1537 889 q 1533 945 1533 931 q 1502 991 1533 976 q 1440 1007 1471 1007 q 1414 1032 1416 1007 q 1423 1044 1414 1041 q 1455 1047 1432 1047 q 1495 1045 1458 1047 q 1576 1041 1533 1043 q 1639 1039 1620 1039 q 1715 1045 1647 1040 q 1799 1051 1782 1051 q 1838 1029 1833 1051 q 1811 1007 1838 1007 q 1777 1001 1801 1007 q 1746 986 1754 994 q 1734 978 1742 983 q 1724 970 1727 972 q 1715 960 1721 967 q 1706 943 1710 954 q 1688 917 1703 935 q 1659 869 1672 900 q 1615 766 1655 854 q 1592 707 1604 741 q 1573 654 1581 673 q 1554 625 1565 635 q 1540 590 1542 613 q 1531 553 1538 568 q 1507 490 1521 534 q 1485 428 1493 446 q 1480 418 1483 425 q 1444 329 1449 353 q 1404 210 1441 306 q 1356 98 1368 115 z "},"X":{"ha":1330,"x_min":75,"x_max":1253,"o":"m 899 790 q 864 749 894 783 q 811 679 835 715 q 733 578 796 656 q 787 512 745 560 q 835 452 828 463 q 918 346 884 374 q 959 297 939 328 q 991 252 978 267 q 1072 158 1042 197 q 1178 65 1118 93 q 1229 45 1217 45 q 1247 41 1242 45 q 1253 24 1253 37 q 1243 7 1253 14 q 1219 0 1233 0 q 1162 1 1187 0 q 1132 3 1136 3 q 1091 -1 1127 3 q 1054 -4 1055 -4 q 1010 -3 1027 -4 q 977 2 1007 -3 q 940 7 946 7 q 815 -4 891 7 q 779 20 779 -4 q 804 39 781 39 q 838 55 824 39 q 852 93 852 71 q 843 140 852 121 q 825 165 834 153 q 810 184 815 176 q 798 208 804 193 q 766 249 791 224 q 736 281 741 275 q 722 297 734 283 q 700 323 709 311 q 690 343 690 336 q 675 365 687 351 q 645 399 663 378 q 619 428 627 420 q 547 339 571 377 q 505 275 530 309 q 472 228 480 241 q 450 199 467 220 q 420 157 433 177 q 403 118 408 137 q 398 97 401 112 q 395 75 395 81 q 399 61 395 67 q 419 41 406 50 q 441 29 431 33 q 453 24 452 25 q 463 -1 463 14 q 460 -8 463 -5 q 427 -13 458 -9 q 389 -16 397 -16 q 355 -13 385 -16 q 314 -11 326 -11 q 249 -16 276 -16 q 225 -14 233 -16 q 195 -11 217 -11 q 146 -14 178 -11 q 103 -17 114 -17 q 87 -16 92 -17 q 79 -7 83 -15 q 75 8 75 0 q 79 20 75 12 l 82 28 q 104 39 87 36 q 119 42 106 39 q 143 50 131 45 q 160 57 155 54 q 189 72 164 60 q 235 100 214 83 q 286 149 262 121 q 323 183 310 176 q 367 230 336 189 q 408 277 397 270 q 445 319 421 286 q 473 358 468 352 q 493 384 477 362 q 531 436 508 405 q 574 492 555 468 l 507 578 q 470 628 490 593 q 431 682 450 664 q 389 734 415 699 q 351 782 362 768 q 305 844 326 814 q 275 888 285 873 q 254 913 264 903 q 205 950 237 928 q 157 986 174 972 q 132 996 155 987 q 109 1014 109 1004 q 109 1028 109 1023 q 115 1038 110 1033 q 129 1043 120 1043 q 149 1044 138 1043 q 164 1044 160 1044 q 180 1042 170 1044 q 283 1045 212 1042 q 366 1048 354 1048 q 503 1043 482 1043 q 539 1019 539 1043 q 514 999 537 999 q 489 974 504 999 q 486 961 486 971 q 489 944 486 954 q 495 929 492 935 q 503 910 497 924 l 510 897 q 523 870 517 880 q 539 850 529 861 q 558 825 549 839 q 585 788 563 816 q 611 743 606 761 q 626 717 613 733 q 663 677 640 701 q 699 637 686 653 q 741 701 714 660 q 788 773 767 743 q 819 815 808 804 q 850 864 833 829 q 873 908 867 899 q 882 926 876 913 q 892 949 888 939 q 896 971 896 960 q 883 990 896 983 q 854 1001 870 996 q 833 1011 838 1005 q 831 1023 831 1014 q 833 1040 831 1032 q 840 1047 836 1047 q 873 1049 848 1047 q 905 1051 899 1051 q 934 1049 909 1051 q 970 1047 960 1047 q 1067 1050 996 1050 q 1117 1052 1078 1050 q 1174 1054 1156 1054 q 1206 1051 1192 1054 q 1214 1042 1211 1050 q 1218 1026 1218 1034 q 1213 1010 1218 1015 q 1191 1000 1208 1006 q 1162 991 1175 994 q 1121 978 1155 990 q 1082 960 1088 965 q 1024 917 1047 938 q 983 877 1000 897 q 957 850 966 858 q 899 790 917 822 z "},"Y":{"ha":1205,"x_min":89,"x_max":1145,"o":"m 575 693 q 601 659 586 684 q 628 616 616 635 q 643 597 640 597 q 652 601 648 597 q 659 607 656 604 q 668 620 662 611 q 679 635 675 629 l 755 750 q 786 807 766 766 q 818 871 806 848 q 825 884 819 873 q 834 902 831 895 q 841 918 837 908 q 848 938 846 928 q 850 956 850 947 q 833 993 850 980 q 796 1006 816 1006 q 772 1029 772 1006 q 806 1046 779 1046 q 813 1045 808 1046 q 822 1044 819 1044 q 857 1043 824 1044 q 929 1040 890 1042 q 989 1039 969 1039 q 1043 1042 1003 1039 q 1099 1044 1083 1044 q 1145 1026 1145 1044 q 1107 1000 1139 1000 q 1055 981 1082 1000 q 1013 945 1027 962 q 989 922 1008 940 q 945 873 969 904 q 914 831 939 865 q 868 770 890 796 q 808 688 837 732 q 766 628 779 644 q 707 484 707 548 q 699 427 707 459 q 692 383 692 394 q 697 342 692 372 q 703 275 703 313 l 703 157 q 707 77 703 113 q 742 43 709 52 q 773 36 752 39 q 799 31 793 33 q 804 20 804 27 q 799 3 804 14 q 765 -7 795 -1 q 734 -8 760 -8 q 692 -7 720 -8 q 659 -7 665 -7 q 644 -6 658 -7 q 599 -5 631 -5 q 524 -4 568 -4 q 495 -5 523 -4 q 450 -7 468 -7 q 416 -3 418 -7 q 411 14 411 1 q 416 29 411 26 q 456 35 419 31 q 494 57 473 36 q 508 83 503 65 q 513 113 513 102 q 517 224 517 123 q 515 337 517 290 q 513 386 513 384 l 513 444 q 509 473 513 454 q 505 501 505 491 q 496 531 505 517 q 477 553 487 544 q 468 566 468 562 q 403 648 420 619 q 385 679 395 660 q 366 710 375 697 q 342 737 357 722 q 286 800 315 763 q 245 861 257 837 q 178 954 230 899 q 168 965 175 957 q 155 980 161 973 q 142 989 149 986 q 129 993 141 989 q 110 1001 116 998 q 96 1011 103 1004 q 89 1026 89 1018 q 94 1042 89 1035 q 109 1048 99 1048 q 131 1049 114 1048 q 158 1050 148 1050 q 183 1048 176 1050 q 275 1039 220 1042 q 329 1044 289 1039 q 378 1048 369 1048 q 402 1048 394 1048 q 422 1043 410 1048 q 436 1031 433 1039 l 437 1021 q 421 1004 437 1004 q 407 992 414 1004 q 400 965 400 981 q 407 947 400 959 q 426 916 414 935 q 443 885 437 898 q 484 830 450 870 q 525 766 517 790 q 536 743 529 755 q 550 724 544 731 q 564 706 555 717 q 575 693 573 696 z "},"Z":{"ha":1076,"x_min":77,"x_max":987,"o":"m 364 81 q 509 69 370 69 l 526 69 q 555 74 540 69 q 582 78 570 78 q 609 77 589 78 q 642 75 629 75 q 707 85 675 75 q 732 93 715 87 q 759 102 749 99 q 782 111 768 106 q 805 124 795 117 q 825 140 816 132 q 883 201 850 163 q 928 267 916 239 q 965 317 952 317 q 981 307 975 317 q 987 277 987 297 q 970 173 987 262 q 953 47 953 83 q 941 13 953 22 q 908 3 930 3 q 855 5 891 3 q 790 9 819 7 q 760 11 761 11 q 724 9 750 11 q 679 7 698 7 q 635 8 658 8 q 525 9 625 8 q 411 9 425 9 q 267 3 292 9 q 203 -4 237 -4 q 173 -3 193 -4 q 142 -3 153 -3 q 122 -4 136 -3 q 102 -5 108 -5 q 77 17 77 -5 q 78 26 77 22 q 85 39 80 31 q 94 53 90 46 q 109 73 99 59 q 126 97 118 86 q 199 206 148 128 q 277 319 250 284 q 338 404 328 382 q 369 460 347 425 q 408 514 391 495 q 465 603 435 543 q 550 726 477 623 q 592 781 566 748 q 635 836 619 814 q 671 902 650 859 q 693 960 693 945 q 650 975 684 975 q 628 978 642 975 q 604 981 614 981 q 577 977 593 981 q 549 972 562 972 q 520 973 544 972 q 481 974 497 974 q 390 964 421 974 q 365 955 385 962 q 337 946 345 949 q 316 936 330 943 q 292 923 302 930 q 272 907 281 916 q 221 852 250 888 q 179 789 193 817 q 159 759 172 772 q 138 746 146 746 q 122 755 128 746 q 115 785 115 765 q 133 884 115 801 q 150 1003 150 967 q 161 1038 150 1028 q 195 1047 173 1047 q 250 1045 211 1047 q 322 1041 290 1043 q 357 1039 355 1039 q 392 1041 366 1039 q 437 1043 418 1043 q 496 1042 458 1042 q 525 1044 505 1042 q 557 1047 545 1047 l 747 1047 q 772 1040 751 1047 q 796 1034 792 1034 q 885 1043 827 1043 q 905 1044 892 1043 q 925 1044 919 1044 q 965 1019 965 1044 q 951 977 965 1004 q 925 932 937 949 q 904 904 913 916 q 817 781 872 869 q 797 749 814 777 q 768 704 781 722 q 739 660 756 686 q 704 616 721 635 q 673 586 688 597 q 647 541 659 575 q 618 489 635 506 q 579 437 600 471 q 547 393 559 404 q 517 340 530 376 q 494 292 505 304 q 468 267 486 280 q 447 244 450 254 q 430 219 441 230 q 415 197 419 208 q 400 173 414 195 q 374 127 386 151 q 363 89 363 104 q 364 81 363 83 z "},"[":{"ha":349,"x_min":43,"x_max":349,"o":"m 214 1074 q 196 1013 196 1072 q 199 936 196 977 q 201 878 201 895 q 198 807 201 877 q 195 700 195 737 q 197 657 195 671 q 199 636 199 650 q 195 566 199 606 q 191 494 191 526 q 192 422 191 490 q 193 342 193 353 q 192 302 193 330 q 191 262 191 275 q 192 241 191 254 q 193 225 193 229 q 190 185 193 213 q 186 142 186 157 q 190 83 186 129 q 195 24 195 38 q 194 3 195 20 q 193 -21 193 -14 q 198 -34 193 -31 q 222 -36 203 -36 q 266 -34 245 -36 q 289 -32 287 -32 q 321 -39 308 -32 q 334 -62 334 -47 q 311 -102 334 -95 q 191 -109 288 -109 q 43 -78 43 -109 q 47 -60 43 -73 q 52 -40 52 -47 q 47 8 52 -30 q 43 49 43 45 q 46 69 43 50 q 50 100 50 87 q 52 153 50 126 q 53 187 53 180 q 51 258 53 201 q 49 368 49 316 q 52 459 49 378 q 56 570 56 541 q 57 631 56 607 q 59 667 58 656 q 60 682 60 677 q 56 790 60 693 q 53 896 53 888 q 58 918 53 901 q 64 964 64 935 q 62 1032 64 985 q 60 1093 60 1078 q 98 1137 60 1120 q 170 1154 136 1154 q 238 1154 193 1154 q 310 1153 283 1153 q 349 1122 349 1153 q 346 1102 349 1115 q 343 1086 343 1089 q 320 1075 341 1080 q 282 1069 299 1070 q 257 1068 266 1068 q 233 1071 247 1068 q 214 1074 219 1074 z "},"\\":{"ha":682,"x_min":1,"x_max":633,"o":"m 191 981 q 222 901 199 964 q 245 835 245 837 q 258 815 247 831 q 271 794 270 800 q 298 726 279 779 q 307 704 301 715 q 322 676 313 692 q 336 652 332 661 q 352 613 343 635 q 367 579 361 592 q 378 551 372 566 q 389 526 385 535 q 397 506 393 517 q 405 489 402 495 q 411 477 408 483 q 417 467 414 471 q 421 461 419 463 q 431 444 427 455 q 439 418 435 433 q 446 396 443 404 q 461 377 448 387 q 479 355 475 368 q 504 304 491 323 q 518 278 508 298 q 534 250 528 259 q 564 178 549 223 q 603 106 574 142 q 622 66 610 98 q 633 28 633 34 q 603 1 633 20 q 551 -18 573 -18 q 493 8 526 -16 q 457 57 460 33 q 437 105 454 74 q 419 149 421 136 q 386 243 394 236 q 374 264 380 248 q 367 292 368 279 q 367 299 367 293 q 366 306 366 304 q 365 312 366 307 q 362 318 363 316 q 358 322 361 319 q 351 328 355 326 q 336 346 345 332 q 316 381 327 361 q 298 411 305 401 q 285 452 291 422 q 264 496 279 482 q 227 564 250 509 q 193 629 204 618 q 171 674 182 641 q 151 718 160 708 q 138 738 144 727 q 126 768 133 748 q 115 796 119 788 q 52 939 62 929 q 18 989 35 953 q 1 1038 1 1025 q 4 1050 1 1044 q 12 1061 7 1056 q 18 1068 17 1066 q 66 1085 24 1074 q 122 1096 107 1096 q 137 1093 130 1096 q 148 1086 144 1090 q 156 1075 152 1082 q 161 1063 159 1067 q 165 1049 162 1059 q 168 1038 168 1040 q 191 981 177 1005 z "},"]":{"ha":363,"x_min":16,"x_max":321,"o":"m 150 1074 q 131 1071 144 1074 q 107 1068 117 1068 q 82 1069 98 1068 q 44 1075 65 1070 q 21 1086 23 1080 q 18 1102 21 1089 q 16 1122 16 1115 q 54 1153 16 1153 q 126 1154 81 1153 q 195 1154 172 1154 q 267 1137 229 1154 q 304 1093 304 1120 q 302 1032 304 1078 q 300 964 300 985 q 306 918 300 935 q 311 896 311 901 q 308 790 311 888 q 304 682 304 693 q 306 667 304 677 q 308 631 307 656 q 309 570 309 607 q 312 459 309 541 q 315 368 315 378 q 313 258 315 316 q 311 187 311 201 q 313 153 311 180 q 314 100 314 126 q 317 69 314 87 q 321 49 321 50 q 317 8 321 45 q 313 -40 313 -30 q 317 -60 313 -47 q 321 -78 321 -73 q 174 -109 321 -109 q 54 -102 77 -109 q 31 -62 31 -95 q 43 -39 31 -47 q 75 -32 56 -32 q 98 -34 77 -32 q 142 -36 119 -36 q 166 -34 161 -36 q 171 -21 171 -31 q 170 3 171 -14 q 170 24 170 20 q 174 83 170 38 q 178 142 178 129 q 174 185 178 157 q 171 225 171 213 q 172 241 171 229 q 174 262 174 254 q 172 302 174 275 q 171 342 171 330 q 172 422 171 353 q 174 494 174 490 q 170 566 174 526 q 165 636 165 606 q 167 657 165 650 q 170 700 170 671 q 166 807 170 737 q 163 878 163 877 q 165 936 163 895 q 168 1013 168 977 q 150 1074 168 1072 z "},"^":{"ha":770,"x_min":56,"x_max":718,"o":"m 376 939 q 367 925 375 937 q 351 900 359 912 q 332 874 342 888 q 312 849 321 861 q 296 832 302 838 q 274 809 279 818 q 267 783 269 800 q 245 749 264 771 q 222 720 227 728 q 212 688 221 716 q 196 653 203 661 q 183 636 193 650 q 163 611 173 622 q 147 597 154 600 q 118 590 137 590 q 94 600 110 590 q 68 618 77 610 q 56 648 56 628 q 71 694 56 677 q 87 723 77 701 q 102 747 97 745 q 121 762 109 748 q 142 791 133 777 q 153 809 146 799 q 172 839 161 819 q 193 876 180 852 q 214 909 206 900 q 238 951 220 917 q 267 993 257 986 q 309 1048 298 1018 q 336 1088 315 1069 q 378 1108 357 1108 q 415 1098 398 1108 q 437 1074 431 1088 q 476 1007 461 1019 q 499 978 487 998 q 517 953 511 958 q 539 909 524 946 q 558 869 555 873 q 600 814 576 852 q 621 789 606 804 q 642 765 636 774 q 684 697 663 718 q 718 639 718 667 q 691 602 718 620 q 646 583 664 583 q 597 625 629 583 q 580 647 597 631 q 559 668 562 663 q 560 673 559 670 q 561 676 561 675 q 555 695 561 685 q 545 708 549 706 q 509 755 523 730 q 492 772 504 762 q 476 793 480 782 q 471 807 474 798 q 467 821 469 817 q 459 836 465 826 q 446 857 454 846 q 429 881 441 864 q 412 907 418 899 q 396 925 406 915 q 376 939 386 935 z "},"_":{"ha":1122,"x_min":56,"x_max":1061,"o":"m 150 -26 l 155 -26 q 207 -22 170 -26 q 253 -18 244 -18 q 279 -20 258 -20 q 347 -25 296 -25 q 406 -24 372 -24 q 459 -24 440 -24 q 485 -22 478 -24 q 500 -20 489 -20 q 516 -22 511 -20 q 526 -25 522 -25 q 541 -24 530 -25 q 555 -22 551 -22 q 660 -26 636 -22 q 694 -31 684 -31 q 730 -29 707 -31 q 762 -28 753 -28 q 791 -31 785 -28 q 914 -20 840 -31 q 950 -18 921 -18 q 1036 -31 1016 -18 q 1054 -57 1047 -39 q 1061 -90 1061 -75 q 1041 -110 1059 -102 q 1002 -117 1023 -117 l 904 -117 q 847 -119 864 -117 q 800 -115 833 -119 q 754 -111 767 -111 q 688 -114 736 -111 q 627 -117 639 -117 q 579 -120 612 -117 q 543 -123 547 -123 q 523 -121 540 -123 q 497 -119 506 -119 q 479 -123 488 -119 q 452 -126 469 -126 q 419 -125 440 -126 q 393 -123 398 -123 l 261 -123 q 218 -119 224 -123 q 208 -118 217 -118 q 174 -123 195 -118 q 146 -127 154 -127 q 131 -126 141 -127 q 113 -123 120 -124 q 66 -106 78 -121 q 59 -84 62 -100 q 56 -58 56 -68 q 69 -31 56 -42 q 100 -20 82 -20 q 126 -23 109 -20 q 150 -26 143 -26 z "},"`":{"ha":379,"x_min":45,"x_max":330,"o":"m 50 956 q 45 978 45 964 q 52 1006 45 993 q 68 1023 60 1020 q 89 1037 75 1030 q 113 1044 104 1044 q 115 1043 113 1044 q 118 1042 117 1042 q 146 1028 132 1038 q 168 1007 161 1019 q 213 959 172 1002 q 261 907 255 916 q 281 887 264 901 q 313 858 298 873 q 329 831 328 843 q 330 814 330 823 q 302 778 330 779 q 292 775 300 775 q 267 782 280 775 q 250 789 254 788 q 228 802 243 791 q 197 821 213 813 q 172 846 186 827 q 144 867 158 864 q 91 905 123 876 q 50 956 58 933 z "},"a":{"ha":1093,"x_min":40,"x_max":1057,"o":"m 625 808 q 665 720 649 769 q 722 606 698 637 q 755 529 736 582 q 765 499 760 518 q 777 466 771 480 q 794 435 783 451 q 815 393 801 426 q 833 346 829 361 q 847 322 841 335 q 857 303 854 310 q 866 280 860 296 q 873 260 872 263 q 885 239 878 252 q 897 217 892 225 q 906 199 902 210 q 913 179 911 188 q 924 148 916 163 q 946 110 931 133 q 964 81 960 87 q 1021 32 981 43 q 1044 31 1025 31 q 1054 28 1051 31 q 1057 11 1057 24 q 1051 3 1057 5 q 970 -4 1034 -4 q 945 -3 963 -4 q 913 -1 928 -1 q 854 -2 902 -1 q 800 -3 806 -3 q 755 1 760 -3 q 743 1 753 1 q 732 0 732 0 q 713 -1 725 -1 q 692 9 692 -1 q 711 29 692 29 q 742 53 742 29 q 741 61 742 56 q 739 74 739 67 q 733 98 739 83 q 726 119 728 113 q 713 154 724 125 q 693 205 703 182 q 672 233 682 227 q 656 240 664 240 q 645 239 652 240 q 633 237 637 237 q 528 240 555 237 q 503 241 519 241 q 461 239 491 241 q 411 237 432 237 q 364 239 389 239 q 344 242 355 239 q 329 245 333 245 q 309 237 321 245 q 272 142 297 230 q 269 121 269 134 q 270 104 269 115 q 271 89 271 94 q 280 63 271 74 q 307 41 290 52 q 334 31 326 31 q 355 26 339 31 q 366 8 366 23 q 353 -4 366 -4 q 341 -5 351 -4 q 323 -5 331 -5 q 298 -4 308 -5 q 132 0 243 0 q 82 -1 89 0 q 61 -3 75 -3 q 40 8 40 -3 q 44 24 40 17 q 58 32 49 32 q 107 44 85 32 q 140 81 129 57 q 163 125 149 103 q 180 161 177 146 q 207 218 182 168 q 239 282 232 269 q 262 325 245 293 q 283 372 278 356 q 302 419 291 395 q 328 473 313 444 q 351 519 343 502 q 368 539 355 528 q 385 567 380 549 q 404 629 395 608 q 418 655 410 640 q 434 683 427 671 q 444 707 440 694 q 453 721 445 708 q 470 750 461 734 q 482 781 478 766 q 489 805 485 789 q 496 829 494 821 q 503 847 499 838 q 511 863 507 857 q 566 896 534 896 q 574 894 570 896 q 582 887 578 892 q 590 877 587 882 q 598 863 593 872 q 607 847 604 853 q 616 828 610 841 q 625 808 622 815 m 494 642 q 481 628 488 642 q 466 595 475 614 q 449 566 458 575 q 437 549 437 554 q 438 545 437 547 q 439 541 439 543 q 433 524 439 534 q 412 488 412 489 q 368 397 395 459 l 366 393 q 332 302 332 330 q 353 294 332 294 q 391 293 372 294 q 415 292 410 292 q 426 293 419 292 q 438 297 433 295 l 443 298 l 452 298 q 470 298 456 298 q 493 297 483 297 q 542 295 513 297 q 589 293 572 293 q 619 296 600 293 q 642 304 638 298 q 644 315 644 309 q 643 324 644 319 q 637 337 641 329 q 632 349 633 345 q 616 390 631 355 q 597 444 601 425 q 575 486 595 454 q 546 550 555 519 q 519 612 535 582 q 494 642 504 642 z "},"b":{"ha":1046,"x_min":94,"x_max":964,"o":"m 182 81 q 195 178 195 104 q 193 203 195 189 q 192 227 192 216 q 195 275 192 252 q 193 298 195 283 q 192 318 192 314 q 193 339 192 324 q 193 366 193 355 q 192 399 193 387 q 196 416 192 405 q 200 433 200 427 q 197 454 200 439 q 193 478 193 469 q 195 501 193 485 q 197 525 197 517 q 195 543 197 532 q 192 562 193 549 q 189 586 191 574 q 192 608 189 593 q 195 627 195 623 q 193 657 195 633 q 191 688 191 682 q 187 748 191 730 q 170 793 183 766 q 148 819 161 810 q 104 828 134 828 q 98 832 101 828 q 94 843 94 837 q 98 857 94 849 q 172 863 102 863 l 237 863 q 290 861 242 863 q 339 859 338 859 q 370 859 340 859 q 406 860 399 860 q 472 861 411 860 q 558 863 534 863 q 693 848 662 861 q 728 839 711 842 q 754 833 746 836 q 802 811 787 819 q 834 787 817 803 q 865 745 851 770 q 876 708 871 735 q 880 660 880 682 q 828 543 880 608 q 791 515 816 530 q 748 491 766 500 q 729 479 729 482 l 749 477 q 795 468 768 475 q 840 452 823 462 q 893 416 865 437 q 924 390 922 395 l 951 339 q 964 275 964 321 q 962 223 964 239 q 951 193 960 208 q 943 165 945 182 q 936 140 941 148 q 919 112 932 134 q 894 77 906 90 q 860 52 882 64 q 774 18 825 31 q 673 5 722 5 q 627 1 666 5 q 534 -4 589 -4 q 409 -1 481 -4 q 332 3 338 3 q 307 4 326 3 q 278 5 288 5 q 257 3 274 5 q 233 0 240 0 q 176 -1 225 0 q 118 -3 126 -3 q 97 16 97 -3 q 106 32 97 27 q 123 37 115 37 q 150 43 139 37 q 166 57 161 50 q 182 81 172 64 m 631 424 q 605 423 622 424 q 579 422 589 422 q 547 424 559 422 l 528 424 q 431 415 471 424 q 414 413 430 415 q 386 399 397 410 q 378 345 378 389 q 380 290 378 323 q 382 256 382 257 q 381 228 382 250 q 380 168 380 206 q 379 83 379 130 q 408 58 379 66 q 447 57 412 57 q 491 58 460 57 q 526 60 522 60 q 578 61 568 60 q 595 61 588 61 q 606 60 603 60 q 611 60 610 60 q 639 61 627 60 q 655 64 650 63 q 674 71 660 65 q 694 79 688 77 q 751 132 718 90 q 774 179 760 142 q 789 231 789 217 q 782 294 789 277 q 762 336 777 311 q 729 378 747 361 q 679 411 707 398 q 631 424 651 424 m 635 515 q 686 569 664 532 q 708 642 708 606 q 690 736 708 686 q 631 791 673 783 q 616 798 628 792 q 585 809 604 804 q 542 814 566 814 q 524 815 538 814 q 503 817 510 817 q 476 814 497 817 q 440 811 455 811 q 416 810 424 811 q 398 801 408 809 q 385 778 389 793 q 376 703 376 761 q 377 683 376 700 q 378 660 378 666 q 377 590 378 618 q 377 549 377 562 q 376 532 376 536 q 386 488 376 494 q 410 479 391 483 q 444 476 429 476 q 514 485 471 485 q 530 484 517 485 q 546 484 543 484 q 581 487 566 484 q 601 493 595 490 q 617 504 607 496 q 635 515 627 511 z "},"c":{"ha":1027,"x_min":81,"x_max":974,"o":"m 694 803 q 663 810 684 804 q 629 817 641 817 q 614 814 625 817 q 595 811 603 811 q 576 812 589 811 q 555 814 564 814 q 541 812 546 814 q 516 802 532 810 q 493 794 500 794 q 467 789 481 794 q 448 781 453 784 q 424 765 442 778 l 406 751 q 389 736 397 747 q 368 707 380 725 q 346 676 356 688 q 309 603 324 649 q 294 517 294 557 q 288 485 294 510 q 282 446 282 459 q 292 338 282 377 l 296 319 q 311 260 304 283 q 336 206 317 237 q 380 153 354 175 q 411 124 387 147 q 456 85 434 100 q 505 61 477 71 q 628 49 529 51 q 734 66 657 49 q 833 121 768 73 q 861 143 842 129 q 888 164 880 157 q 897 176 893 170 q 902 185 901 181 q 907 196 904 189 q 913 208 910 203 q 920 220 918 216 q 930 229 923 224 q 946 235 937 234 q 965 224 956 235 q 974 207 974 214 q 962 179 974 200 q 939 142 951 158 q 889 87 916 109 q 878 77 886 85 q 865 65 869 69 q 852 54 860 60 q 837 43 844 47 q 822 37 829 39 q 794 27 814 35 q 752 12 773 19 q 713 1 732 5 q 687 -4 706 0 q 657 -11 669 -8 q 625 -15 646 -13 q 583 -17 604 -17 q 456 -7 531 -17 q 332 24 382 2 q 273 55 293 41 q 237 77 252 69 q 191 115 216 87 q 149 168 165 142 q 125 212 135 190 q 111 247 115 233 q 100 285 106 260 q 89 322 93 310 q 81 406 81 354 q 96 517 81 496 q 112 570 102 528 q 131 625 123 612 q 174 688 162 672 q 207 724 186 704 q 267 760 243 760 q 277 763 274 760 q 282 773 280 766 q 285 783 283 781 q 358 831 299 809 q 382 840 363 833 q 407 849 401 846 q 428 855 414 851 q 452 861 441 859 q 475 864 463 863 q 537 871 479 865 q 624 878 595 878 q 667 875 651 875 q 712 869 695 873 q 739 862 730 865 q 751 857 747 858 q 776 852 758 857 q 798 848 793 848 q 823 855 802 848 q 851 861 845 861 q 869 851 863 860 q 878 815 875 842 q 886 771 880 795 q 893 733 892 746 q 904 687 895 722 q 914 637 914 652 q 895 619 914 619 q 854 656 870 619 q 838 682 851 663 q 821 710 825 700 q 774 770 801 749 q 694 803 718 801 z "},"d":{"ha":1119,"x_min":93,"x_max":1039,"o":"m 146 49 q 196 109 176 65 q 200 140 200 119 q 197 196 200 156 q 195 254 195 236 q 186 355 186 349 q 186 393 186 368 q 187 432 187 418 q 191 458 187 440 q 195 486 195 475 q 190 510 195 494 q 186 536 186 526 q 188 566 186 547 q 191 596 191 586 q 194 659 191 616 q 197 724 197 701 q 180 787 197 764 q 152 806 173 798 q 114 817 132 814 q 93 839 93 821 q 102 857 93 850 q 125 863 112 863 q 219 863 136 863 q 351 864 302 864 q 368 865 366 864 q 421 872 402 872 q 489 869 439 872 q 568 867 539 867 q 688 852 600 867 q 803 823 775 838 q 838 807 819 816 q 867 795 858 799 q 886 784 876 791 q 903 766 896 777 q 950 711 924 736 q 979 680 964 701 q 994 646 994 659 q 1015 599 995 639 q 1038 536 1035 559 q 1039 472 1039 519 q 1034 367 1039 400 q 987 225 1015 241 q 967 195 976 218 q 957 170 958 172 q 932 139 949 155 q 904 115 915 123 q 866 87 893 106 q 836 66 839 68 q 729 21 798 40 q 599 3 661 3 q 561 2 581 3 q 525 1 541 1 q 457 -1 510 1 q 392 -3 405 -3 q 321 -1 372 -1 q 273 -1 307 -1 q 224 0 239 0 q 98 1 108 0 q 93 16 93 1 q 96 28 93 20 q 121 41 99 35 q 146 49 143 47 m 397 791 q 390 771 393 787 q 386 747 386 755 q 387 707 386 741 q 387 665 387 673 q 385 629 387 655 q 382 583 382 603 q 378 499 382 545 q 375 444 375 453 q 382 349 375 372 q 382 345 382 347 q 383 340 383 342 q 381 318 383 334 q 379 297 379 302 q 382 252 379 281 q 385 199 385 222 q 384 160 385 193 q 383 110 383 127 q 393 62 383 75 q 414 57 399 57 q 441 60 425 57 q 473 64 458 64 q 503 62 489 64 q 526 60 516 60 q 562 63 548 60 q 585 71 576 66 q 600 77 595 75 q 637 92 608 79 q 685 110 667 105 q 710 125 697 113 q 738 156 724 138 q 760 180 752 174 q 782 220 771 189 q 804 272 792 252 q 842 433 842 331 q 841 494 842 481 q 833 515 840 507 q 808 596 824 533 q 758 701 790 668 q 742 719 757 703 q 718 743 726 734 q 694 760 709 751 q 668 770 680 769 q 622 786 654 770 q 578 806 589 802 q 532 812 551 812 q 514 812 527 812 q 492 811 502 811 q 463 812 481 811 q 425 814 444 814 q 410 811 414 814 q 403 801 406 808 q 397 791 401 795 z "},"e":{"ha":1001,"x_min":93,"x_max":909,"o":"m 831 -8 q 797 -5 821 -8 q 757 -3 772 -3 q 698 3 743 -3 q 640 9 653 8 q 615 5 631 9 q 593 1 599 1 q 575 3 585 1 q 555 5 565 5 q 514 1 539 5 q 478 -3 489 -3 q 419 0 461 -3 q 345 3 345 3 q 319 5 331 5 q 279 1 296 5 l 222 1 l 191 -1 q 139 -4 159 -4 q 114 -3 121 -4 q 93 17 93 0 q 97 27 93 23 q 106 32 102 32 q 119 33 108 32 q 139 34 130 33 q 159 38 149 35 q 176 47 170 41 q 196 85 195 63 q 199 160 199 138 q 197 189 199 164 q 195 249 195 214 q 193 325 195 253 q 192 428 192 397 q 195 531 192 459 q 197 615 197 603 q 194 628 197 617 q 191 642 191 640 l 191 660 q 193 694 191 673 q 195 728 195 715 q 193 739 195 730 q 192 764 192 748 q 178 791 192 779 q 147 811 163 804 q 132 815 142 813 q 116 819 122 817 q 105 826 110 821 q 100 842 100 832 q 142 860 100 860 l 265 860 q 308 859 279 860 q 347 857 336 857 q 408 859 359 857 q 473 861 457 861 q 514 859 494 861 q 555 857 534 857 q 622 859 574 857 q 718 860 671 860 q 755 861 732 860 q 786 863 779 863 q 838 832 836 863 q 852 719 840 783 q 865 647 865 655 q 862 626 865 632 q 846 621 858 621 q 828 631 837 621 q 803 667 819 642 q 721 764 766 726 q 684 784 701 779 q 632 794 667 789 q 581 800 584 800 q 554 809 569 801 q 532 817 540 817 q 503 811 520 817 q 481 806 485 806 q 423 802 434 806 q 396 775 412 798 q 385 672 385 760 q 378 651 385 660 q 372 640 372 643 l 373 637 q 375 629 374 634 q 378 618 376 625 q 380 603 379 612 q 380 585 380 594 l 380 496 q 419 471 380 475 q 433 466 429 469 q 446 463 437 463 q 477 465 458 463 q 505 468 496 468 l 566 468 q 629 484 606 468 q 703 542 681 513 q 710 555 705 545 q 720 569 715 564 q 732 574 724 574 q 746 547 746 574 l 746 542 q 742 492 745 533 q 739 441 739 451 q 746 389 739 433 q 753 329 752 345 q 747 310 753 317 q 734 302 741 302 q 715 314 726 302 q 694 343 705 326 q 679 364 684 359 q 632 397 659 385 q 586 408 605 408 q 553 410 568 408 q 522 411 538 411 q 499 410 515 411 q 467 408 484 408 q 429 410 446 408 q 406 411 411 411 q 380 380 380 411 q 378 293 380 363 q 375 207 375 222 q 378 191 375 201 q 382 176 382 181 q 381 149 382 166 q 380 123 380 131 q 387 85 380 96 q 419 59 401 64 q 471 54 437 54 q 507 58 480 54 q 546 61 534 61 q 586 65 559 61 q 619 69 612 69 q 665 75 635 69 q 708 87 694 81 q 719 92 709 88 q 732 97 729 95 q 745 102 736 98 q 760 109 754 106 q 773 117 765 112 q 787 126 781 121 q 800 138 794 132 q 859 212 824 160 l 861 216 q 890 256 882 256 q 903 251 896 256 q 909 237 909 245 q 894 174 909 231 q 875 69 879 116 q 861 10 871 28 q 831 -8 851 -8 z "},"f":{"ha":905,"x_min":93,"x_max":851,"o":"m 496 489 l 550 489 q 627 517 597 489 q 646 538 636 526 q 664 563 656 551 q 673 576 671 574 q 688 581 677 581 q 708 568 708 581 q 703 509 708 562 q 697 449 697 456 q 701 401 697 431 q 705 358 705 372 q 702 326 705 334 q 682 317 698 317 q 669 332 677 317 q 649 367 661 347 q 627 395 637 387 q 587 418 605 411 q 543 425 570 425 q 514 430 535 425 q 479 435 494 435 q 455 433 471 435 q 428 431 439 431 q 376 418 379 431 q 371 380 371 396 q 374 301 371 370 q 378 221 378 233 q 377 161 378 207 q 376 102 376 115 q 387 68 376 79 q 422 49 397 57 l 446 40 q 458 12 458 32 q 406 -4 458 -4 q 382 -3 396 -4 q 367 -3 369 -3 q 338 -1 363 -3 q 309 0 313 0 q 259 -1 294 0 q 212 -3 224 -3 q 200 -3 211 -3 q 174 -5 189 -4 q 146 -5 159 -5 q 97 3 100 -5 q 93 18 93 11 q 100 32 93 25 q 135 46 106 39 q 170 60 165 53 q 191 170 191 86 q 192 205 191 195 q 196 234 193 216 q 199 261 199 252 q 195 328 199 271 q 191 389 191 386 q 192 474 191 412 q 193 559 193 536 q 193 579 193 567 q 192 596 192 591 q 195 621 192 604 q 192 662 194 629 q 191 710 191 694 q 187 739 191 717 q 179 772 183 761 q 113 817 168 806 q 94 835 94 820 q 103 854 94 846 q 187 860 106 858 q 310 863 268 863 q 364 861 336 863 q 411 857 392 859 q 432 854 429 854 q 465 859 441 854 q 498 863 488 863 q 526 861 510 863 q 550 860 543 860 q 622 859 590 860 q 657 857 653 857 q 687 859 659 857 q 748 861 715 860 q 796 863 781 863 q 824 855 815 863 q 833 827 833 848 q 842 723 833 796 q 851 639 851 650 q 832 606 851 606 q 814 616 825 606 q 798 642 804 627 q 700 747 774 682 l 694 753 q 669 773 678 767 q 645 786 660 780 q 612 791 629 791 q 575 797 594 791 q 545 802 556 802 q 521 805 534 802 q 497 808 507 808 q 477 804 489 808 q 458 800 465 800 q 440 802 452 800 q 422 803 429 803 q 382 793 389 803 q 375 751 375 783 l 375 599 q 374 572 375 594 q 372 534 372 550 q 387 488 372 489 q 412 486 393 486 q 453 488 425 486 q 496 489 481 489 z "},"g":{"ha":1078,"x_min":81,"x_max":1038,"o":"m 726 77 q 762 111 749 95 q 774 151 774 127 q 772 178 774 160 q 770 205 770 197 q 771 249 770 218 q 772 297 772 279 q 756 337 772 319 q 720 362 739 354 q 683 381 700 370 q 667 403 667 391 q 671 415 667 409 q 715 425 679 425 q 766 422 731 425 q 822 419 800 419 q 896 424 846 419 q 975 429 947 429 q 1023 424 1009 429 q 1038 407 1038 419 q 1028 392 1038 397 q 1006 379 1019 386 q 979 361 993 372 q 957 323 966 350 q 947 257 947 296 q 945 171 947 204 q 947 142 945 161 q 950 111 950 122 q 918 75 950 75 q 854 58 895 75 q 815 41 844 54 q 759 16 787 27 q 713 1 732 5 q 688 -4 705 0 q 660 -9 671 -7 q 624 -14 648 -12 q 570 -17 600 -16 q 470 -11 512 -16 q 394 5 429 -6 q 340 24 359 16 q 284 52 321 33 q 225 82 246 72 q 209 102 217 86 q 192 127 201 119 q 170 146 186 133 q 147 168 153 159 q 124 212 134 190 q 111 247 115 233 q 100 285 106 260 q 89 322 93 309 q 81 406 81 354 q 96 517 81 496 q 112 570 102 528 q 131 625 123 612 q 197 711 160 672 q 289 798 233 749 q 358 831 307 812 q 382 840 363 833 q 407 849 401 846 q 428 855 414 851 q 452 861 441 859 q 475 864 463 863 q 538 871 484 865 q 616 878 593 878 q 667 875 659 875 q 699 871 682 875 q 731 863 715 867 q 751 857 747 858 q 776 852 758 857 q 798 848 793 848 q 823 855 802 848 q 851 861 845 861 q 869 851 863 860 q 878 815 875 842 q 886 771 880 795 q 893 733 892 746 q 904 687 895 722 q 914 637 914 652 q 907 621 914 628 q 890 614 901 614 q 874 619 880 614 q 861 640 868 624 q 852 660 854 656 q 816 717 845 676 q 775 766 787 758 q 758 776 772 768 q 734 790 744 785 q 712 801 724 795 q 694 807 701 806 q 664 813 684 808 q 632 819 644 819 q 611 817 620 819 q 597 814 603 814 q 579 815 593 814 q 558 817 566 817 q 541 815 547 817 q 516 806 532 814 q 493 799 500 799 q 465 792 477 799 q 437 771 452 785 q 414 751 422 757 q 398 736 406 747 q 377 706 389 724 q 355 676 366 688 q 316 603 332 649 q 300 517 300 557 q 294 485 300 510 q 289 446 289 459 q 298 338 289 377 q 312 283 307 302 q 328 237 317 264 q 352 190 338 210 q 387 153 367 170 q 419 124 395 146 q 464 86 442 101 q 514 61 486 71 q 628 46 551 49 q 680 56 648 46 q 726 77 713 66 z "},"h":{"ha":1225,"x_min":93,"x_max":1131,"o":"m 151 864 l 293 864 l 297 864 q 337 865 304 864 q 385 867 370 867 q 396 866 389 867 q 403 865 402 865 q 429 864 408 865 q 456 860 450 864 q 463 842 463 855 q 449 829 463 834 q 434 828 444 829 q 421 828 425 828 q 409 824 416 827 q 395 812 402 820 q 377 789 382 798 q 371 760 373 780 q 373 716 372 744 q 375 676 375 688 q 374 652 375 659 q 370 590 370 642 l 370 587 q 369 582 370 585 q 369 573 369 578 q 368 560 368 568 q 368 545 368 553 q 374 465 368 471 q 389 458 377 460 q 454 457 401 457 q 509 458 478 457 q 554 458 539 458 q 578 455 564 458 q 593 452 592 452 q 610 449 597 451 q 627 447 622 447 q 662 457 635 447 q 711 467 690 467 q 753 461 725 467 q 796 456 781 456 q 823 461 816 456 q 856 497 852 475 q 863 647 863 541 q 861 699 863 663 q 859 749 859 734 q 853 786 859 772 q 825 818 847 800 q 799 826 819 825 q 774 832 779 828 q 770 847 770 836 q 771 856 770 850 q 774 861 773 861 q 798 868 794 868 q 811 866 802 868 q 825 864 821 864 q 893 868 858 868 q 914 867 911 868 q 945 865 917 865 q 1033 867 974 865 q 1093 868 1092 868 q 1128 863 1122 868 q 1131 851 1131 860 q 1126 838 1131 842 q 1101 829 1123 831 q 1084 825 1096 829 q 1067 815 1072 820 q 1048 762 1057 806 q 1043 717 1043 735 q 1044 701 1043 711 q 1047 679 1046 690 q 1050 664 1049 667 q 1044 611 1050 640 q 1039 571 1039 582 q 1039 560 1039 569 q 1040 533 1040 551 q 1042 501 1041 515 q 1040 485 1042 496 q 1039 468 1039 474 q 1044 441 1039 454 q 1048 419 1048 435 q 1047 398 1048 412 q 1046 378 1046 384 q 1044 287 1046 349 q 1043 225 1043 226 q 1044 195 1043 206 q 1047 173 1045 183 q 1050 157 1049 162 q 1051 129 1051 147 q 1050 104 1051 119 q 1050 85 1050 90 q 1062 51 1050 66 q 1089 33 1075 35 q 1129 24 1124 28 q 1131 12 1131 22 q 1129 1 1131 1 q 1095 -4 1118 -4 q 1005 -3 1065 -4 q 916 -3 946 -3 q 895 -4 913 -4 q 823 0 864 -4 q 811 -2 820 0 q 799 -4 803 -4 q 790 -2 795 -4 q 780 1 784 -1 q 775 3 776 3 q 771 14 771 5 q 775 29 771 23 q 794 32 777 32 q 828 36 817 32 q 836 43 831 38 q 844 53 841 48 q 847 58 847 58 q 863 123 863 100 l 863 208 q 865 222 863 213 q 868 233 868 231 q 866 267 868 249 q 864 285 864 284 q 860 351 864 309 q 850 395 856 393 q 742 404 811 404 q 703 403 712 404 l 663 403 q 621 400 648 403 q 574 397 593 397 q 503 399 543 397 q 454 400 464 400 q 430 401 447 400 q 403 401 413 401 q 371 399 376 401 q 366 366 366 393 q 364 264 366 349 q 363 168 363 180 q 367 150 363 161 q 371 134 371 138 q 395 49 371 54 q 413 42 400 47 q 431 36 425 36 q 453 31 444 36 q 463 18 463 25 q 457 3 463 8 q 445 -3 452 -2 q 424 -4 438 -4 q 365 -3 420 -4 q 300 -1 309 -1 l 229 -1 q 211 -2 229 -1 q 182 -3 193 -3 q 160 0 165 0 q 147 -2 156 0 q 134 -4 138 -4 q 114 -1 127 -4 q 97 3 100 1 q 93 14 93 5 q 97 29 93 23 l 122 34 q 154 46 146 39 q 174 72 167 57 q 182 97 181 87 q 184 123 184 106 l 191 218 q 192 236 192 225 q 191 253 192 241 q 191 269 191 264 q 191 307 191 285 q 192 335 192 329 q 190 393 192 348 q 187 443 187 437 q 188 486 187 456 q 189 530 189 515 l 200 571 q 195 584 200 575 q 189 596 189 592 q 184 728 184 722 q 179 786 184 772 q 176 797 177 791 q 173 805 174 803 q 168 811 172 808 q 154 819 163 815 q 147 823 152 820 q 138 827 142 825 q 131 828 134 828 q 117 831 125 828 q 107 835 108 835 q 97 847 97 835 q 107 863 97 859 q 151 864 111 864 z "},"i":{"ha":553,"x_min":93,"x_max":460,"o":"m 191 864 l 314 864 l 319 864 q 359 865 326 864 q 407 867 392 867 q 421 865 412 867 q 432 864 431 864 q 440 865 435 864 q 452 867 446 867 q 460 852 460 867 q 452 836 460 838 q 426 830 450 836 q 390 819 401 825 q 386 814 388 818 q 382 805 384 811 q 380 794 381 800 q 378 780 379 789 q 375 765 376 771 q 374 748 374 762 q 372 715 373 734 q 370 685 371 696 q 372 649 370 672 q 374 614 374 626 q 370 600 374 610 q 366 582 366 589 q 372 509 372 543 q 370 482 372 498 q 368 463 368 467 q 373 433 368 454 q 378 399 378 411 q 372 352 378 378 q 366 315 366 325 q 370 282 366 307 q 374 228 374 258 q 378 62 374 92 q 407 35 380 43 q 424 32 413 33 q 442 29 435 31 q 453 25 450 28 q 457 17 457 23 q 453 3 457 7 q 400 -7 441 -7 q 365 -6 388 -7 q 338 -5 342 -5 q 318 -5 337 -5 q 264 -4 298 -5 q 193 -4 230 -4 q 170 -5 193 -4 q 134 -7 148 -7 q 104 -3 109 -7 q 102 12 102 0 q 104 24 102 22 q 138 29 108 26 q 170 47 153 31 q 177 60 174 52 q 182 80 180 69 q 184 93 184 92 q 187 184 187 101 q 186 290 187 226 q 184 416 184 353 q 190 441 184 427 q 195 458 195 454 q 191 473 195 459 q 186 500 187 486 q 183 541 184 514 q 180 650 180 635 q 176 774 180 758 q 172 794 174 782 q 168 811 170 806 q 163 818 165 816 q 127 828 150 828 q 100 832 108 828 q 93 846 93 836 q 103 863 93 857 q 134 865 106 865 q 169 865 148 865 q 191 864 190 864 z "},"j":{"ha":694,"x_min":56,"x_max":640,"o":"m 252 33 q 315 54 293 33 q 358 172 339 78 q 364 279 364 210 q 360 361 364 305 q 357 450 357 418 q 360 472 357 452 q 364 493 364 491 q 363 571 364 557 q 359 599 359 595 q 361 626 359 608 q 363 654 363 644 q 357 694 363 669 q 351 729 351 719 q 350 778 351 765 q 339 803 348 790 q 316 826 326 821 q 285 831 307 831 q 260 838 273 831 q 257 848 257 838 q 260 863 257 860 q 293 867 264 867 q 321 866 305 867 q 350 865 338 865 q 363 864 361 864 l 453 864 l 458 864 q 498 865 465 864 q 546 867 532 867 q 556 866 551 867 q 562 865 562 865 q 600 863 569 864 q 635 860 630 862 q 640 847 640 860 q 629 831 640 834 q 617 830 629 831 q 591 827 605 829 q 572 821 578 825 q 536 739 536 790 q 541 703 536 717 q 546 547 546 687 q 545 519 546 532 q 542 498 543 505 q 536 477 540 492 q 530 456 532 463 l 532 454 q 535 447 533 452 q 539 435 537 442 q 543 415 542 428 q 545 386 545 402 q 543 365 545 384 q 542 329 542 346 q 543 292 542 305 q 545 260 545 281 q 538 183 545 229 q 510 117 534 152 q 458 58 486 82 q 422 40 448 50 q 393 26 396 31 q 338 -1 385 12 q 256 -12 329 -4 q 243 -14 252 -12 q 229 -16 234 -16 q 119 18 174 -16 q 110 24 118 19 q 100 31 102 29 q 91 37 98 33 q 81 45 84 42 q 75 52 79 47 q 69 61 71 56 q 66 69 67 65 q 60 102 65 81 q 56 135 56 123 q 75 188 58 161 q 111 215 92 215 q 138 219 121 215 q 165 224 156 224 q 200 210 180 224 q 224 179 220 196 q 227 160 227 165 q 219 120 227 146 q 211 78 211 94 q 225 45 213 58 q 252 33 237 33 z "},"k":{"ha":1072,"x_min":93,"x_max":1018,"o":"m 920 -3 q 896 -1 916 -3 q 864 1 876 1 q 839 -1 852 1 q 821 -3 825 -3 q 746 0 768 -3 q 717 -2 739 0 q 689 -4 694 -4 q 651 -3 681 -4 l 621 -1 q 613 2 616 -1 q 610 12 610 6 q 624 32 613 26 q 634 35 626 33 q 647 40 642 37 q 658 46 652 42 q 667 56 664 50 q 671 69 671 62 q 647 115 671 85 q 625 143 633 132 q 608 169 616 155 q 591 195 600 182 q 559 235 581 210 q 521 282 537 261 q 501 314 505 302 q 494 326 499 319 q 482 341 490 332 q 469 357 474 351 q 424 401 435 401 q 411 398 417 401 q 396 387 405 395 q 385 376 387 378 q 368 310 368 362 q 370 228 368 285 q 372 146 372 171 q 375 109 372 125 q 380 79 376 96 q 389 58 385 62 q 399 50 391 57 q 416 37 408 43 q 428 32 425 32 q 472 28 464 32 l 473 24 q 473 17 473 20 q 473 9 473 14 l 472 5 q 458 3 471 4 q 428 0 445 1 q 406 -3 412 -1 q 387 -4 400 -4 q 362 -3 379 -4 q 335 -1 345 -1 l 199 -1 q 186 -2 197 -1 q 159 -3 174 -3 q 131 -4 143 -4 q 97 0 101 -4 q 93 16 93 4 q 97 26 93 24 q 121 32 108 32 q 142 38 127 32 q 163 49 157 44 q 189 77 182 64 q 195 126 195 91 q 196 169 195 131 q 197 231 197 208 q 196 258 197 237 q 195 300 195 279 q 203 368 195 329 q 211 408 211 407 q 204 436 211 414 q 196 473 197 458 q 201 530 196 503 q 199 647 199 604 q 197 743 199 692 q 193 770 197 755 q 187 799 189 786 q 174 814 187 805 q 155 825 161 823 q 125 831 139 831 q 103 838 110 831 q 98 848 98 838 q 103 863 98 858 q 135 867 105 867 q 163 866 147 867 q 191 865 179 865 q 204 864 203 864 l 340 864 l 345 864 q 383 865 349 864 q 432 867 416 867 q 443 866 437 867 q 450 865 450 865 q 476 859 469 862 q 478 848 478 857 q 475 831 478 834 q 455 823 469 827 q 428 817 441 819 q 412 814 414 814 q 391 793 402 808 q 379 768 379 779 q 376 736 379 755 q 374 696 374 716 q 376 655 374 683 q 378 612 378 627 q 374 572 378 593 q 378 543 374 566 q 382 514 382 521 q 380 498 382 513 q 379 476 379 484 q 382 465 379 465 q 436 496 412 465 q 500 558 448 509 q 569 629 534 589 q 614 677 603 669 q 646 724 627 687 q 676 772 666 761 q 692 808 692 790 l 692 815 q 666 827 692 821 q 640 835 641 833 q 635 852 635 840 q 637 860 635 860 q 666 864 640 861 q 699 867 692 867 q 727 865 703 867 q 761 863 751 863 q 818 867 793 867 q 838 865 833 867 q 860 863 851 863 q 898 866 873 863 q 935 869 924 869 q 956 867 942 869 q 964 848 964 865 q 958 833 964 839 q 947 827 956 831 q 924 816 938 823 q 900 803 911 810 l 832 760 q 777 722 806 744 q 736 693 748 699 q 693 661 724 688 q 653 629 663 635 q 624 601 632 617 q 612 582 616 585 q 586 554 601 573 q 572 530 572 536 q 588 507 574 526 q 621 463 602 488 q 648 428 641 438 q 677 384 663 408 q 701 346 692 359 q 715 329 709 332 q 752 293 732 318 q 778 254 772 269 q 789 233 781 249 q 805 205 797 218 q 821 186 812 192 q 852 145 837 173 q 890 100 868 118 q 918 75 906 88 q 939 53 929 61 q 968 37 949 44 q 983 36 970 37 q 1007 33 996 35 q 1018 25 1018 31 q 1011 1 1018 8 q 989 -4 1006 -4 q 948 -3 972 -4 q 920 -3 924 -3 z "},"l":{"ha":915,"x_min":93,"x_max":848,"o":"m 390 64 q 424 56 398 56 q 449 57 433 56 q 471 58 465 58 q 505 62 484 58 q 533 66 526 66 q 596 72 550 66 q 656 82 642 78 q 704 102 685 92 q 745 136 724 113 q 794 205 770 165 q 800 214 795 208 q 807 224 804 221 q 814 233 810 228 q 822 239 818 237 q 829 241 825 241 q 842 237 835 241 q 848 224 848 232 q 847 212 848 218 q 841 193 845 205 q 835 171 838 182 q 808 36 814 109 q 796 4 806 16 q 771 -8 786 -8 q 736 -5 762 -8 q 696 -3 711 -3 q 658 0 685 -3 q 598 5 631 2 q 554 9 566 9 q 529 5 545 9 q 507 1 513 1 q 489 3 500 1 q 469 5 479 5 q 428 1 453 5 q 392 -3 403 -3 q 339 1 385 -3 q 271 4 293 4 q 239 2 268 4 q 158 0 211 0 q 96 11 102 0 q 93 18 93 16 q 97 27 93 23 q 107 32 102 32 q 164 58 151 38 q 176 107 175 79 q 177 170 176 136 q 177 227 177 204 q 178 250 178 250 q 181 266 178 257 q 184 278 184 275 q 181 293 184 283 q 178 309 178 302 q 177 328 178 313 q 176 347 176 343 q 180 405 176 368 q 183 461 183 443 q 182 498 182 478 q 181 529 181 517 q 180 550 180 540 q 183 599 180 572 q 186 663 186 616 q 183 694 186 673 q 180 725 180 715 q 172 794 180 774 q 122 823 160 823 q 104 829 115 823 q 93 842 93 834 q 97 856 93 851 q 113 860 101 860 q 130 861 117 860 q 150 861 142 861 q 170 860 164 861 l 199 860 q 203 861 199 860 q 211 861 208 861 q 345 864 267 864 q 453 860 404 860 q 476 839 476 860 q 456 821 474 821 q 408 810 418 821 q 403 805 407 808 q 398 800 399 801 q 395 796 397 799 q 391 790 392 793 q 389 784 391 788 q 387 775 388 780 q 386 764 387 770 q 382 707 382 738 q 383 677 382 687 l 383 665 q 380 631 383 654 q 378 593 378 608 q 380 568 378 586 q 382 545 382 551 q 375 496 380 519 q 368 458 371 472 q 364 440 364 444 q 369 429 364 437 q 374 419 374 421 q 378 399 374 412 q 382 374 382 385 q 376 315 382 343 q 371 279 371 286 q 377 247 371 268 q 383 216 383 225 q 381 194 383 209 q 379 168 379 178 q 390 64 379 75 z "},"m":{"ha":1347,"x_min":54,"x_max":1292,"o":"m 987 860 l 993 860 q 1050 857 1005 860 q 1104 854 1096 854 q 1157 859 1116 854 q 1204 863 1198 863 q 1221 847 1221 863 q 1215 830 1221 834 q 1194 825 1210 825 q 1175 819 1190 825 q 1156 807 1161 812 q 1141 761 1141 788 q 1142 754 1141 760 q 1146 708 1143 747 q 1156 603 1150 669 q 1152 576 1156 593 q 1147 550 1147 560 q 1151 529 1147 539 q 1160 509 1154 519 q 1166 494 1165 499 q 1169 460 1169 470 l 1168 424 q 1174 391 1168 412 q 1181 358 1181 370 q 1180 337 1181 351 q 1179 314 1179 322 q 1182 286 1179 307 q 1187 239 1184 265 q 1192 203 1190 214 l 1192 149 q 1197 102 1192 117 q 1202 85 1200 95 q 1207 72 1205 76 q 1212 63 1208 68 q 1219 52 1215 57 q 1247 37 1227 44 q 1276 31 1268 31 q 1288 27 1285 31 q 1292 12 1291 23 q 1288 -3 1292 1 q 1271 -7 1283 -7 q 1201 -4 1265 -7 q 1117 -1 1136 -1 l 1109 -1 q 1050 -4 1105 -2 q 985 -7 995 -5 q 972 -8 981 -8 q 947 14 947 -8 q 977 26 947 26 q 987 29 983 26 q 999 37 992 31 q 1010 46 1006 43 q 1025 82 1025 56 q 1016 156 1025 107 q 1007 212 1008 205 l 1010 272 q 1015 282 1010 273 q 1019 293 1019 292 q 1010 312 1018 299 q 1003 332 1003 325 q 1001 375 1002 357 q 1000 399 1000 393 q 999 410 1000 405 q 999 421 999 416 q 997 467 999 454 l 990 568 q 983 641 990 582 q 974 701 977 699 q 930 582 946 607 q 910 536 920 566 q 899 501 901 507 q 878 468 893 491 q 857 435 862 445 q 850 417 854 429 q 842 395 846 405 q 829 379 837 386 q 818 360 822 372 q 808 331 813 349 q 799 300 804 313 q 777 242 791 282 q 751 175 762 202 q 734 142 740 148 q 726 131 732 139 q 717 118 720 123 q 709 103 714 113 q 699 82 703 93 q 691 62 695 73 q 685 47 687 52 q 679 36 684 43 q 667 17 674 28 q 662 11 665 15 q 657 4 659 6 q 653 0 656 3 q 647 -5 650 -3 q 640 -8 644 -6 q 630 -10 635 -9 q 619 -11 625 -11 q 585 -6 603 -11 q 558 4 568 -1 q 547 11 548 9 q 519 66 523 54 q 512 86 518 72 q 502 116 506 101 q 496 144 497 131 q 478 176 493 162 q 458 203 463 191 q 441 242 456 211 q 425 286 427 273 q 411 342 421 323 q 400 355 403 350 q 395 369 397 361 q 390 386 393 378 q 370 418 387 395 q 353 457 353 442 q 350 471 351 465 q 346 484 349 477 q 342 494 343 491 q 336 507 340 498 q 330 519 332 516 q 325 530 328 527 q 318 533 321 533 q 312 539 315 534 q 304 555 308 544 q 272 640 296 585 q 256 677 261 677 q 251 662 253 677 q 249 635 249 647 q 242 576 248 615 q 236 515 236 538 q 233 439 235 511 q 224 389 233 410 q 216 366 216 368 q 215 339 215 356 q 219 296 215 320 q 224 261 224 273 q 223 254 224 259 q 222 248 222 250 q 215 195 222 239 q 208 131 208 151 q 212 85 208 109 q 229 51 214 67 q 265 31 243 35 q 284 22 279 27 q 290 5 290 16 q 272 -5 290 -5 q 235 -4 266 -5 q 193 -3 204 -3 l 109 -3 q 54 11 56 -3 q 69 35 54 35 q 117 53 96 35 q 144 90 138 73 q 150 161 150 127 q 158 225 151 184 q 165 271 165 267 l 170 367 q 177 441 170 382 q 183 525 183 500 q 185 568 183 546 q 190 617 186 590 q 195 659 193 644 q 203 742 197 705 l 203 749 q 200 765 203 759 q 191 777 197 770 q 180 789 184 784 q 156 806 176 795 q 125 818 137 816 q 111 824 117 819 q 104 835 104 828 q 125 860 104 860 q 152 861 130 860 q 186 861 174 861 q 212 860 207 861 q 257 857 228 857 q 309 859 277 857 q 353 860 340 860 q 395 851 391 860 q 402 818 396 848 q 408 786 408 787 q 425 746 412 765 q 440 722 438 728 q 453 696 446 711 q 465 668 460 681 q 477 636 470 656 q 489 607 485 616 q 513 556 492 595 q 534 500 533 516 q 547 471 534 490 q 562 446 559 452 q 590 375 584 383 q 616 328 599 365 q 633 278 633 290 q 644 254 633 271 q 657 232 655 237 q 676 187 668 187 q 679 188 677 187 q 681 192 680 189 q 685 197 683 195 q 688 205 686 200 q 692 214 690 210 q 697 224 694 218 q 703 236 700 231 q 719 258 707 248 q 732 286 731 269 q 775 387 732 304 q 810 473 791 421 q 821 487 812 481 q 838 500 830 492 q 846 521 845 507 q 871 602 850 567 q 890 640 880 616 q 905 677 899 665 q 932 757 928 739 q 936 771 932 760 q 941 790 939 783 q 946 809 943 798 q 954 828 950 821 q 963 844 958 836 q 975 856 968 852 q 987 860 981 860 z "},"n":{"ha":1136,"x_min":94,"x_max":1069,"o":"m 950 667 q 948 616 950 653 q 946 574 946 578 q 947 545 946 563 q 947 522 947 528 q 945 495 947 511 q 942 469 942 478 q 943 406 942 433 q 943 375 943 380 q 945 298 943 350 q 946 222 946 247 q 949 118 946 201 q 953 20 953 35 q 946 -7 953 6 q 925 -20 939 -20 q 905 -17 914 -20 q 892 -13 897 -15 q 880 -5 888 -11 q 868 3 872 1 q 825 43 855 9 q 779 97 795 77 q 753 123 770 109 q 726 149 736 136 q 666 222 706 174 q 611 288 625 270 q 553 353 593 311 q 504 411 513 395 q 457 476 481 452 q 441 497 454 479 q 416 530 429 514 q 395 555 404 545 q 277 688 389 564 q 277 640 277 673 q 278 589 278 606 l 278 472 q 280 421 278 441 q 282 383 282 400 q 275 365 282 378 q 268 340 268 352 q 274 321 268 331 q 279 297 279 311 q 282 259 279 288 q 285 221 285 231 q 286 199 285 206 q 287 188 286 191 q 292 178 288 185 q 298 163 295 172 q 306 143 302 151 q 312 131 309 135 q 320 119 314 127 q 330 106 326 111 q 383 56 353 74 q 397 51 385 55 q 416 40 410 47 q 422 21 422 33 q 396 4 422 4 l 372 5 q 315 5 348 5 q 256 11 277 5 q 232 14 237 14 q 201 10 220 14 q 172 5 182 6 q 145 2 163 5 q 121 -1 127 -1 q 104 3 111 -1 q 94 17 94 9 q 109 33 94 26 q 168 77 136 46 q 182 96 176 85 q 195 124 188 106 q 201 143 201 142 q 214 216 214 172 q 212 238 214 225 q 211 256 211 252 l 211 354 q 212 385 211 362 q 212 419 212 408 q 214 452 212 436 q 218 477 216 468 q 220 489 220 487 q 215 526 220 503 q 211 559 211 548 l 211 614 q 210 701 211 668 q 208 713 210 707 q 207 742 207 720 q 184 793 207 769 q 150 820 168 810 q 123 834 132 830 q 114 842 114 838 q 135 863 114 863 l 151 863 q 170 863 157 863 q 189 864 183 864 q 207 863 201 864 q 256 867 227 867 q 310 865 275 867 q 357 863 345 863 q 397 826 366 863 q 437 772 427 790 q 456 746 446 758 q 473 728 467 734 q 489 715 480 722 q 500 707 497 709 q 510 685 505 703 q 528 656 515 667 q 603 574 574 609 q 622 553 608 567 q 643 528 635 538 q 653 510 651 517 q 662 492 654 502 q 681 471 669 482 q 697 453 692 459 q 711 431 705 444 q 721 414 716 418 q 769 371 741 397 q 800 334 797 345 q 844 281 812 311 q 854 268 850 275 q 862 258 859 261 q 868 253 864 255 q 878 250 871 250 q 886 261 886 250 q 886 273 886 264 q 885 285 885 281 q 883 328 884 303 q 882 375 882 353 q 883 423 882 392 q 885 469 885 454 q 885 492 885 482 q 884 506 884 501 q 884 513 884 511 q 884 536 884 520 q 885 566 885 551 q 882 586 884 576 q 879 602 879 596 q 878 625 879 611 q 878 647 878 639 q 877 673 878 667 q 872 688 876 679 q 865 707 869 696 q 857 728 861 721 q 844 746 852 735 q 832 762 836 758 q 779 812 810 794 q 765 817 778 813 q 747 828 753 821 q 741 847 741 835 q 766 864 741 864 q 786 863 772 864 q 807 863 800 863 q 908 859 888 863 q 935 856 918 856 q 963 859 945 856 q 990 863 981 862 q 1016 866 999 863 q 1042 869 1034 869 q 1060 865 1052 869 q 1069 852 1069 861 q 1054 835 1069 842 q 996 791 1023 819 q 983 775 989 785 q 974 759 977 766 q 967 740 971 752 q 961 725 962 728 q 950 667 950 699 z "},"o":{"ha":1166,"x_min":81,"x_max":1086,"o":"m 611 50 q 640 57 620 51 q 668 64 660 64 q 696 70 683 64 q 727 90 709 77 q 751 107 744 103 q 767 123 759 112 q 788 152 776 134 q 810 183 800 170 q 847 256 832 210 q 863 342 863 302 q 868 374 863 349 q 873 412 873 399 q 865 521 873 476 q 824 644 850 581 q 772 729 798 707 q 744 752 770 731 q 703 784 718 774 q 662 805 688 794 q 612 817 635 817 q 592 817 604 817 q 572 818 579 818 q 541 815 553 818 q 516 806 532 814 q 493 799 500 799 q 465 792 477 799 q 436 771 452 785 q 412 751 420 757 q 396 736 405 747 q 376 706 388 724 q 354 676 364 688 q 316 604 331 650 q 301 517 301 557 q 296 485 301 510 q 290 446 290 459 q 300 338 290 377 q 305 313 300 334 q 312 284 310 292 q 319 258 314 277 q 330 229 325 239 q 344 203 336 218 q 363 176 353 188 q 387 153 374 163 q 417 124 397 144 q 457 88 437 103 q 505 64 477 73 q 590 49 551 49 q 611 50 604 49 m 574 -17 l 566 -17 q 425 -2 488 -14 q 332 24 362 11 q 273 55 293 41 q 237 77 252 69 q 191 115 216 87 q 149 168 165 142 q 125 212 135 190 q 111 247 115 233 q 100 285 106 260 q 89 322 93 310 q 81 406 81 354 q 96 517 81 496 q 112 570 102 528 q 131 625 123 612 q 174 688 162 672 q 207 724 186 704 q 267 760 243 760 q 277 763 274 760 q 282 773 280 766 q 285 783 283 781 q 358 831 299 809 q 382 840 363 833 q 407 849 401 846 q 428 855 414 851 q 452 861 441 859 q 475 864 463 863 q 525 870 487 865 q 583 876 563 876 q 735 862 667 874 q 835 836 804 849 q 892 804 873 818 q 929 782 911 790 q 976 745 950 772 q 1018 690 1001 718 q 1067 576 1048 642 q 1086 453 1086 509 q 1071 342 1086 368 q 1055 288 1065 330 q 1036 233 1044 246 q 1019 209 1031 226 q 1001 182 1008 192 q 983 160 994 173 q 960 136 971 146 q 900 98 922 98 q 889 96 892 98 q 885 86 886 94 q 882 77 883 79 q 796 24 867 50 q 681 -5 724 -1 q 633 -12 671 -6 q 574 -17 595 -17 z "},"p":{"ha":947,"x_min":94,"x_max":893,"o":"m 814 431 q 764 401 798 414 q 715 380 730 389 q 670 363 699 370 q 605 353 642 357 q 555 346 569 349 q 483 340 535 341 q 418 338 431 340 q 411 336 415 336 q 403 337 408 336 q 395 338 397 338 q 376 319 376 338 q 377 305 376 319 q 378 279 378 292 q 376 241 378 257 q 374 178 374 202 q 374 141 374 161 q 375 119 375 120 q 387 76 375 97 q 411 49 398 54 q 429 44 416 47 q 448 37 441 41 q 454 21 454 32 q 443 0 454 5 q 411 -5 432 -5 q 370 -1 399 -5 q 332 3 340 3 q 307 4 326 3 q 278 5 288 5 q 257 3 274 5 q 233 0 240 0 q 176 -1 225 0 q 118 -3 126 -3 q 97 16 97 -3 q 106 32 97 27 q 123 37 115 37 q 150 43 139 37 q 166 57 161 50 q 182 81 172 64 q 195 178 195 104 q 193 203 195 189 q 192 227 192 216 q 195 275 192 252 q 193 298 195 283 q 192 318 192 314 q 193 339 192 324 q 193 364 193 353 q 192 399 193 387 q 196 416 192 405 q 200 433 200 427 q 197 454 200 439 q 193 478 193 469 q 195 504 193 486 q 197 525 197 522 q 193 553 197 534 q 189 586 189 572 q 192 608 189 593 q 195 627 195 623 q 193 657 195 633 q 191 688 191 682 q 187 748 191 730 q 170 793 183 766 q 148 819 161 810 q 104 828 134 828 q 98 832 101 828 q 94 843 94 837 q 98 857 94 849 q 237 863 102 863 q 290 861 242 863 q 339 859 338 859 q 370 859 340 859 q 406 860 399 860 q 484 862 425 860 q 578 864 543 864 q 729 848 685 864 q 753 839 743 844 q 773 829 764 834 q 787 821 782 823 q 814 807 804 814 q 834 790 825 800 q 846 773 842 780 q 860 750 850 767 q 875 722 869 732 q 887 676 880 713 q 893 619 893 640 q 814 431 893 513 m 650 463 q 690 542 673 483 q 708 642 708 602 q 708 656 708 649 q 707 668 707 663 q 705 680 706 673 q 703 689 703 686 q 700 700 702 692 q 696 709 697 707 q 693 720 696 711 q 689 730 690 728 q 663 770 681 752 q 625 791 644 787 q 611 798 622 792 q 582 809 600 804 q 542 814 565 814 q 524 815 538 814 q 503 817 510 817 q 477 814 496 817 q 449 811 458 811 q 421 810 431 811 q 401 807 412 810 q 384 797 390 804 q 374 778 377 789 l 370 766 q 366 703 366 755 q 366 683 366 700 q 367 660 367 666 l 367 457 q 375 408 367 416 q 431 399 389 399 q 452 400 435 400 q 567 412 524 400 q 650 463 610 424 z "},"q":{"ha":1166,"x_min":81,"x_max":1086,"o":"m 355 -60 q 371 -47 363 -52 q 391 -36 378 -42 q 414 -24 404 -30 q 440 -14 420 -20 q 469 -7 461 -8 q 332 24 363 8 q 273 55 293 41 q 237 77 252 69 q 191 115 216 87 q 149 168 165 142 q 125 212 135 190 q 111 247 115 233 q 100 285 106 260 q 89 322 93 310 q 81 406 81 354 q 96 517 81 496 q 112 570 102 528 q 131 625 123 612 q 174 688 162 672 q 207 724 186 704 q 267 760 243 760 q 277 763 274 760 q 281 773 280 766 q 285 783 283 780 q 370 835 301 809 q 475 864 439 861 q 525 870 487 865 q 583 876 563 876 q 735 862 667 874 q 835 836 804 849 q 892 804 873 818 q 929 782 911 790 q 976 745 950 772 q 1018 690 1001 718 q 1067 576 1048 642 q 1086 453 1086 509 q 1071 342 1086 368 q 1055 288 1065 330 q 1036 233 1044 246 q 1010 195 1021 210 q 978 155 999 180 q 937 114 957 129 q 900 98 917 100 q 889 96 892 98 q 885 86 886 94 q 882 77 883 79 q 808 29 869 52 q 682 1 750 6 q 627 -11 675 1 q 734 -46 663 -16 q 765 -64 754 -54 q 785 -75 777 -74 q 815 -84 793 -76 q 851 -96 836 -93 q 893 -106 860 -97 q 942 -115 927 -115 q 1023 -98 1004 -111 q 1031 -96 1029 -96 q 1039 -101 1036 -96 q 1043 -115 1043 -107 q 1035 -136 1043 -128 q 1017 -160 1032 -139 q 980 -199 1001 -180 q 929 -231 960 -217 q 844 -252 882 -252 q 775 -241 800 -252 q 723 -205 749 -230 q 679 -171 696 -181 q 633 -124 663 -161 q 596 -82 604 -88 q 575 -62 592 -79 q 543 -36 557 -45 q 514 -26 529 -26 q 469 -104 469 -26 q 448 -158 469 -132 q 396 -184 427 -184 q 346 -166 369 -184 q 322 -122 322 -149 q 355 -60 322 -90 m 587 49 q 638 56 616 49 q 671 64 660 63 q 699 71 686 64 q 727 90 711 77 q 751 107 743 102 q 767 123 759 112 q 788 152 776 134 q 810 183 800 170 q 847 256 832 210 q 863 342 863 302 q 868 374 863 349 q 873 412 873 399 q 865 521 873 476 q 856 558 863 528 q 844 606 849 589 q 828 649 838 623 q 804 694 819 675 q 771 729 789 714 q 753 744 770 730 q 729 764 736 759 q 705 782 722 770 q 675 800 687 794 q 645 810 663 805 q 612 815 628 815 q 593 816 606 815 q 574 817 580 817 q 541 814 568 817 q 516 804 532 812 q 493 796 500 796 q 463 788 477 796 q 430 766 448 781 q 406 747 412 751 q 382 716 396 742 q 357 676 369 691 q 319 604 334 650 q 304 517 304 558 q 299 485 304 510 q 293 446 293 459 q 301 338 293 382 q 309 308 303 330 q 317 275 314 286 q 327 244 320 264 q 342 211 334 224 q 362 181 350 197 q 390 153 374 165 q 419 123 401 144 q 457 86 437 102 q 505 61 477 71 q 587 49 548 49 z "},"r":{"ha":1067,"x_min":94,"x_max":999,"o":"m 803 478 q 777 457 790 465 q 745 440 764 449 q 711 422 726 432 q 695 414 703 417 q 683 408 688 410 q 671 404 678 406 q 659 401 663 402 q 644 399 655 401 q 627 396 633 397 q 666 367 637 392 q 700 339 694 342 q 725 320 714 332 q 748 291 735 309 q 771 261 761 273 q 803 210 788 241 q 821 172 817 178 l 825 167 q 889 86 854 117 q 935 55 911 66 q 974 43 959 43 q 999 20 999 43 q 900 -5 999 -5 q 796 4 841 -5 q 673 65 701 27 q 652 97 661 81 q 634 129 643 113 q 621 154 625 146 q 611 178 614 165 q 606 198 608 191 q 599 207 604 205 q 588 227 594 209 q 570 273 581 245 q 543 321 558 301 q 490 359 513 356 q 447 361 481 361 q 407 363 414 362 q 382 357 391 363 q 374 336 374 352 q 374 317 374 336 q 375 283 375 299 q 374 241 375 257 q 371 178 371 202 q 372 141 371 161 q 372 119 372 120 q 384 76 372 97 q 408 49 395 54 q 426 44 413 47 q 445 37 439 41 q 452 21 452 32 q 440 0 452 5 q 408 -5 429 -5 q 374 -1 397 -5 q 343 3 352 3 q 312 4 336 3 q 278 5 288 5 q 257 3 274 5 q 233 0 240 0 q 176 -1 225 0 q 118 -3 126 -3 q 97 16 97 -3 q 106 32 97 27 q 123 37 115 37 q 150 43 139 37 q 166 57 161 50 q 182 81 172 64 q 195 178 195 104 q 193 203 195 189 q 192 227 192 216 q 195 275 192 252 q 193 298 195 283 q 192 318 192 314 q 193 339 192 324 q 193 366 193 355 q 192 399 193 387 q 196 416 192 405 q 200 433 200 427 q 197 454 200 439 q 193 478 193 469 q 195 501 193 485 q 197 525 197 517 q 195 543 197 532 q 192 562 193 549 q 189 586 191 574 q 192 608 189 593 q 195 627 195 623 q 193 657 195 633 q 191 688 191 682 q 187 748 191 730 q 170 793 183 766 q 148 819 161 810 q 104 828 134 828 q 98 832 101 828 q 94 843 94 837 q 98 857 94 849 q 172 863 102 863 l 237 863 q 295 861 242 863 q 349 859 347 859 q 380 859 351 859 q 415 860 409 860 q 477 861 420 860 q 558 863 534 863 q 717 848 687 860 q 755 831 736 842 q 777 821 774 821 q 803 807 792 814 q 823 790 814 801 q 835 773 831 779 q 849 749 839 768 q 864 722 859 731 q 875 675 869 712 q 882 619 882 639 q 866 557 882 585 q 803 478 851 528 m 631 500 q 672 564 655 522 q 689 642 689 606 q 688 660 689 651 q 686 675 687 669 q 683 690 686 681 q 679 702 680 699 q 674 716 678 705 q 669 730 670 728 q 645 770 661 753 q 611 791 630 787 q 600 798 608 792 q 579 809 593 804 q 542 814 565 814 q 524 815 538 814 q 503 817 510 817 q 482 814 496 817 q 458 811 468 811 q 432 810 441 811 q 411 807 422 810 q 394 797 400 804 q 385 778 387 789 l 380 766 q 376 703 376 755 q 377 683 376 700 q 378 660 378 666 l 378 497 q 377 478 378 491 q 376 458 376 465 q 386 422 376 429 q 400 419 389 419 q 428 422 409 419 q 458 425 446 425 q 532 428 516 425 q 631 500 562 433 z "},"s":{"ha":812,"x_min":81,"x_max":745,"o":"m 406 835 q 293 800 354 835 q 262 771 272 787 q 250 725 253 755 q 248 700 248 709 q 253 675 248 688 q 273 648 257 664 q 304 624 290 632 l 385 576 q 417 556 406 562 q 444 551 429 551 q 494 538 465 551 q 526 525 524 526 q 560 511 541 521 q 601 487 578 500 q 633 468 623 473 q 714 391 683 443 q 745 297 745 340 l 745 239 q 741 205 745 222 q 732 171 737 188 q 725 149 726 153 q 712 125 720 136 q 700 106 705 114 q 685 90 694 99 q 670 77 675 81 q 653 63 665 73 q 637 50 642 54 q 592 27 623 39 q 550 16 562 16 q 528 17 542 17 q 503 7 511 17 q 482 -4 496 -1 q 447 -9 468 -7 q 419 -11 426 -10 q 413 -12 417 -11 q 407 -12 409 -12 q 383 -11 397 -12 q 346 -7 369 -9 q 306 -3 323 -4 q 175 28 244 3 q 108 58 127 43 q 87 98 88 73 q 93 249 91 224 q 92 271 93 255 q 90 293 90 286 q 114 325 90 325 q 134 311 128 325 q 174 211 163 233 q 196 175 183 190 q 227 145 209 159 q 250 126 245 132 q 262 112 253 123 q 276 96 271 101 q 289 84 281 92 q 305 74 297 77 q 322 69 313 71 q 368 57 334 68 q 418 46 403 46 q 428 47 425 46 q 446 50 429 47 q 464 52 463 52 q 517 58 505 52 q 544 75 524 64 q 572 98 564 85 q 580 110 574 102 q 588 122 585 119 q 594 134 590 126 q 600 146 598 141 q 604 158 602 151 q 607 173 606 165 q 608 187 608 180 q 598 234 608 212 q 570 271 589 255 q 533 298 551 288 q 490 321 515 309 q 462 340 477 327 q 428 365 446 354 q 383 379 410 375 q 317 406 351 385 q 261 429 282 427 q 176 469 231 433 q 110 524 121 504 q 81 642 81 570 q 85 682 81 663 q 98 718 90 702 q 113 745 106 734 q 128 767 119 755 l 138 779 q 189 824 153 803 q 245 852 225 846 q 393 879 338 879 q 432 877 401 879 q 471 875 463 875 q 522 862 490 875 q 575 848 555 848 q 602 855 579 848 q 629 861 624 861 q 647 851 641 860 q 656 815 653 842 q 662 778 658 795 q 668 747 667 760 q 679 699 669 734 q 689 650 689 664 q 669 632 689 632 q 655 636 661 632 q 646 643 648 640 q 640 656 644 646 q 635 668 635 667 q 618 695 631 676 q 602 724 606 713 q 558 770 591 745 q 536 785 553 773 q 504 806 519 797 q 482 815 489 814 q 444 825 468 815 q 406 835 420 835 z "},"t":{"ha":920,"x_min":54,"x_max":867,"o":"m 608 865 l 707 865 q 751 871 720 865 q 790 876 783 876 q 815 867 802 876 q 833 838 829 858 q 848 770 838 815 q 862 703 858 726 q 867 668 867 680 q 863 646 867 652 q 848 640 860 640 q 843 642 846 640 q 837 646 840 643 q 831 652 834 649 q 825 661 829 655 q 818 670 821 666 q 810 681 815 673 q 803 692 806 688 q 721 775 779 728 q 603 803 692 798 q 584 794 592 803 q 573 778 576 785 q 570 765 571 771 q 568 748 569 762 q 566 715 567 734 q 564 685 565 696 l 564 677 q 566 648 564 669 q 568 614 568 627 q 564 600 568 610 q 559 582 559 589 q 567 509 567 538 q 565 482 567 498 q 562 463 562 467 q 567 433 562 454 q 572 399 572 411 q 566 352 572 378 q 559 315 559 325 q 564 282 559 307 q 568 228 568 258 l 568 129 q 572 62 568 92 q 602 35 574 43 q 618 32 608 33 q 636 29 629 31 q 647 25 644 28 q 652 17 652 23 q 647 3 652 7 q 631 -4 646 1 q 593 -7 610 -7 q 553 -6 578 -7 q 522 -5 527 -5 l 506 -5 q 457 -4 489 -5 q 389 -4 425 -4 q 366 -5 388 -4 q 329 -7 343 -7 q 300 -3 304 -7 q 297 12 297 0 q 300 24 297 22 q 334 29 303 25 q 366 47 349 31 q 376 69 372 54 q 380 93 380 84 q 383 184 383 101 q 382 277 383 238 q 380 318 380 316 l 380 416 q 385 441 380 427 q 390 458 390 454 q 387 471 389 462 q 384 486 385 480 q 381 506 383 491 q 379 541 380 520 q 376 650 376 635 q 374 732 376 692 q 372 774 372 773 q 373 778 372 775 q 374 781 374 780 q 313 803 374 803 q 203 778 231 800 q 115 686 128 714 q 93 653 105 665 q 72 640 81 640 q 58 647 61 640 q 54 668 54 653 q 59 703 54 680 q 73 770 63 726 q 87 838 83 815 q 103 867 92 858 q 125 876 113 876 q 163 871 132 876 q 208 865 195 865 q 268 864 256 865 q 298 863 280 863 q 329 865 301 865 q 364 865 343 865 q 386 864 385 864 l 510 864 l 514 864 q 549 865 519 864 q 591 867 578 867 q 602 866 595 867 q 608 865 608 865 z "},"u":{"ha":1067,"x_min":66,"x_max":1028,"o":"m 905 375 q 895 241 905 299 q 852 127 885 182 q 837 104 847 117 q 812 76 826 92 q 793 54 798 61 q 783 43 788 48 q 770 34 778 38 q 757 28 762 30 q 741 22 752 26 q 725 16 730 18 q 705 8 718 13 q 686 1 693 4 q 667 -4 678 -1 q 644 -9 655 -7 q 602 -18 635 -11 q 547 -25 568 -25 q 483 -18 522 -25 q 432 -11 444 -12 q 360 4 406 -9 q 300 26 315 16 q 277 41 294 31 q 252 57 261 51 q 230 74 242 64 q 211 93 218 83 q 200 114 203 103 q 178 151 199 117 q 157 203 157 184 q 150 244 156 216 q 143 290 143 273 q 144 334 143 305 q 146 376 146 363 q 142 447 142 393 q 145 474 142 459 q 149 500 149 488 q 144 547 149 518 q 140 590 140 576 q 140 595 140 592 q 141 605 140 598 q 141 623 141 612 q 142 657 142 634 q 142 711 142 680 q 144 736 142 718 q 147 766 147 755 q 131 808 147 794 q 103 828 111 828 q 74 832 82 828 q 66 846 66 836 q 77 863 66 857 q 107 865 79 865 q 143 865 121 865 q 165 864 165 864 l 288 864 l 292 864 q 327 865 297 864 q 370 867 357 867 q 379 866 374 867 q 386 865 385 865 q 395 864 390 864 q 402 865 397 864 q 414 867 408 867 q 422 852 422 867 q 412 836 422 838 q 363 812 382 823 q 342 761 348 802 q 338 734 338 749 q 338 721 338 730 q 339 708 339 712 q 336 690 339 694 q 329 656 329 680 q 330 598 329 635 q 332 543 332 560 q 330 511 332 525 q 331 461 330 487 q 332 429 332 435 q 328 411 332 427 q 325 376 325 395 q 330 319 325 357 q 335 279 335 281 q 335 265 335 276 q 336 249 336 254 q 338 235 337 243 q 342 218 340 226 q 350 204 345 211 q 380 154 376 170 q 437 93 388 129 q 490 68 451 83 q 538 47 530 54 q 561 39 547 39 q 575 41 568 39 q 592 47 583 43 q 604 52 602 51 q 637 52 627 52 q 662 56 647 52 q 688 66 677 59 q 728 88 694 71 q 770 118 762 104 q 781 137 777 129 q 793 163 785 146 q 808 195 801 180 q 831 280 821 220 q 840 375 840 340 q 842 420 840 392 q 844 463 844 448 q 844 487 844 475 q 842 505 843 498 q 842 513 842 511 q 844 536 842 520 q 847 566 847 551 q 842 587 846 577 q 838 602 838 596 q 837 625 838 611 q 836 647 836 639 q 833 673 836 665 q 825 687 831 680 q 817 707 820 694 q 813 717 815 710 q 810 725 810 724 q 807 731 809 727 q 805 738 806 736 q 803 743 804 739 q 799 749 801 746 q 795 755 798 751 q 790 762 793 758 q 737 812 768 794 q 723 817 736 813 q 705 828 711 821 q 699 847 699 835 q 725 864 699 864 q 744 863 730 864 q 765 863 758 863 l 810 863 q 865 859 846 863 q 893 856 875 856 q 922 859 904 856 q 949 863 939 862 q 975 866 958 863 q 1000 869 992 869 q 1018 865 1010 869 q 1028 852 1028 861 q 1016 837 1028 844 q 984 817 1004 829 q 953 791 965 806 q 941 774 947 784 q 933 759 936 764 q 925 740 930 753 q 920 725 920 727 q 911 667 911 704 q 909 609 911 660 q 908 522 908 559 q 906 495 908 511 q 904 469 904 478 q 905 406 904 433 q 905 375 905 380 z "},"v":{"ha":1124,"x_min":56,"x_max":1071,"o":"m 746 831 q 721 848 724 831 q 758 863 721 863 q 788 861 759 863 q 856 859 817 860 q 917 857 894 857 q 1040 867 1002 867 q 1071 850 1069 867 q 1065 834 1071 838 q 1048 831 1060 831 q 1017 826 1036 831 q 987 808 998 821 q 982 802 985 806 q 977 797 979 799 q 971 790 975 795 q 965 778 968 785 q 949 756 962 770 q 924 717 936 742 q 880 632 916 700 q 857 583 868 610 q 838 539 846 555 q 822 515 831 524 q 808 487 812 506 q 798 456 805 469 q 779 409 793 447 q 753 353 764 372 q 715 272 721 299 q 660 157 708 243 q 647 120 655 149 q 629 81 639 91 q 616 48 623 73 q 600 5 609 23 q 575 -12 590 -12 q 532 -5 555 -12 q 504 18 510 2 q 478 65 498 30 q 450 118 458 101 q 431 155 446 130 q 412 197 416 181 q 396 236 409 213 q 379 271 383 258 q 375 283 378 273 q 371 296 372 293 q 367 308 370 300 q 361 320 364 315 q 353 331 358 325 q 343 343 349 338 q 329 362 335 351 q 320 379 323 372 q 315 398 318 385 q 310 414 311 410 q 306 430 308 420 q 300 448 303 441 q 290 464 297 455 q 280 483 288 469 q 267 509 273 496 q 257 534 261 522 q 249 559 253 545 q 241 585 245 574 q 228 608 237 596 q 196 660 212 629 q 175 710 180 690 q 139 787 170 745 q 135 794 138 788 q 127 804 131 800 q 116 813 124 808 q 98 821 109 819 q 66 832 75 827 q 56 846 57 838 q 60 860 56 855 q 81 864 64 864 q 90 865 84 864 q 98 865 96 865 q 109 864 104 865 q 176 860 119 863 q 236 857 233 857 q 309 861 255 857 q 368 864 363 864 q 424 847 424 864 q 419 833 424 839 q 406 828 414 828 q 385 819 398 828 q 368 796 371 809 q 367 785 367 793 q 378 729 367 760 q 392 681 378 713 q 407 632 406 649 q 432 572 415 579 q 457 522 438 570 q 482 457 477 475 q 497 431 486 450 q 511 399 508 413 q 535 349 515 383 q 555 293 555 314 q 568 265 555 281 q 583 244 581 248 q 589 230 586 238 q 594 217 592 222 q 599 207 596 212 q 604 200 602 202 q 610 197 606 197 q 627 230 610 197 q 646 269 643 263 l 676 339 q 690 373 682 351 q 705 406 698 395 q 713 417 710 412 q 719 429 717 423 q 722 439 721 435 q 724 450 723 442 q 726 460 726 457 q 759 539 737 492 q 789 611 781 586 q 796 656 793 623 q 804 714 798 690 q 805 718 804 715 q 806 722 806 721 q 801 750 806 730 q 794 781 795 770 q 777 815 794 800 q 746 831 760 831 z "},"w":{"ha":1575,"x_min":57,"x_max":1522,"o":"m 1118 32 q 1110 19 1116 28 q 1102 6 1105 9 q 1094 -3 1099 2 q 1081 -10 1088 -8 q 1064 -12 1074 -12 q 1023 -5 1045 -12 q 996 18 1002 2 q 974 62 993 25 q 949 118 955 100 q 931 152 946 124 q 916 197 917 180 q 901 236 913 213 q 886 271 890 259 q 883 286 885 275 q 879 301 880 296 q 874 314 878 306 q 866 330 871 323 q 854 343 861 336 q 827 406 837 362 q 810 464 818 450 q 779 534 789 503 q 775 564 775 544 q 765 590 775 573 q 754 557 764 589 q 734 515 745 526 q 720 487 724 505 q 710 456 717 468 q 692 408 705 445 q 669 353 680 371 q 635 272 638 297 q 616 214 632 254 q 591 157 600 173 q 571 109 585 145 q 555 69 557 72 q 538 36 545 47 q 522 12 532 24 q 502 -7 512 -1 q 479 -12 492 -12 q 439 -5 460 -12 q 412 18 418 2 q 391 64 408 28 q 368 118 374 100 q 353 154 366 127 q 339 197 340 180 q 326 237 337 214 q 311 271 315 260 q 309 286 311 275 q 305 301 307 296 q 301 314 304 306 q 294 330 298 323 q 282 343 289 336 q 268 365 273 354 q 259 394 263 376 q 256 414 256 412 q 253 430 254 420 q 250 448 252 441 q 243 464 248 455 q 215 534 224 504 q 208 567 213 541 q 193 608 203 592 q 166 660 180 629 q 149 710 153 690 q 121 787 147 736 q 97 814 113 803 q 69 832 81 825 q 57 846 57 839 q 82 864 57 864 q 100 865 91 864 q 113 865 109 865 q 125 864 121 865 q 180 860 136 863 q 225 857 224 857 q 310 861 245 857 q 379 864 374 864 q 431 850 431 864 q 411 828 431 828 q 400 825 407 828 q 381 813 393 823 q 361 789 370 803 q 357 768 357 781 q 361 726 357 751 q 371 680 361 711 q 382 632 381 648 q 401 572 382 581 q 421 522 407 570 q 439 457 435 474 q 451 432 441 451 q 463 399 461 414 q 483 353 465 387 q 500 293 500 319 q 511 263 500 281 q 524 244 523 246 q 526 236 524 243 q 530 226 528 230 q 534 217 532 222 q 540 209 536 212 q 547 205 543 206 q 559 235 548 205 q 572 269 571 264 q 587 307 576 279 q 600 339 598 334 q 613 373 606 351 q 627 406 620 395 q 636 421 633 414 q 641 434 640 429 q 644 447 642 439 q 646 460 645 456 q 674 539 654 492 q 701 611 694 586 q 724 675 709 641 q 742 720 739 709 q 781 808 770 785 q 785 818 782 811 q 789 827 788 825 q 793 835 790 829 q 798 842 796 840 q 802 848 799 844 q 808 852 805 851 q 814 855 810 854 q 822 856 818 856 q 880 815 858 856 q 889 798 881 814 q 900 773 897 781 q 907 751 903 765 q 911 726 911 737 q 928 680 911 710 q 947 632 946 649 q 968 572 947 581 q 1011 457 978 568 q 1024 431 1014 448 q 1036 399 1035 413 q 1057 350 1040 387 q 1074 292 1074 313 q 1086 266 1074 281 q 1100 244 1098 250 q 1102 236 1100 243 q 1106 222 1104 228 q 1110 210 1107 216 q 1117 199 1113 203 q 1125 195 1121 195 q 1132 212 1126 195 q 1143 248 1137 229 q 1149 269 1149 266 q 1160 303 1151 277 q 1173 339 1170 328 q 1184 374 1179 352 q 1196 406 1190 395 q 1202 416 1200 411 q 1207 425 1205 422 q 1210 434 1208 429 q 1212 442 1211 440 q 1213 451 1212 444 q 1214 460 1214 458 q 1236 539 1221 492 q 1257 611 1251 586 q 1260 639 1260 621 l 1260 675 q 1262 707 1260 696 q 1264 724 1264 717 q 1260 751 1264 732 q 1254 781 1255 770 q 1235 814 1252 798 q 1197 831 1217 831 q 1181 836 1187 831 q 1175 850 1175 842 q 1210 863 1175 863 q 1241 861 1211 863 q 1308 859 1271 860 q 1361 857 1344 857 q 1424 862 1371 858 q 1491 867 1478 867 q 1522 847 1521 867 q 1500 831 1522 831 q 1473 825 1492 831 q 1449 814 1455 820 q 1437 805 1445 810 q 1424 793 1429 799 q 1415 778 1419 788 q 1404 756 1413 770 q 1385 717 1395 741 q 1378 696 1382 707 q 1364 664 1373 684 q 1350 632 1355 644 q 1332 583 1341 610 q 1316 539 1322 555 q 1301 515 1310 524 q 1291 488 1292 506 q 1282 456 1289 469 q 1266 407 1276 444 q 1247 353 1256 371 q 1238 332 1244 345 q 1229 314 1232 319 q 1223 299 1227 308 q 1218 284 1219 291 q 1215 272 1216 278 q 1172 151 1215 254 q 1118 32 1129 47 z "},"x":{"ha":1107,"x_min":66,"x_max":1039,"o":"m 742 635 q 716 602 737 627 q 676 547 696 576 q 646 509 665 530 q 618 476 626 487 q 662 420 628 460 q 701 372 696 380 q 770 285 739 311 q 804 245 787 270 q 835 207 822 220 q 866 172 839 201 q 901 131 894 142 q 975 54 947 67 q 1018 36 1012 36 q 1039 21 1038 36 q 1031 6 1039 12 q 1011 0 1023 0 l 996 0 q 961 1 979 0 q 937 3 942 3 q 904 -1 933 3 q 873 -4 874 -4 q 838 -3 851 -4 q 810 1 836 -3 q 781 5 785 5 q 718 1 763 5 q 667 -4 673 -3 q 645 1 654 -4 q 636 16 636 7 q 657 32 637 32 q 675 38 664 32 q 692 54 686 44 q 696 77 696 62 q 689 117 696 98 q 673 136 682 126 q 660 152 665 146 q 650 172 656 159 q 626 204 645 184 q 602 231 606 224 q 593 240 600 232 q 579 256 585 249 q 568 271 573 262 q 562 283 562 279 q 551 298 559 289 q 529 321 542 308 q 509 343 516 335 q 456 279 471 303 q 422 227 442 255 q 395 187 401 199 q 376 163 391 180 q 351 130 361 146 q 338 97 341 113 q 334 81 337 94 q 330 62 330 68 q 334 52 330 55 q 350 35 340 41 q 369 24 360 28 q 378 20 377 21 q 386 -3 386 12 l 385 -7 q 357 -10 382 -7 q 325 -12 332 -12 q 299 -11 322 -12 q 264 -9 275 -9 q 211 -12 248 -12 q 191 -11 195 -12 q 168 -9 184 -9 q 131 -12 159 -9 q 92 -14 102 -14 q 78 -12 81 -14 q 66 8 66 -7 q 71 21 66 17 q 90 32 81 31 q 130 55 94 33 q 170 79 165 77 q 201 103 180 87 q 236 129 222 119 q 261 144 251 140 q 300 184 271 150 q 338 224 330 218 q 367 262 348 230 q 392 300 386 294 q 472 393 414 322 l 411 476 q 381 518 397 488 q 349 562 365 547 q 314 605 335 576 q 283 644 292 634 q 245 695 262 671 q 220 732 229 720 q 203 751 211 744 q 183 771 195 758 q 160 792 170 783 q 135 814 150 802 q 122 819 133 815 q 103 826 111 822 q 94 836 94 831 q 111 860 94 860 q 125 861 116 860 q 139 861 134 861 q 153 860 147 861 q 233 862 172 860 q 311 864 294 864 q 429 860 370 860 q 458 840 458 860 q 437 823 456 823 q 434 823 435 823 q 430 820 432 822 q 427 816 428 818 q 422 810 425 814 q 416 803 418 806 q 414 789 414 799 q 440 725 414 774 q 451 709 444 717 q 464 692 457 701 q 473 681 471 684 q 495 651 477 675 q 517 612 513 628 q 522 600 518 607 q 534 584 526 593 q 547 567 541 574 q 565 547 553 559 q 582 526 576 534 q 623 587 609 569 q 650 628 637 608 q 669 657 663 648 q 681 672 675 667 q 707 714 692 683 q 725 750 722 745 q 737 802 737 772 q 716 823 737 815 q 692 835 695 830 q 689 843 689 838 q 692 856 689 849 q 697 863 694 863 q 725 865 704 863 q 751 867 746 867 q 778 865 754 867 q 811 863 801 863 q 885 865 825 865 q 927 867 895 865 q 974 869 959 869 q 999 867 988 869 q 1008 847 1008 864 q 1004 833 1008 838 q 1002 831 1004 833 q 999 827 1001 829 q 994 823 998 825 q 985 821 990 821 q 943 794 981 820 q 892 760 904 768 q 849 730 863 742 q 826 708 835 718 q 808 690 817 698 q 742 635 753 652 z "},"y":{"ha":1002,"x_min":56,"x_max":949,"o":"m 489 572 q 509 548 497 565 q 529 518 521 530 q 541 505 538 505 q 546 507 543 505 q 550 509 548 508 q 555 514 552 511 q 559 520 557 517 q 564 528 561 522 q 570 536 568 533 q 628 619 614 597 q 649 663 637 631 q 673 718 661 696 q 682 746 679 728 q 688 775 684 764 q 689 786 689 779 q 678 817 689 804 q 656 829 667 829 q 640 834 644 829 q 636 848 636 838 q 667 861 642 861 q 733 859 673 861 q 817 857 793 857 q 866 859 831 857 q 914 861 902 861 q 941 858 933 861 q 949 846 949 855 q 918 825 944 825 q 886 806 911 825 q 852 777 861 786 q 830 755 848 770 q 793 717 812 741 q 760 676 784 705 q 724 633 735 648 q 673 567 696 601 q 642 524 650 534 q 597 399 597 463 q 590 352 597 378 q 583 315 583 325 q 588 282 583 307 q 593 228 593 258 q 597 62 593 97 q 627 35 600 43 q 643 32 633 33 q 661 29 654 31 q 672 25 669 28 q 676 17 676 23 q 672 3 676 7 q 646 -5 668 -3 q 618 -7 640 -7 q 578 -6 604 -7 q 547 -5 552 -5 q 530 -5 547 -5 q 481 -4 513 -5 q 414 -4 450 -4 q 391 -5 413 -4 q 354 -7 368 -7 q 325 -3 329 -7 q 322 12 322 0 q 325 24 322 22 q 358 29 328 26 q 389 47 376 31 q 401 69 396 54 q 406 93 406 84 q 408 184 408 101 q 407 277 408 238 q 406 318 406 316 l 406 363 q 402 388 406 372 q 399 414 399 404 q 390 431 394 421 q 380 448 385 440 q 366 467 375 456 q 314 534 336 499 q 300 559 308 545 q 284 585 292 574 q 264 608 277 596 q 217 660 241 630 q 184 710 193 690 q 127 787 170 742 q 120 795 126 789 q 109 807 115 802 q 98 815 104 812 q 59 836 63 830 q 56 846 56 840 q 71 864 56 864 q 89 865 75 864 q 113 865 104 865 q 134 864 128 865 q 205 857 153 861 q 271 861 222 857 q 325 864 319 864 q 374 850 368 864 q 374 846 374 848 q 375 842 375 843 q 361 828 375 828 q 349 819 355 828 q 343 796 343 810 q 379 729 343 787 q 412 681 383 713 q 447 632 441 649 q 489 572 457 604 z "},"z":{"ha":903,"x_min":68,"x_max":836,"o":"m 319 82 q 371 63 319 70 q 452 57 423 57 q 474 60 463 57 q 496 64 486 64 q 518 63 501 64 q 546 62 535 62 q 685 119 626 62 q 778 227 760 189 q 797 251 784 240 q 818 261 809 261 q 830 253 825 261 q 836 228 836 244 q 828 142 836 216 q 819 39 819 68 q 778 3 819 3 q 730 4 763 3 q 671 8 698 6 q 643 9 644 9 q 613 7 635 9 q 576 5 591 5 q 472 6 551 6 q 343 8 394 7 q 225 3 246 8 q 170 -4 199 -4 q 146 -3 162 -4 q 122 -3 131 -3 q 106 -4 117 -3 q 90 -5 95 -5 q 68 14 68 -5 q 69 21 68 17 q 75 32 71 25 q 83 43 79 38 q 95 60 86 48 q 109 79 103 71 q 169 171 128 108 q 233 264 210 235 q 283 334 271 307 q 342 424 311 391 q 390 500 367 450 q 458 599 404 524 q 493 644 471 617 q 528 689 515 671 q 558 744 540 708 q 576 791 576 779 q 541 802 569 802 q 523 804 535 802 q 503 806 511 806 q 480 802 493 806 q 457 799 468 799 q 433 800 452 799 q 401 800 414 800 q 257 747 315 800 q 205 695 235 728 q 164 640 176 663 q 148 615 158 625 q 129 604 137 604 q 117 613 122 604 q 111 637 111 621 q 119 723 111 650 q 127 827 127 797 q 137 855 127 848 q 165 863 147 863 q 211 861 179 863 q 271 859 243 860 q 300 857 298 857 q 329 859 308 857 q 366 860 351 860 l 414 860 q 438 861 422 860 q 464 863 454 863 l 632 863 q 651 858 635 863 q 672 852 668 852 q 757 860 700 860 q 774 861 762 860 q 791 861 786 861 q 822 840 822 861 q 803 791 822 825 q 772 746 783 757 q 700 643 735 704 q 681 614 696 637 q 656 577 666 591 q 631 544 647 563 q 602 514 616 525 q 570 460 589 505 q 538 403 551 416 q 505 360 522 389 q 478 323 488 332 q 447 279 463 309 q 424 240 431 249 q 404 220 417 231 q 389 201 391 210 q 375 181 384 191 q 364 163 367 172 q 351 145 363 162 q 329 110 338 127 q 319 82 319 93 z "},"{":{"ha":379,"x_min":64,"x_max":397,"o":"m 64 507 q 109 546 64 519 q 125 556 119 551 q 133 563 131 561 q 139 572 134 564 q 144 582 143 579 q 158 646 158 602 q 154 710 158 698 q 140 762 140 744 q 139 781 140 772 q 136 794 138 789 q 132 809 135 799 q 126 827 128 820 q 115 896 115 869 q 119 953 115 917 q 133 992 122 974 q 162 1024 144 1010 q 193 1046 180 1038 q 227 1065 206 1055 q 250 1076 248 1075 q 315 1100 289 1098 q 354 1107 342 1103 q 370 1109 362 1109 q 389 1106 380 1109 q 397 1096 397 1102 q 354 1063 397 1076 q 321 1048 330 1055 q 296 1022 312 1042 q 283 1008 291 1017 q 273 995 276 999 q 266 985 270 991 q 261 970 262 978 q 260 953 260 963 q 261 922 260 941 q 262 897 262 904 q 260 876 262 887 q 256 857 256 868 q 262 822 256 844 q 268 770 268 800 q 272 740 268 758 q 277 707 277 722 q 276 676 276 695 q 276 647 276 658 q 272 623 275 636 q 262 599 269 609 q 165 505 218 532 q 212 471 199 484 q 262 412 245 437 q 273 384 271 399 q 276 342 276 369 q 277 304 276 315 q 272 272 277 291 q 268 241 268 253 q 262 186 268 210 q 256 154 256 163 q 260 135 256 143 q 262 115 262 124 q 261 90 262 109 q 260 58 260 71 q 261 42 260 49 q 267 27 262 35 q 273 16 271 20 q 284 3 276 12 q 296 -11 292 -5 q 304 -20 300 -16 q 311 -27 308 -24 q 319 -33 314 -31 q 326 -37 323 -36 q 334 -41 328 -39 q 342 -44 340 -43 q 352 -48 344 -45 q 363 -52 360 -51 q 391 -65 385 -58 q 397 -85 397 -73 q 358 -94 397 -94 q 323 -90 334 -94 q 310 -87 313 -87 q 301 -88 308 -87 q 288 -89 294 -89 q 222 -65 261 -87 q 136 9 157 -31 q 115 117 115 48 q 126 184 115 142 q 132 202 128 191 q 136 218 135 213 q 139 231 138 222 q 140 249 140 239 q 154 302 140 266 q 158 366 158 315 q 146 428 158 403 q 111 464 134 451 q 81 484 99 470 q 64 507 64 497 z "},"|":{"ha":365,"x_min":107,"x_max":267,"o":"m 125 35 q 125 41 125 37 q 126 47 126 45 q 121 81 126 60 q 117 107 117 102 q 121 227 117 180 q 115 237 121 229 q 109 250 109 245 q 108 284 109 260 q 107 321 107 309 q 110 366 107 355 q 117 439 117 408 q 115 463 117 454 q 113 536 113 481 q 115 581 113 544 q 118 640 118 618 q 115 684 118 659 q 113 728 113 718 q 115 778 113 748 q 118 818 118 808 q 121 826 118 819 q 123 844 123 833 q 122 853 123 846 q 121 864 121 860 q 117 902 119 884 q 114 925 114 920 q 115 936 114 929 q 117 947 117 943 q 115 962 117 952 q 114 979 114 971 q 112 996 114 981 q 110 1014 110 1012 q 118 1033 112 1027 q 139 1040 124 1038 q 155 1043 153 1042 q 199 1044 159 1044 q 242 1036 221 1044 q 264 1010 264 1028 l 264 974 q 260 911 264 928 q 255 860 256 897 q 250 810 254 823 q 248 789 248 796 q 250 763 248 781 q 253 733 253 745 q 251 719 253 730 q 249 685 249 707 q 250 662 249 677 q 250 642 250 647 q 250 634 250 640 q 249 627 249 629 q 244 551 244 584 q 250 469 244 517 q 247 427 250 456 q 243 387 243 397 q 243 381 243 385 q 244 376 244 378 q 249 321 246 366 q 254 262 252 277 q 258 201 258 233 q 257 155 258 172 q 251 122 256 132 q 245 107 245 113 q 249 82 245 98 q 255 50 251 71 q 261 19 260 28 q 265 -7 263 9 q 267 -37 267 -22 q 254 -63 267 -52 q 223 -80 242 -74 q 188 -88 204 -85 q 157 -92 171 -91 q 129 -83 140 -92 q 118 -62 118 -75 q 125 35 118 -2 z "},"}":{"ha":376,"x_min":8,"x_max":342,"o":"m 342 507 q 324 484 342 497 q 294 464 307 470 q 260 428 271 451 q 248 366 248 403 q 252 302 248 315 q 265 249 265 266 q 267 231 265 239 q 269 218 268 222 q 274 202 271 213 q 279 184 277 191 q 290 117 290 142 q 269 9 290 48 q 183 -65 248 -31 q 118 -89 144 -87 q 104 -88 111 -89 q 96 -87 98 -87 q 82 -90 93 -87 q 47 -94 72 -94 q 8 -85 8 -94 q 15 -65 8 -73 q 43 -52 21 -58 q 54 -48 45 -51 q 64 -44 62 -45 q 72 -41 66 -43 q 80 -37 78 -39 q 87 -33 82 -36 q 95 -27 92 -31 q 102 -20 98 -24 q 110 -11 106 -16 q 122 3 114 -5 q 132 16 130 12 q 139 27 135 20 q 144 42 143 35 q 146 58 146 49 q 144 90 146 71 q 143 115 143 109 q 146 135 143 124 q 150 154 150 143 q 144 186 150 163 q 138 241 138 210 q 133 272 138 253 q 129 304 129 291 q 130 335 130 316 q 130 364 130 353 q 134 389 130 375 q 143 412 137 402 q 193 471 160 437 q 211 485 199 477 q 231 499 222 494 l 240 505 q 143 599 187 532 q 132 627 135 612 q 130 669 130 642 q 129 707 130 696 q 133 740 129 722 q 138 770 138 758 q 143 822 138 800 q 150 857 150 844 q 146 876 150 868 q 143 897 143 887 q 144 922 143 904 q 146 953 146 941 q 144 970 146 963 q 139 985 143 978 q 133 995 136 991 q 122 1008 130 999 q 110 1022 115 1017 q 85 1048 94 1042 q 52 1063 76 1055 q 8 1096 8 1076 q 17 1106 8 1102 q 36 1109 25 1109 q 52 1107 43 1109 q 90 1100 63 1103 q 155 1076 117 1098 q 179 1065 158 1075 q 213 1046 199 1055 q 244 1024 226 1038 q 273 992 262 1010 q 286 953 283 974 q 290 896 290 917 q 279 827 290 869 q 274 809 277 820 q 269 794 271 799 q 267 781 268 789 q 265 762 265 772 q 252 710 265 744 q 248 646 248 698 q 261 582 248 602 q 267 572 262 579 q 273 563 271 564 q 281 556 275 561 q 297 546 287 551 q 342 507 342 519 z "},"~":{"ha":744,"x_min":45,"x_max":705,"o":"m 45 443 q 52 476 45 461 q 75 509 60 491 l 90 526 q 107 542 96 536 q 121 554 119 547 q 157 590 123 566 q 228 621 190 614 q 282 627 259 627 q 407 583 354 627 q 453 559 431 564 q 466 548 456 559 q 494 533 476 537 q 527 520 504 530 q 571 510 550 510 q 596 522 581 510 q 615 545 611 533 q 620 559 616 549 q 626 574 623 568 q 631 588 628 581 q 636 600 633 595 q 643 606 640 604 q 656 608 648 608 q 687 592 669 608 q 705 557 705 576 q 679 493 705 528 q 621 429 653 458 q 594 415 608 420 q 560 407 580 410 q 533 403 540 404 q 508 407 528 403 q 476 412 487 411 q 420 435 453 417 q 363 473 387 453 q 294 521 313 512 q 250 530 278 530 q 199 525 217 530 q 163 501 182 520 q 125 454 140 481 q 119 439 122 450 q 111 419 116 428 q 96 406 106 410 q 83 403 93 403 q 60 417 75 403 q 45 443 45 431 z "},"":{"ha":309,"x_min":69,"x_max":249,"o":"m 235 -78 q 230 -42 235 -69 q 225 0 225 -15 q 228 18 225 11 q 231 26 231 25 l 227 39 q 225 58 225 44 q 226 83 225 65 q 227 113 227 102 q 224 155 227 124 q 221 237 221 180 q 224 296 221 260 q 228 340 228 332 l 228 372 q 224 407 228 395 q 222 429 222 414 q 222 449 222 435 q 221 471 221 463 q 224 500 221 490 q 231 591 231 524 q 206 614 229 606 q 161 623 183 623 q 87 570 87 611 q 87 541 87 559 q 86 514 86 523 q 92 454 86 488 q 98 371 98 431 q 92 249 98 279 l 92 155 q 90 133 92 148 q 89 110 89 119 q 92 81 89 99 q 94 54 94 62 q 90 35 94 51 q 86 -14 87 22 q 82 -64 85 -50 q 78 -146 78 -81 q 102 -171 78 -163 q 151 -178 125 -178 q 183 -176 178 -178 q 215 -159 199 -172 q 235 -126 232 -145 q 233 -106 235 -111 q 232 -98 232 -100 q 233 -90 232 -96 q 235 -78 235 -83 m 184 694 q 181 694 184 694 q 176 693 178 693 q 132 688 155 688 q 90 699 101 688 q 69 764 69 724 q 82 823 69 798 q 99 837 86 829 q 124 848 113 844 q 153 858 136 852 q 172 864 169 863 q 179 865 175 865 q 215 854 196 865 q 241 828 233 844 q 249 785 249 806 q 235 736 249 750 q 218 718 227 728 q 205 705 209 708 q 197 698 202 701 q 184 694 192 695 z "},"":{"ha":944,"x_min":81,"x_max":878,"o":"m 629 760 q 600 766 619 760 q 571 772 581 772 l 561 772 q 559 736 559 762 q 557 703 558 711 q 556 694 557 699 q 555 685 555 688 q 557 664 555 680 q 558 639 558 649 q 557 628 558 637 q 557 600 557 619 l 557 564 l 557 551 q 553 490 553 523 q 557 422 553 464 q 554 388 557 412 q 551 355 551 364 q 552 351 551 354 q 553 347 553 349 q 556 322 555 339 q 557 283 557 306 q 558 254 557 261 q 562 203 562 231 q 561 167 562 179 q 557 139 559 148 q 554 126 554 131 q 558 86 554 117 q 587 89 570 86 q 616 93 604 91 q 645 99 629 96 q 665 103 662 102 q 754 151 686 108 q 777 171 760 158 q 802 191 794 183 q 810 200 806 195 q 814 208 813 205 q 819 218 816 212 q 823 229 821 224 q 852 253 833 252 q 870 244 862 253 q 878 228 878 236 q 868 203 878 222 q 847 171 858 185 q 803 122 825 137 q 790 110 801 120 q 775 96 780 100 q 761 85 770 92 q 743 77 751 79 q 705 63 743 77 q 646 45 668 49 q 612 38 637 43 q 570 31 587 32 q 571 8 571 24 q 541 -24 571 -14 q 478 -36 510 -35 q 455 -29 465 -36 q 446 -12 446 -22 l 446 33 q 306 64 351 44 q 253 92 271 80 q 221 111 235 104 q 179 145 202 121 q 142 195 157 170 q 120 234 130 214 q 108 262 111 254 q 97 298 104 271 q 89 330 90 326 q 81 406 81 359 q 93 505 81 481 q 109 554 100 517 q 125 602 119 591 q 162 655 151 641 q 193 689 174 670 q 245 722 224 722 q 256 725 253 722 q 261 734 259 728 q 264 743 262 741 q 284 764 267 753 q 329 785 302 776 q 444 817 363 798 q 443 827 444 819 q 441 840 441 834 q 439 854 441 842 q 437 869 437 867 q 445 885 439 880 q 462 890 451 889 q 476 893 473 892 q 513 895 480 895 q 550 887 532 895 q 568 865 568 880 l 568 827 q 604 825 579 825 q 646 820 630 823 q 669 813 661 817 q 681 808 677 809 q 702 805 686 808 q 721 802 718 802 q 744 807 724 802 q 770 812 764 812 q 785 804 779 811 q 793 772 790 796 q 800 732 795 754 q 806 699 804 710 q 816 657 807 689 q 825 612 825 626 q 807 596 825 596 q 787 606 798 596 q 772 629 777 615 q 758 652 769 635 q 742 677 747 669 q 700 730 727 706 q 629 760 644 760 m 349 179 q 374 155 355 174 q 409 124 393 136 q 447 102 426 111 q 444 126 444 121 q 445 169 444 128 q 446 224 446 209 q 441 233 446 227 q 436 244 436 240 l 436 301 q 437 339 436 330 q 444 397 444 372 q 443 418 444 411 q 440 478 440 433 q 443 514 440 484 q 446 564 446 545 q 443 599 446 580 q 440 636 440 626 q 443 676 440 652 q 446 710 446 701 l 446 753 q 424 748 435 752 q 407 740 412 743 q 387 726 401 736 q 371 714 374 716 q 356 702 364 711 q 337 675 349 692 q 317 647 326 658 q 284 582 297 623 q 271 505 271 541 q 266 476 271 498 q 261 441 261 454 q 268 345 261 380 l 272 329 q 286 275 281 293 q 308 227 292 256 q 349 179 325 198 z "},"":{"ha":804,"x_min":75,"x_max":739,"o":"m 216 475 q 210 572 210 546 q 208 657 210 593 q 207 737 207 720 q 212 783 207 760 q 222 817 217 805 q 235 844 227 828 q 244 863 243 861 q 267 897 252 880 q 296 921 281 914 q 357 961 312 929 q 411 981 371 971 q 489 990 451 990 q 566 986 526 990 q 621 978 606 982 q 688 968 659 968 q 720 943 720 968 q 716 919 720 937 q 711 892 713 901 q 711 885 711 890 q 710 878 710 880 q 712 842 710 867 q 714 806 714 817 q 708 769 714 786 q 690 753 703 753 q 669 764 677 753 q 660 789 661 775 q 656 804 659 795 q 649 822 654 812 q 643 838 645 832 q 604 897 630 874 q 577 919 585 914 q 550 933 570 924 q 517 939 537 939 q 496 938 513 939 q 464 937 479 937 q 392 913 429 937 q 371 886 378 903 q 358 839 364 868 q 357 825 357 835 q 352 787 352 819 q 353 700 351 755 q 355 615 355 644 q 361 481 355 573 l 366 481 q 399 482 373 481 q 440 484 426 484 q 470 483 461 484 q 492 480 479 483 q 511 471 505 477 q 526 407 526 456 q 465 383 526 383 q 429 384 464 383 q 368 385 395 385 q 364 300 364 300 q 364 272 366 284 q 360 247 363 260 q 358 232 358 233 q 355 219 358 229 q 347 191 353 208 q 334 161 340 174 q 376 165 346 165 q 468 132 404 165 q 539 106 498 117 q 607 94 581 94 q 696 132 661 94 q 705 148 701 138 q 714 161 710 157 q 724 165 718 165 q 739 142 739 165 q 727 90 739 126 q 701 40 714 53 q 660 -3 678 14 q 621 -21 645 -15 q 582 -28 596 -28 q 561 -26 572 -28 q 535 -20 550 -24 q 514 -16 520 -17 q 477 -8 488 -11 q 449 1 467 -6 q 418 20 431 9 q 372 41 400 34 q 335 52 344 47 q 321 57 328 55 q 305 59 315 58 q 289 60 295 60 q 269 60 283 60 q 249 60 255 60 q 223 56 236 60 q 201 50 210 53 q 181 38 193 46 q 165 27 170 31 q 151 15 161 24 q 140 5 141 5 q 133 -2 138 3 q 126 -8 128 -6 q 120 -13 123 -10 q 115 -16 117 -15 q 110 -17 112 -17 q 88 -9 101 -17 q 75 12 75 -1 q 81 35 75 24 q 109 74 87 47 q 123 89 110 76 q 153 122 136 102 q 184 160 170 141 q 215 253 205 186 q 225 370 225 319 q 224 382 225 376 q 212 380 221 382 q 196 379 203 379 q 160 382 187 379 q 152 382 158 382 q 143 383 145 382 q 135 384 140 383 q 127 385 130 385 q 121 388 125 386 q 115 391 117 389 q 110 396 112 393 q 102 440 102 408 q 113 471 102 462 q 146 482 124 482 q 175 479 153 482 q 216 475 197 475 z "},"":{"ha":1205,"x_min":89,"x_max":1145,"o":"m 385 507 q 441 511 403 507 q 488 515 479 515 q 504 514 492 514 q 484 546 500 530 q 468 566 468 562 q 403 648 420 619 q 385 679 395 660 q 366 710 375 697 q 342 737 357 722 q 286 800 315 763 q 245 861 257 837 q 178 954 230 899 q 168 965 175 957 q 155 980 161 973 q 142 989 149 986 q 129 993 141 989 q 110 1001 116 998 q 96 1011 103 1004 q 89 1026 89 1018 q 94 1042 89 1035 q 109 1048 99 1048 q 131 1049 114 1048 q 158 1050 148 1050 q 183 1048 176 1050 q 275 1039 220 1042 q 329 1044 289 1039 q 378 1048 369 1048 q 402 1048 394 1048 q 422 1043 410 1048 q 436 1031 433 1039 l 437 1021 q 421 1004 437 1004 q 407 992 414 1004 q 400 965 400 981 q 407 947 400 959 q 426 916 414 935 q 443 885 437 898 q 484 830 450 870 q 525 766 517 790 q 536 743 529 755 q 550 724 544 731 q 564 706 555 717 q 575 693 573 696 q 601 659 586 684 q 628 616 616 635 q 643 597 640 597 q 652 601 648 597 q 659 607 656 604 q 668 620 662 611 q 679 635 675 629 l 755 750 q 786 807 766 766 q 818 871 806 848 q 825 884 819 873 q 834 902 831 895 q 841 918 837 908 q 848 938 846 928 q 850 956 850 947 q 833 993 850 980 q 796 1006 816 1006 q 772 1029 772 1006 q 806 1046 779 1046 q 813 1045 808 1046 q 822 1044 819 1044 q 857 1043 824 1044 q 929 1040 890 1042 q 989 1039 969 1039 q 1043 1042 1003 1039 q 1099 1044 1083 1044 q 1145 1026 1145 1044 q 1107 1000 1139 1000 q 1055 981 1082 1000 q 1013 945 1027 962 q 989 922 1008 940 q 945 873 969 904 q 914 831 939 865 q 868 770 890 796 q 808 688 837 732 q 766 628 779 644 q 708 510 716 562 q 720 511 717 510 q 734 514 724 514 q 754 510 746 514 q 761 509 755 509 q 775 510 765 509 q 790 511 786 511 q 827 513 803 511 q 863 515 852 515 q 901 507 888 515 q 913 486 911 501 q 916 411 916 471 q 904 402 915 404 q 856 400 894 400 q 830 397 848 400 q 778 393 812 393 q 758 395 774 393 q 732 397 741 397 q 714 394 726 397 q 692 390 703 390 l 692 383 q 696 345 692 370 q 703 293 701 319 q 720 294 715 293 q 734 297 724 297 q 754 293 746 297 q 761 292 755 292 q 775 293 765 292 q 790 294 786 294 q 827 296 803 294 q 863 298 852 298 q 901 290 888 298 q 913 269 911 284 q 916 195 916 254 q 904 185 914 187 q 856 183 893 183 q 830 180 848 183 q 778 176 812 176 q 758 178 774 176 q 732 180 741 180 q 723 179 727 180 q 713 176 718 178 q 703 174 707 174 l 703 157 q 707 77 703 113 q 742 43 709 52 q 773 36 752 39 q 799 31 793 33 q 804 20 804 27 q 799 3 804 14 q 765 -7 795 -1 q 734 -8 760 -8 q 692 -7 720 -8 q 659 -7 665 -7 q 644 -6 658 -7 q 599 -5 631 -5 q 524 -4 568 -4 q 495 -5 523 -4 q 450 -7 468 -7 q 416 -3 418 -7 q 411 14 411 1 q 416 29 411 26 q 456 35 419 31 q 494 57 473 36 q 508 83 503 65 q 513 113 513 102 q 517 176 517 123 l 496 176 q 453 180 459 176 q 443 182 452 182 q 410 177 433 182 q 380 172 387 173 q 365 174 376 172 q 347 176 355 176 q 301 195 313 179 q 293 223 296 200 q 290 258 290 246 q 304 286 290 275 q 335 297 317 297 q 361 294 345 297 q 385 290 378 291 q 441 294 403 290 q 488 298 479 298 q 514 297 493 297 l 515 296 q 514 337 515 317 q 513 367 513 357 q 513 386 513 378 l 513 393 l 496 393 q 453 397 459 393 q 443 399 452 399 q 410 394 433 399 q 380 389 387 389 q 365 391 376 389 q 347 393 355 393 q 301 411 313 396 q 293 439 296 416 q 290 475 290 463 q 304 503 290 491 q 335 514 317 514 q 361 511 345 514 q 385 507 378 508 z "}}}
